M48
; DRILL file {KiCad 6.0.0-rc1-unknown-65cbf2d2b7~144~ubuntu18.04.1} date Mon Apr 25 14:09:20 2022
; FORMAT={-:-/ absolute / inch / decimal}
; #@! TF.CreationDate,2022-04-25T14:09:20+03:00
; #@! TF.GenerationSoftware,Kicad,Pcbnew,6.0.0-rc1-unknown-65cbf2d2b7~144~ubuntu18.04.1
; #@! TF.FileFunction,Plated,1,2,PTH
FMAT,2
INCH
; #@! TA.AperFunction,Plated,PTH,ComponentDrill
T1C0.0354
%
G90
G05
T1
X-0.252Y0.0444
X-0.252Y-0.0444
X-0.2216Y0.128
X-0.2216Y-0.128
X-0.1673Y0.0
X-0.1645Y0.196
X-0.1645Y-0.196
X-0.1449Y0.0837
X-0.1449Y-0.0837
X-0.0875Y0.2405
X-0.0875Y-0.2405
X-0.0837Y0.1449
X-0.0837Y-0.1449
X0.0Y0.2559
X0.0Y0.1673
X0.0Y-0.1673
X0.0Y-0.2559
X0.0837Y0.1449
X0.0837Y-0.1449
X0.0875Y0.2405
X0.0875Y-0.2405
X0.1449Y0.0837
X0.1449Y-0.0837
X0.1645Y0.196
X0.1645Y-0.196
X0.1673Y0.0
X0.2216Y0.128
X0.2216Y-0.128
X0.252Y0.0444
X0.252Y-0.0444
T0
M30
