%TF.GenerationSoftware,KiCad,Pcbnew,6.0.4-6f826c9f35~116~ubuntu18.04.1*%
%TF.CreationDate,2022-04-24T23:11:09+03:00*%
%TF.ProjectId,free_dry_electrodes_12_18,66726565-5f64-4727-995f-656c65637472,rev?*%
%TF.SameCoordinates,Original*%
%TF.FileFunction,Copper,L2,Bot*%
%TF.FilePolarity,Positive*%
%FSLAX46Y46*%
G04 Gerber Fmt 4.6, Leading zero omitted, Abs format (unit mm)*
G04 Created by KiCad (PCBNEW 6.0.4-6f826c9f35~116~ubuntu18.04.1) date 2022-04-24 23:11:09*
%MOMM*%
%LPD*%
G01*
G04 APERTURE LIST*
%TA.AperFunction,ComponentPad*%
%ADD10O,1.950000X1.950000*%
%TD*%
%TA.AperFunction,Conductor*%
%ADD11C,1.250000*%
%TD*%
G04 APERTURE END LIST*
D10*
%TO.P,REF5,1,Pin_1*%
%TO.N,Net-(REF26-Pad1)*%
X5910000Y1040000D03*
%TD*%
%TO.P,REF11,1,Pin_1*%
%TO.N,Net-(REF26-Pad1)*%
X-2050000Y-5630000D03*
%TD*%
%TO.P,REF21,1,Pin_1*%
%TO.N,Net-(REF26-Pad1)*%
X3460000Y2000000D03*
%TD*%
%TO.P,REF9,1,Pin_1*%
%TO.N,Net-(REF26-Pad1)*%
X2050000Y-5640000D03*
%TD*%
%TO.P,REF24,1,Pin_1*%
%TO.N,Net-(REF26-Pad1)*%
X2000000Y-3460000D03*
%TD*%
%TO.P,REF4,1,Pin_1*%
%TO.N,Net-(REF26-Pad1)*%
X5190000Y3000000D03*
%TD*%
%TO.P,REF3,1,Pin_1*%
%TO.N,Net-(REF26-Pad1)*%
X3860000Y4600000D03*
%TD*%
%TO.P,REF29,1,Pin_1*%
%TO.N,Net-(REF26-Pad1)*%
X-3470000Y2000000D03*
%TD*%
%TO.P,REF26,1,Pin_1*%
%TO.N,Net-(REF26-Pad1)*%
X-2000000Y-3460000D03*
%TD*%
%TO.P,REF2,1,Pin_1*%
%TO.N,Net-(REF26-Pad1)*%
X2050000Y5640000D03*
%TD*%
%TO.P,REF30,1,Pin_1*%
%TO.N,Net-(REF26-Pad1)*%
X-2000000Y3470000D03*
%TD*%
%TO.P,REF17,1,Pin_1*%
%TO.N,Net-(REF26-Pad1)*%
X-3860000Y4600000D03*
%TD*%
%TO.P,REF13,1,Pin_1*%
%TO.N,Net-(REF26-Pad1)*%
X-5200000Y-3000000D03*
%TD*%
%TO.P,REF12,1,Pin_1*%
%TO.N,Net-(REF26-Pad1)*%
X-3850000Y-4590000D03*
%TD*%
%TO.P,REF1,1,Pin_1*%
%TO.N,Net-(REF26-Pad1)*%
X0Y6000000D03*
%TD*%
%TO.P,REF7,1,Pin_1*%
%TO.N,Net-(REF26-Pad1)*%
X5200000Y-3000000D03*
%TD*%
%TO.P,REF16,1,Pin_1*%
%TO.N,Net-(REF26-Pad1)*%
X-5200000Y3000000D03*
%TD*%
%TO.P,REF10,1,Pin_1*%
%TO.N,Net-(REF26-Pad1)*%
X0Y-6000000D03*
%TD*%
%TO.P,REF23,1,Pin_1*%
%TO.N,Net-(REF26-Pad1)*%
X3460000Y-2000000D03*
%TD*%
%TO.P,REF22,1,Pin_1*%
%TO.N,Net-(REF26-Pad1)*%
X4000000Y0D03*
%TD*%
%TO.P,REF25,1,Pin_1*%
%TO.N,Net-(REF26-Pad1)*%
X0Y-4000000D03*
%TD*%
%TO.P,REF28,1,Pin_1*%
%TO.N,Net-(REF26-Pad1)*%
X-4000000Y0D03*
%TD*%
%TO.P,REF27,1,Pin_1*%
%TO.N,Net-(REF26-Pad1)*%
X-3460000Y-2000000D03*
%TD*%
%TO.P,REF14,1,Pin_1*%
%TO.N,Net-(REF26-Pad1)*%
X-5910000Y-1040000D03*
%TD*%
%TO.P,REF19,1,Pin_1*%
%TO.N,Net-(REF26-Pad1)*%
X0Y4000000D03*
%TD*%
%TO.P,REF15,1,Pin_1*%
%TO.N,Net-(REF26-Pad1)*%
X-5910000Y1040000D03*
%TD*%
%TO.P,REF18,1,Pin_1*%
%TO.N,Net-(REF26-Pad1)*%
X-2050000Y5640000D03*
%TD*%
%TO.P,REF20,1,Pin_1*%
%TO.N,Net-(REF26-Pad1)*%
X2000000Y3460000D03*
%TD*%
%TO.P,REF6,1,Pin_1*%
%TO.N,Net-(REF26-Pad1)*%
X5910000Y-1050000D03*
%TD*%
%TO.P,REF8,1,Pin_1*%
%TO.N,Net-(REF26-Pad1)*%
X3850000Y-4600000D03*
%TD*%
D11*
%TO.N,Net-(REF26-Pad1)*%
X4740000Y-3460000D02*
X5200000Y-3000000D01*
X-3860000Y4600000D02*
X-3860000Y4340000D01*
X2820000Y5640000D02*
X3860000Y4600000D01*
X-5910000Y1040000D02*
X-5910000Y2290000D01*
X2000000Y3460000D02*
X2000000Y5590000D01*
X1690000Y6000000D02*
X2050000Y5640000D01*
X-5200000Y-3240000D02*
X-3850000Y-4590000D01*
X-4000000Y1470000D02*
X-3470000Y2000000D01*
X3460000Y-2000000D02*
X3460000Y-1540000D01*
X-3470000Y2000000D02*
X-4950000Y2000000D01*
X5190000Y3000000D02*
X2460000Y3000000D01*
X-4200000Y-2000000D02*
X-5200000Y-3000000D01*
X-2050000Y3520000D02*
X-2000000Y3470000D01*
X0Y6000000D02*
X1690000Y6000000D01*
X2050000Y-5640000D02*
X1640000Y-5640000D01*
X0Y-5460000D02*
X2000000Y-3460000D01*
X-5200000Y-3000000D02*
X-5200000Y-3240000D01*
X5910000Y-1050000D02*
X5910000Y-2290000D01*
X-5910000Y1040000D02*
X-5910000Y-1040000D01*
X-2820000Y5640000D02*
X-3860000Y4600000D01*
X-3460000Y-2000000D02*
X-2000000Y-3460000D01*
X-4435000Y-1025000D02*
X-4435000Y1035000D01*
X-1470000Y4000000D02*
X-2000000Y3470000D01*
X-3860000Y4340000D02*
X-5200000Y3000000D01*
X2000000Y-5590000D02*
X2050000Y-5640000D01*
X3460000Y2000000D02*
X4950000Y2000000D01*
X2810000Y-5640000D02*
X3850000Y-4600000D01*
X4860000Y0D02*
X5910000Y-1050000D01*
X-5200000Y-1200000D02*
X-4000000Y0D01*
X3460000Y-4210000D02*
X3850000Y-4600000D01*
X0Y-6000000D02*
X-1680000Y-6000000D01*
X5200000Y-3250000D02*
X3850000Y-4600000D01*
X5190000Y3000000D02*
X5190000Y1190000D01*
X-5040000Y1040000D02*
X-4000000Y0D01*
X3460000Y-1540000D02*
X4000000Y-1000000D01*
X3460000Y-2000000D02*
X4960000Y-2000000D01*
X1640000Y-5640000D02*
X0Y-4000000D01*
X2000000Y5590000D02*
X2050000Y5640000D01*
X5200000Y-3000000D02*
X5200000Y-1200000D01*
X-5910000Y-1040000D02*
X-4420000Y-1040000D01*
X3850000Y-4600000D02*
X3140000Y-4600000D01*
X-2460000Y-3000000D02*
X-2000000Y-3460000D01*
X-2050000Y5640000D02*
X-1640000Y5640000D01*
X2000000Y3460000D02*
X2000000Y4000000D01*
X4000000Y1460000D02*
X3460000Y2000000D01*
X4000000Y0D02*
X4860000Y0D01*
X-5910000Y2290000D02*
X-5200000Y3000000D01*
X-2000000Y3470000D02*
X-2000000Y4000000D01*
X-4000000Y1470000D02*
X-2000000Y3470000D01*
X-1540000Y-3460000D02*
X-1000000Y-4000000D01*
X-4000000Y0D02*
X-4000000Y-1460000D01*
X-3850000Y-4590000D02*
X-590000Y-4590000D01*
X-3860000Y2390000D02*
X-3470000Y2000000D01*
X-2000000Y-3460000D02*
X-1540000Y-3460000D01*
X1460000Y-4000000D02*
X0Y-4000000D01*
X-2730000Y3470000D02*
X-3860000Y4600000D01*
X-5910000Y-2290000D02*
X-5200000Y-3000000D01*
X-590000Y-4590000D02*
X0Y-4000000D01*
X-3470000Y2000000D02*
X-1470000Y4000000D01*
X-4200000Y2000000D02*
X-5200000Y3000000D01*
X4000000Y-1460000D02*
X3460000Y-2000000D01*
X5910000Y1040000D02*
X5910000Y2280000D01*
X-4420000Y-1040000D02*
X-3460000Y-2000000D01*
X-3470000Y2000000D02*
X-3470000Y4220000D01*
X4000000Y1460000D02*
X2000000Y3460000D01*
X-2720000Y-3460000D02*
X-3850000Y-4590000D01*
X-2050000Y-5630000D02*
X-2810000Y-5630000D01*
X-4000000Y0D02*
X-4000000Y1470000D01*
X4000000Y0D02*
X4000000Y-1460000D01*
X2050000Y5640000D02*
X1640000Y5640000D01*
X-3470000Y2000000D02*
X-4200000Y2000000D01*
X-5910000Y1040000D02*
X-5040000Y1040000D01*
X-3860000Y4600000D02*
X-3860000Y2390000D01*
X-4000000Y-1460000D02*
X-3460000Y-2000000D01*
X3460000Y-2000000D02*
X4200000Y-2000000D01*
X-2000000Y3470000D02*
X-3470000Y2000000D01*
X1460000Y-4000000D02*
X2000000Y-3460000D01*
X0Y4000000D02*
X1460000Y4000000D01*
X2000000Y-3460000D02*
X3460000Y-2000000D01*
X-2000000Y-3460000D02*
X-2000000Y-4000000D01*
X2000000Y3460000D02*
X2720000Y3460000D01*
X4870000Y0D02*
X5910000Y1040000D01*
X5200000Y-1200000D02*
X4000000Y0D01*
X2000000Y-3460000D02*
X2000000Y-5590000D01*
X5910000Y-2290000D02*
X5200000Y-3000000D01*
X-2000000Y4000000D02*
X0Y6000000D01*
X-1680000Y-6000000D02*
X-2050000Y-5630000D01*
X-2050000Y-3510000D02*
X-2000000Y-3460000D01*
X-5200000Y1200000D02*
X-4000000Y0D01*
X1690000Y-6000000D02*
X2050000Y-5640000D01*
X-3470000Y4220000D02*
X-2050000Y5640000D01*
X4950000Y2000000D02*
X5910000Y1040000D01*
X1460000Y4000000D02*
X2000000Y3460000D01*
X-4950000Y2000000D02*
X-5910000Y1040000D01*
X3460000Y-2000000D02*
X3460000Y-4210000D01*
X4000000Y0D02*
X4000000Y1460000D01*
X0Y6000000D02*
X-1690000Y6000000D01*
X-2810000Y-5630000D02*
X-3850000Y-4590000D01*
X3140000Y-4600000D02*
X2000000Y-3460000D01*
X3460000Y2000000D02*
X3460000Y4200000D01*
X5190000Y1190000D02*
X4000000Y0D01*
X4200000Y-2000000D02*
X5200000Y-3000000D01*
X-2050000Y-3410000D02*
X-3460000Y-2000000D01*
X-5200000Y3000000D02*
X-5200000Y1200000D01*
X-2050000Y-5630000D02*
X-2050000Y-3510000D01*
X-1640000Y5640000D02*
X0Y4000000D01*
X3460000Y-2000000D02*
X1460000Y-4000000D01*
X-4435000Y1035000D02*
X-3470000Y2000000D01*
X5190000Y3270000D02*
X3860000Y4600000D01*
X3460000Y2000000D02*
X2000000Y3460000D01*
X3460000Y4200000D02*
X3860000Y4600000D01*
X-2050000Y5640000D02*
X-2820000Y5640000D01*
X5910000Y-1050000D02*
X5910000Y1040000D01*
X-5200000Y-3000000D02*
X-5200000Y-1200000D01*
X-5910000Y-1040000D02*
X-5910000Y-2290000D01*
X5910000Y2280000D02*
X5190000Y3000000D01*
X-2050000Y5640000D02*
X-2050000Y3520000D01*
X-1470000Y4000000D02*
X0Y4000000D01*
X-1460000Y-4000000D02*
X0Y-4000000D01*
X0Y-6000000D02*
X0Y-5460000D01*
X5190000Y3000000D02*
X5190000Y3270000D01*
X-2050000Y-5630000D02*
X-2050000Y-3410000D01*
X3860000Y4600000D02*
X600000Y4600000D01*
X4960000Y-2000000D02*
X5910000Y-1050000D01*
X2720000Y3460000D02*
X3860000Y4600000D01*
X1640000Y5640000D02*
X0Y4000000D01*
X-3460000Y-2000000D02*
X-4435000Y-1025000D01*
X-2000000Y-4000000D02*
X0Y-6000000D01*
X4000000Y0D02*
X4870000Y0D01*
X-5200000Y-3000000D02*
X-2460000Y-3000000D01*
X5200000Y-3000000D02*
X5200000Y-3250000D01*
X2000000Y4000000D02*
X0Y6000000D01*
X2050000Y-5640000D02*
X2810000Y-5640000D01*
X-1690000Y6000000D02*
X-2050000Y5640000D01*
X600000Y4600000D02*
X0Y4000000D01*
X0Y-6000000D02*
X1690000Y-6000000D01*
X-3460000Y-2000000D02*
X-4200000Y-2000000D01*
X2050000Y5640000D02*
X2820000Y5640000D01*
X-2000000Y-3460000D02*
X-1460000Y-4000000D01*
X-4000000Y0D02*
X-4870000Y0D01*
X0Y-5460000D02*
X-2000000Y-3460000D01*
X2000000Y-3460000D02*
X4740000Y-3460000D01*
X2460000Y3000000D02*
X2000000Y3460000D01*
X-2000000Y-3460000D02*
X-2720000Y-3460000D01*
X-4870000Y0D02*
X-5910000Y-1040000D01*
X-2000000Y3470000D02*
X-2730000Y3470000D01*
%TD*%
M02*
