M48
; DRILL file {KiCad 6.0.4-6f826c9f35~116~ubuntu18.04.1} date Sun Apr 24 23:11:11 2022
; FORMAT={-:-/ absolute / inch / decimal}
; #@! TF.CreationDate,2022-04-24T23:11:11+03:00
; #@! TF.GenerationSoftware,Kicad,Pcbnew,6.0.4-6f826c9f35~116~ubuntu18.04.1
; #@! TF.FileFunction,Plated,1,2,PTH
FMAT,2
INCH
; #@! TA.AperFunction,Plated,PTH,ComponentDrill
T1C0.0315
%
G90
G05
T1
X-0.2327Y0.0409
X-0.2327Y-0.0409
X-0.2047Y0.1181
X-0.2047Y-0.1181
X-0.1575Y0.0
X-0.152Y0.1811
X-0.1516Y-0.1807
X-0.1366Y0.0787
X-0.1362Y-0.0787
X-0.0807Y0.222
X-0.0807Y-0.2217
X-0.0787Y0.1366
X-0.0787Y-0.1362
X0.0Y0.2362
X0.0Y0.1575
X0.0Y-0.1575
X0.0Y-0.2362
X0.0787Y0.1362
X0.0787Y-0.1362
X0.0807Y0.222
X0.0807Y-0.222
X0.1362Y0.0787
X0.1362Y-0.0787
X0.1516Y-0.1811
X0.152Y0.1811
X0.1575Y0.0
X0.2043Y0.1181
X0.2047Y-0.1181
X0.2327Y0.0409
X0.2327Y-0.0413
T0
M30
