%TF.GenerationSoftware,KiCad,Pcbnew,6.0.4-6f826c9f35~116~ubuntu18.04.1*%
%TF.CreationDate,2022-04-24T23:11:09+03:00*%
%TF.ProjectId,free_dry_electrodes_12_18,66726565-5f64-4727-995f-656c65637472,rev?*%
%TF.SameCoordinates,Original*%
%TF.FileFunction,Legend,Top*%
%TF.FilePolarity,Positive*%
%FSLAX46Y46*%
G04 Gerber Fmt 4.6, Leading zero omitted, Abs format (unit mm)*
G04 Created by KiCad (PCBNEW 6.0.4-6f826c9f35~116~ubuntu18.04.1) date 2022-04-24 23:11:09*
%MOMM*%
%LPD*%
G01*
G04 APERTURE LIST*
%ADD10C,0.150000*%
G04 APERTURE END LIST*
D10*
%TO.C,REF5*%
X4862380Y2587619D02*
X4529047Y3063809D01*
X4290952Y2587619D02*
X4290952Y3587619D01*
X4671904Y3587619D01*
X4767142Y3540000D01*
X4814761Y3492380D01*
X4862380Y3397142D01*
X4862380Y3254285D01*
X4814761Y3159047D01*
X4767142Y3111428D01*
X4671904Y3063809D01*
X4290952Y3063809D01*
X5290952Y3111428D02*
X5624285Y3111428D01*
X5767142Y2587619D02*
X5290952Y2587619D01*
X5290952Y3587619D01*
X5767142Y3587619D01*
X6529047Y3111428D02*
X6195714Y3111428D01*
X6195714Y2587619D02*
X6195714Y3587619D01*
X6671904Y3587619D01*
X7529047Y3587619D02*
X7052857Y3587619D01*
X7005238Y3111428D01*
X7052857Y3159047D01*
X7148095Y3206666D01*
X7386190Y3206666D01*
X7481428Y3159047D01*
X7529047Y3111428D01*
X7576666Y3016190D01*
X7576666Y2778095D01*
X7529047Y2682857D01*
X7481428Y2635238D01*
X7386190Y2587619D01*
X7148095Y2587619D01*
X7052857Y2635238D01*
X7005238Y2682857D01*
%TO.C,REF11*%
X-3573809Y-4082380D02*
X-3907142Y-3606190D01*
X-4145238Y-4082380D02*
X-4145238Y-3082380D01*
X-3764285Y-3082380D01*
X-3669047Y-3130000D01*
X-3621428Y-3177619D01*
X-3573809Y-3272857D01*
X-3573809Y-3415714D01*
X-3621428Y-3510952D01*
X-3669047Y-3558571D01*
X-3764285Y-3606190D01*
X-4145238Y-3606190D01*
X-3145238Y-3558571D02*
X-2811904Y-3558571D01*
X-2669047Y-4082380D02*
X-3145238Y-4082380D01*
X-3145238Y-3082380D01*
X-2669047Y-3082380D01*
X-1907142Y-3558571D02*
X-2240476Y-3558571D01*
X-2240476Y-4082380D02*
X-2240476Y-3082380D01*
X-1764285Y-3082380D01*
X-859523Y-4082380D02*
X-1430952Y-4082380D01*
X-1145238Y-4082380D02*
X-1145238Y-3082380D01*
X-1240476Y-3225238D01*
X-1335714Y-3320476D01*
X-1430952Y-3368095D01*
X92857Y-4082380D02*
X-478571Y-4082380D01*
X-192857Y-4082380D02*
X-192857Y-3082380D01*
X-288095Y-3225238D01*
X-383333Y-3320476D01*
X-478571Y-3368095D01*
%TO.C,REF21*%
X1936190Y3547619D02*
X1602857Y4023809D01*
X1364761Y3547619D02*
X1364761Y4547619D01*
X1745714Y4547619D01*
X1840952Y4500000D01*
X1888571Y4452380D01*
X1936190Y4357142D01*
X1936190Y4214285D01*
X1888571Y4119047D01*
X1840952Y4071428D01*
X1745714Y4023809D01*
X1364761Y4023809D01*
X2364761Y4071428D02*
X2698095Y4071428D01*
X2840952Y3547619D02*
X2364761Y3547619D01*
X2364761Y4547619D01*
X2840952Y4547619D01*
X3602857Y4071428D02*
X3269523Y4071428D01*
X3269523Y3547619D02*
X3269523Y4547619D01*
X3745714Y4547619D01*
X4079047Y4452380D02*
X4126666Y4500000D01*
X4221904Y4547619D01*
X4459999Y4547619D01*
X4555238Y4500000D01*
X4602857Y4452380D01*
X4650476Y4357142D01*
X4650476Y4261904D01*
X4602857Y4119047D01*
X4031428Y3547619D01*
X4650476Y3547619D01*
X5602857Y3547619D02*
X5031428Y3547619D01*
X5317142Y3547619D02*
X5317142Y4547619D01*
X5221904Y4404761D01*
X5126666Y4309523D01*
X5031428Y4261904D01*
%TO.C,REF9*%
X1002380Y-4092380D02*
X669047Y-3616190D01*
X430952Y-4092380D02*
X430952Y-3092380D01*
X811904Y-3092380D01*
X907142Y-3140000D01*
X954761Y-3187619D01*
X1002380Y-3282857D01*
X1002380Y-3425714D01*
X954761Y-3520952D01*
X907142Y-3568571D01*
X811904Y-3616190D01*
X430952Y-3616190D01*
X1430952Y-3568571D02*
X1764285Y-3568571D01*
X1907142Y-4092380D02*
X1430952Y-4092380D01*
X1430952Y-3092380D01*
X1907142Y-3092380D01*
X2669047Y-3568571D02*
X2335714Y-3568571D01*
X2335714Y-4092380D02*
X2335714Y-3092380D01*
X2811904Y-3092380D01*
X3240476Y-4092380D02*
X3430952Y-4092380D01*
X3526190Y-4044761D01*
X3573809Y-3997142D01*
X3669047Y-3854285D01*
X3716666Y-3663809D01*
X3716666Y-3282857D01*
X3669047Y-3187619D01*
X3621428Y-3140000D01*
X3526190Y-3092380D01*
X3335714Y-3092380D01*
X3240476Y-3140000D01*
X3192857Y-3187619D01*
X3145238Y-3282857D01*
X3145238Y-3520952D01*
X3192857Y-3616190D01*
X3240476Y-3663809D01*
X3335714Y-3711428D01*
X3526190Y-3711428D01*
X3621428Y-3663809D01*
X3669047Y-3616190D01*
X3716666Y-3520952D01*
%TO.C,REF24*%
X476190Y-1912380D02*
X142857Y-1436190D01*
X-95238Y-1912380D02*
X-95238Y-912380D01*
X285714Y-912380D01*
X380952Y-960000D01*
X428571Y-1007619D01*
X476190Y-1102857D01*
X476190Y-1245714D01*
X428571Y-1340952D01*
X380952Y-1388571D01*
X285714Y-1436190D01*
X-95238Y-1436190D01*
X904761Y-1388571D02*
X1238095Y-1388571D01*
X1380952Y-1912380D02*
X904761Y-1912380D01*
X904761Y-912380D01*
X1380952Y-912380D01*
X2142857Y-1388571D02*
X1809523Y-1388571D01*
X1809523Y-1912380D02*
X1809523Y-912380D01*
X2285714Y-912380D01*
X2619047Y-1007619D02*
X2666666Y-960000D01*
X2761904Y-912380D01*
X2999999Y-912380D01*
X3095238Y-960000D01*
X3142857Y-1007619D01*
X3190476Y-1102857D01*
X3190476Y-1198095D01*
X3142857Y-1340952D01*
X2571428Y-1912380D01*
X3190476Y-1912380D01*
X4047619Y-1245714D02*
X4047619Y-1912380D01*
X3809523Y-864761D02*
X3571428Y-1579047D01*
X4190476Y-1579047D01*
%TO.C,REF4*%
X4142380Y4547619D02*
X3809047Y5023809D01*
X3570952Y4547619D02*
X3570952Y5547619D01*
X3951904Y5547619D01*
X4047142Y5500000D01*
X4094761Y5452380D01*
X4142380Y5357142D01*
X4142380Y5214285D01*
X4094761Y5119047D01*
X4047142Y5071428D01*
X3951904Y5023809D01*
X3570952Y5023809D01*
X4570952Y5071428D02*
X4904285Y5071428D01*
X5047142Y4547619D02*
X4570952Y4547619D01*
X4570952Y5547619D01*
X5047142Y5547619D01*
X5809047Y5071428D02*
X5475714Y5071428D01*
X5475714Y4547619D02*
X5475714Y5547619D01*
X5951904Y5547619D01*
X6761428Y5214285D02*
X6761428Y4547619D01*
X6523333Y5595238D02*
X6285238Y4880952D01*
X6904285Y4880952D01*
%TO.C,REF3*%
X2812380Y6147619D02*
X2479047Y6623809D01*
X2240952Y6147619D02*
X2240952Y7147619D01*
X2621904Y7147619D01*
X2717142Y7100000D01*
X2764761Y7052380D01*
X2812380Y6957142D01*
X2812380Y6814285D01*
X2764761Y6719047D01*
X2717142Y6671428D01*
X2621904Y6623809D01*
X2240952Y6623809D01*
X3240952Y6671428D02*
X3574285Y6671428D01*
X3717142Y6147619D02*
X3240952Y6147619D01*
X3240952Y7147619D01*
X3717142Y7147619D01*
X4479047Y6671428D02*
X4145714Y6671428D01*
X4145714Y6147619D02*
X4145714Y7147619D01*
X4621904Y7147619D01*
X4907619Y7147619D02*
X5526666Y7147619D01*
X5193333Y6766666D01*
X5336190Y6766666D01*
X5431428Y6719047D01*
X5479047Y6671428D01*
X5526666Y6576190D01*
X5526666Y6338095D01*
X5479047Y6242857D01*
X5431428Y6195238D01*
X5336190Y6147619D01*
X5050476Y6147619D01*
X4955238Y6195238D01*
X4907619Y6242857D01*
%TO.C,REF29*%
X-4993809Y3547619D02*
X-5327142Y4023809D01*
X-5565238Y3547619D02*
X-5565238Y4547619D01*
X-5184285Y4547619D01*
X-5089047Y4500000D01*
X-5041428Y4452380D01*
X-4993809Y4357142D01*
X-4993809Y4214285D01*
X-5041428Y4119047D01*
X-5089047Y4071428D01*
X-5184285Y4023809D01*
X-5565238Y4023809D01*
X-4565238Y4071428D02*
X-4231904Y4071428D01*
X-4089047Y3547619D02*
X-4565238Y3547619D01*
X-4565238Y4547619D01*
X-4089047Y4547619D01*
X-3327142Y4071428D02*
X-3660476Y4071428D01*
X-3660476Y3547619D02*
X-3660476Y4547619D01*
X-3184285Y4547619D01*
X-2850952Y4452380D02*
X-2803333Y4500000D01*
X-2708095Y4547619D01*
X-2470000Y4547619D01*
X-2374761Y4500000D01*
X-2327142Y4452380D01*
X-2279523Y4357142D01*
X-2279523Y4261904D01*
X-2327142Y4119047D01*
X-2898571Y3547619D01*
X-2279523Y3547619D01*
X-1803333Y3547619D02*
X-1612857Y3547619D01*
X-1517619Y3595238D01*
X-1470000Y3642857D01*
X-1374761Y3785714D01*
X-1327142Y3976190D01*
X-1327142Y4357142D01*
X-1374761Y4452380D01*
X-1422380Y4500000D01*
X-1517619Y4547619D01*
X-1708095Y4547619D01*
X-1803333Y4500000D01*
X-1850952Y4452380D01*
X-1898571Y4357142D01*
X-1898571Y4119047D01*
X-1850952Y4023809D01*
X-1803333Y3976190D01*
X-1708095Y3928571D01*
X-1517619Y3928571D01*
X-1422380Y3976190D01*
X-1374761Y4023809D01*
X-1327142Y4119047D01*
%TO.C,REF26*%
X-3523809Y-1912380D02*
X-3857142Y-1436190D01*
X-4095238Y-1912380D02*
X-4095238Y-912380D01*
X-3714285Y-912380D01*
X-3619047Y-960000D01*
X-3571428Y-1007619D01*
X-3523809Y-1102857D01*
X-3523809Y-1245714D01*
X-3571428Y-1340952D01*
X-3619047Y-1388571D01*
X-3714285Y-1436190D01*
X-4095238Y-1436190D01*
X-3095238Y-1388571D02*
X-2761904Y-1388571D01*
X-2619047Y-1912380D02*
X-3095238Y-1912380D01*
X-3095238Y-912380D01*
X-2619047Y-912380D01*
X-1857142Y-1388571D02*
X-2190476Y-1388571D01*
X-2190476Y-1912380D02*
X-2190476Y-912380D01*
X-1714285Y-912380D01*
X-1380952Y-1007619D02*
X-1333333Y-960000D01*
X-1238095Y-912380D01*
X-1000000Y-912380D01*
X-904761Y-960000D01*
X-857142Y-1007619D01*
X-809523Y-1102857D01*
X-809523Y-1198095D01*
X-857142Y-1340952D01*
X-1428571Y-1912380D01*
X-809523Y-1912380D01*
X47619Y-912380D02*
X-142857Y-912380D01*
X-238095Y-960000D01*
X-285714Y-1007619D01*
X-380952Y-1150476D01*
X-428571Y-1340952D01*
X-428571Y-1721904D01*
X-380952Y-1817142D01*
X-333333Y-1864761D01*
X-238095Y-1912380D01*
X-47619Y-1912380D01*
X47619Y-1864761D01*
X95238Y-1817142D01*
X142857Y-1721904D01*
X142857Y-1483809D01*
X95238Y-1388571D01*
X47619Y-1340952D01*
X-47619Y-1293333D01*
X-238095Y-1293333D01*
X-333333Y-1340952D01*
X-380952Y-1388571D01*
X-428571Y-1483809D01*
%TO.C,REF2*%
X1002380Y7187619D02*
X669047Y7663809D01*
X430952Y7187619D02*
X430952Y8187619D01*
X811904Y8187619D01*
X907142Y8140000D01*
X954761Y8092380D01*
X1002380Y7997142D01*
X1002380Y7854285D01*
X954761Y7759047D01*
X907142Y7711428D01*
X811904Y7663809D01*
X430952Y7663809D01*
X1430952Y7711428D02*
X1764285Y7711428D01*
X1907142Y7187619D02*
X1430952Y7187619D01*
X1430952Y8187619D01*
X1907142Y8187619D01*
X2669047Y7711428D02*
X2335714Y7711428D01*
X2335714Y7187619D02*
X2335714Y8187619D01*
X2811904Y8187619D01*
X3145238Y8092380D02*
X3192857Y8140000D01*
X3288095Y8187619D01*
X3526190Y8187619D01*
X3621428Y8140000D01*
X3669047Y8092380D01*
X3716666Y7997142D01*
X3716666Y7901904D01*
X3669047Y7759047D01*
X3097619Y7187619D01*
X3716666Y7187619D01*
%TO.C,REF30*%
X-3523809Y5017619D02*
X-3857142Y5493809D01*
X-4095238Y5017619D02*
X-4095238Y6017619D01*
X-3714285Y6017619D01*
X-3619047Y5970000D01*
X-3571428Y5922380D01*
X-3523809Y5827142D01*
X-3523809Y5684285D01*
X-3571428Y5589047D01*
X-3619047Y5541428D01*
X-3714285Y5493809D01*
X-4095238Y5493809D01*
X-3095238Y5541428D02*
X-2761904Y5541428D01*
X-2619047Y5017619D02*
X-3095238Y5017619D01*
X-3095238Y6017619D01*
X-2619047Y6017619D01*
X-1857142Y5541428D02*
X-2190476Y5541428D01*
X-2190476Y5017619D02*
X-2190476Y6017619D01*
X-1714285Y6017619D01*
X-1428571Y6017619D02*
X-809523Y6017619D01*
X-1142857Y5636666D01*
X-1000000Y5636666D01*
X-904761Y5589047D01*
X-857142Y5541428D01*
X-809523Y5446190D01*
X-809523Y5208095D01*
X-857142Y5112857D01*
X-904761Y5065238D01*
X-1000000Y5017619D01*
X-1285714Y5017619D01*
X-1380952Y5065238D01*
X-1428571Y5112857D01*
X-190476Y6017619D02*
X-95238Y6017619D01*
X0Y5970000D01*
X47619Y5922380D01*
X95238Y5827142D01*
X142857Y5636666D01*
X142857Y5398571D01*
X95238Y5208095D01*
X47619Y5112857D01*
X0Y5065238D01*
X-95238Y5017619D01*
X-190476Y5017619D01*
X-285714Y5065238D01*
X-333333Y5112857D01*
X-380952Y5208095D01*
X-428571Y5398571D01*
X-428571Y5636666D01*
X-380952Y5827142D01*
X-333333Y5922380D01*
X-285714Y5970000D01*
X-190476Y6017619D01*
%TO.C,REF17*%
X-5383809Y6147619D02*
X-5717142Y6623809D01*
X-5955238Y6147619D02*
X-5955238Y7147619D01*
X-5574285Y7147619D01*
X-5479047Y7100000D01*
X-5431428Y7052380D01*
X-5383809Y6957142D01*
X-5383809Y6814285D01*
X-5431428Y6719047D01*
X-5479047Y6671428D01*
X-5574285Y6623809D01*
X-5955238Y6623809D01*
X-4955238Y6671428D02*
X-4621904Y6671428D01*
X-4479047Y6147619D02*
X-4955238Y6147619D01*
X-4955238Y7147619D01*
X-4479047Y7147619D01*
X-3717142Y6671428D02*
X-4050476Y6671428D01*
X-4050476Y6147619D02*
X-4050476Y7147619D01*
X-3574285Y7147619D01*
X-2669523Y6147619D02*
X-3240952Y6147619D01*
X-2955238Y6147619D02*
X-2955238Y7147619D01*
X-3050476Y7004761D01*
X-3145714Y6909523D01*
X-3240952Y6861904D01*
X-2336190Y7147619D02*
X-1669523Y7147619D01*
X-2098095Y6147619D01*
%TO.C,REF13*%
X-6723809Y-1452380D02*
X-7057142Y-976190D01*
X-7295238Y-1452380D02*
X-7295238Y-452380D01*
X-6914285Y-452380D01*
X-6819047Y-500000D01*
X-6771428Y-547619D01*
X-6723809Y-642857D01*
X-6723809Y-785714D01*
X-6771428Y-880952D01*
X-6819047Y-928571D01*
X-6914285Y-976190D01*
X-7295238Y-976190D01*
X-6295238Y-928571D02*
X-5961904Y-928571D01*
X-5819047Y-1452380D02*
X-6295238Y-1452380D01*
X-6295238Y-452380D01*
X-5819047Y-452380D01*
X-5057142Y-928571D02*
X-5390476Y-928571D01*
X-5390476Y-1452380D02*
X-5390476Y-452380D01*
X-4914285Y-452380D01*
X-4009523Y-1452380D02*
X-4580952Y-1452380D01*
X-4295238Y-1452380D02*
X-4295238Y-452380D01*
X-4390476Y-595238D01*
X-4485714Y-690476D01*
X-4580952Y-738095D01*
X-3676190Y-452380D02*
X-3057142Y-452380D01*
X-3390476Y-833333D01*
X-3247619Y-833333D01*
X-3152380Y-880952D01*
X-3104761Y-928571D01*
X-3057142Y-1023809D01*
X-3057142Y-1261904D01*
X-3104761Y-1357142D01*
X-3152380Y-1404761D01*
X-3247619Y-1452380D01*
X-3533333Y-1452380D01*
X-3628571Y-1404761D01*
X-3676190Y-1357142D01*
%TO.C,REF12*%
X-5373809Y-3042380D02*
X-5707142Y-2566190D01*
X-5945238Y-3042380D02*
X-5945238Y-2042380D01*
X-5564285Y-2042380D01*
X-5469047Y-2090000D01*
X-5421428Y-2137619D01*
X-5373809Y-2232857D01*
X-5373809Y-2375714D01*
X-5421428Y-2470952D01*
X-5469047Y-2518571D01*
X-5564285Y-2566190D01*
X-5945238Y-2566190D01*
X-4945238Y-2518571D02*
X-4611904Y-2518571D01*
X-4469047Y-3042380D02*
X-4945238Y-3042380D01*
X-4945238Y-2042380D01*
X-4469047Y-2042380D01*
X-3707142Y-2518571D02*
X-4040476Y-2518571D01*
X-4040476Y-3042380D02*
X-4040476Y-2042380D01*
X-3564285Y-2042380D01*
X-2659523Y-3042380D02*
X-3230952Y-3042380D01*
X-2945238Y-3042380D02*
X-2945238Y-2042380D01*
X-3040476Y-2185238D01*
X-3135714Y-2280476D01*
X-3230952Y-2328095D01*
X-2278571Y-2137619D02*
X-2230952Y-2090000D01*
X-2135714Y-2042380D01*
X-1897619Y-2042380D01*
X-1802380Y-2090000D01*
X-1754761Y-2137619D01*
X-1707142Y-2232857D01*
X-1707142Y-2328095D01*
X-1754761Y-2470952D01*
X-2326190Y-3042380D01*
X-1707142Y-3042380D01*
%TO.C,REF1*%
X-1047619Y7547619D02*
X-1380952Y8023809D01*
X-1619047Y7547619D02*
X-1619047Y8547619D01*
X-1238095Y8547619D01*
X-1142857Y8500000D01*
X-1095238Y8452380D01*
X-1047619Y8357142D01*
X-1047619Y8214285D01*
X-1095238Y8119047D01*
X-1142857Y8071428D01*
X-1238095Y8023809D01*
X-1619047Y8023809D01*
X-619047Y8071428D02*
X-285714Y8071428D01*
X-142857Y7547619D02*
X-619047Y7547619D01*
X-619047Y8547619D01*
X-142857Y8547619D01*
X619047Y8071428D02*
X285714Y8071428D01*
X285714Y7547619D02*
X285714Y8547619D01*
X761904Y8547619D01*
X1666666Y7547619D02*
X1095238Y7547619D01*
X1380952Y7547619D02*
X1380952Y8547619D01*
X1285714Y8404761D01*
X1190476Y8309523D01*
X1095238Y8261904D01*
%TO.C,REF7*%
X4152380Y-1452380D02*
X3819047Y-976190D01*
X3580952Y-1452380D02*
X3580952Y-452380D01*
X3961904Y-452380D01*
X4057142Y-500000D01*
X4104761Y-547619D01*
X4152380Y-642857D01*
X4152380Y-785714D01*
X4104761Y-880952D01*
X4057142Y-928571D01*
X3961904Y-976190D01*
X3580952Y-976190D01*
X4580952Y-928571D02*
X4914285Y-928571D01*
X5057142Y-1452380D02*
X4580952Y-1452380D01*
X4580952Y-452380D01*
X5057142Y-452380D01*
X5819047Y-928571D02*
X5485714Y-928571D01*
X5485714Y-1452380D02*
X5485714Y-452380D01*
X5961904Y-452380D01*
X6247619Y-452380D02*
X6914285Y-452380D01*
X6485714Y-1452380D01*
%TO.C,REF16*%
X-6723809Y4547619D02*
X-7057142Y5023809D01*
X-7295238Y4547619D02*
X-7295238Y5547619D01*
X-6914285Y5547619D01*
X-6819047Y5500000D01*
X-6771428Y5452380D01*
X-6723809Y5357142D01*
X-6723809Y5214285D01*
X-6771428Y5119047D01*
X-6819047Y5071428D01*
X-6914285Y5023809D01*
X-7295238Y5023809D01*
X-6295238Y5071428D02*
X-5961904Y5071428D01*
X-5819047Y4547619D02*
X-6295238Y4547619D01*
X-6295238Y5547619D01*
X-5819047Y5547619D01*
X-5057142Y5071428D02*
X-5390476Y5071428D01*
X-5390476Y4547619D02*
X-5390476Y5547619D01*
X-4914285Y5547619D01*
X-4009523Y4547619D02*
X-4580952Y4547619D01*
X-4295238Y4547619D02*
X-4295238Y5547619D01*
X-4390476Y5404761D01*
X-4485714Y5309523D01*
X-4580952Y5261904D01*
X-3152380Y5547619D02*
X-3342857Y5547619D01*
X-3438095Y5500000D01*
X-3485714Y5452380D01*
X-3580952Y5309523D01*
X-3628571Y5119047D01*
X-3628571Y4738095D01*
X-3580952Y4642857D01*
X-3533333Y4595238D01*
X-3438095Y4547619D01*
X-3247619Y4547619D01*
X-3152380Y4595238D01*
X-3104761Y4642857D01*
X-3057142Y4738095D01*
X-3057142Y4976190D01*
X-3104761Y5071428D01*
X-3152380Y5119047D01*
X-3247619Y5166666D01*
X-3438095Y5166666D01*
X-3533333Y5119047D01*
X-3580952Y5071428D01*
X-3628571Y4976190D01*
%TO.C,REF10*%
X-1523809Y-4452380D02*
X-1857142Y-3976190D01*
X-2095238Y-4452380D02*
X-2095238Y-3452380D01*
X-1714285Y-3452380D01*
X-1619047Y-3500000D01*
X-1571428Y-3547619D01*
X-1523809Y-3642857D01*
X-1523809Y-3785714D01*
X-1571428Y-3880952D01*
X-1619047Y-3928571D01*
X-1714285Y-3976190D01*
X-2095238Y-3976190D01*
X-1095238Y-3928571D02*
X-761904Y-3928571D01*
X-619047Y-4452380D02*
X-1095238Y-4452380D01*
X-1095238Y-3452380D01*
X-619047Y-3452380D01*
X142857Y-3928571D02*
X-190476Y-3928571D01*
X-190476Y-4452380D02*
X-190476Y-3452380D01*
X285714Y-3452380D01*
X1190476Y-4452380D02*
X619047Y-4452380D01*
X904761Y-4452380D02*
X904761Y-3452380D01*
X809523Y-3595238D01*
X714285Y-3690476D01*
X619047Y-3738095D01*
X1809523Y-3452380D02*
X1904761Y-3452380D01*
X1999999Y-3500000D01*
X2047619Y-3547619D01*
X2095238Y-3642857D01*
X2142857Y-3833333D01*
X2142857Y-4071428D01*
X2095238Y-4261904D01*
X2047619Y-4357142D01*
X1999999Y-4404761D01*
X1904761Y-4452380D01*
X1809523Y-4452380D01*
X1714285Y-4404761D01*
X1666666Y-4357142D01*
X1619047Y-4261904D01*
X1571428Y-4071428D01*
X1571428Y-3833333D01*
X1619047Y-3642857D01*
X1666666Y-3547619D01*
X1714285Y-3500000D01*
X1809523Y-3452380D01*
%TO.C,REF23*%
X1936190Y-452380D02*
X1602857Y23809D01*
X1364761Y-452380D02*
X1364761Y547619D01*
X1745714Y547619D01*
X1840952Y500000D01*
X1888571Y452380D01*
X1936190Y357142D01*
X1936190Y214285D01*
X1888571Y119047D01*
X1840952Y71428D01*
X1745714Y23809D01*
X1364761Y23809D01*
X2364761Y71428D02*
X2698095Y71428D01*
X2840952Y-452380D02*
X2364761Y-452380D01*
X2364761Y547619D01*
X2840952Y547619D01*
X3602857Y71428D02*
X3269523Y71428D01*
X3269523Y-452380D02*
X3269523Y547619D01*
X3745714Y547619D01*
X4079047Y452380D02*
X4126666Y500000D01*
X4221904Y547619D01*
X4459999Y547619D01*
X4555238Y500000D01*
X4602857Y452380D01*
X4650476Y357142D01*
X4650476Y261904D01*
X4602857Y119047D01*
X4031428Y-452380D01*
X4650476Y-452380D01*
X4983809Y547619D02*
X5602857Y547619D01*
X5269523Y166666D01*
X5412380Y166666D01*
X5507619Y119047D01*
X5555238Y71428D01*
X5602857Y-23809D01*
X5602857Y-261904D01*
X5555238Y-357142D01*
X5507619Y-404761D01*
X5412380Y-452380D01*
X5126666Y-452380D01*
X5031428Y-404761D01*
X4983809Y-357142D01*
%TO.C,REF22*%
X2476190Y1547619D02*
X2142857Y2023809D01*
X1904761Y1547619D02*
X1904761Y2547619D01*
X2285714Y2547619D01*
X2380952Y2500000D01*
X2428571Y2452380D01*
X2476190Y2357142D01*
X2476190Y2214285D01*
X2428571Y2119047D01*
X2380952Y2071428D01*
X2285714Y2023809D01*
X1904761Y2023809D01*
X2904761Y2071428D02*
X3238095Y2071428D01*
X3380952Y1547619D02*
X2904761Y1547619D01*
X2904761Y2547619D01*
X3380952Y2547619D01*
X4142857Y2071428D02*
X3809523Y2071428D01*
X3809523Y1547619D02*
X3809523Y2547619D01*
X4285714Y2547619D01*
X4619047Y2452380D02*
X4666666Y2500000D01*
X4761904Y2547619D01*
X4999999Y2547619D01*
X5095238Y2500000D01*
X5142857Y2452380D01*
X5190476Y2357142D01*
X5190476Y2261904D01*
X5142857Y2119047D01*
X4571428Y1547619D01*
X5190476Y1547619D01*
X5571428Y2452380D02*
X5619047Y2500000D01*
X5714285Y2547619D01*
X5952380Y2547619D01*
X6047619Y2500000D01*
X6095238Y2452380D01*
X6142857Y2357142D01*
X6142857Y2261904D01*
X6095238Y2119047D01*
X5523809Y1547619D01*
X6142857Y1547619D01*
%TO.C,REF25*%
X-1523809Y-2452380D02*
X-1857142Y-1976190D01*
X-2095238Y-2452380D02*
X-2095238Y-1452380D01*
X-1714285Y-1452380D01*
X-1619047Y-1500000D01*
X-1571428Y-1547619D01*
X-1523809Y-1642857D01*
X-1523809Y-1785714D01*
X-1571428Y-1880952D01*
X-1619047Y-1928571D01*
X-1714285Y-1976190D01*
X-2095238Y-1976190D01*
X-1095238Y-1928571D02*
X-761904Y-1928571D01*
X-619047Y-2452380D02*
X-1095238Y-2452380D01*
X-1095238Y-1452380D01*
X-619047Y-1452380D01*
X142857Y-1928571D02*
X-190476Y-1928571D01*
X-190476Y-2452380D02*
X-190476Y-1452380D01*
X285714Y-1452380D01*
X619047Y-1547619D02*
X666666Y-1500000D01*
X761904Y-1452380D01*
X999999Y-1452380D01*
X1095238Y-1500000D01*
X1142857Y-1547619D01*
X1190476Y-1642857D01*
X1190476Y-1738095D01*
X1142857Y-1880952D01*
X571428Y-2452380D01*
X1190476Y-2452380D01*
X2095238Y-1452380D02*
X1619047Y-1452380D01*
X1571428Y-1928571D01*
X1619047Y-1880952D01*
X1714285Y-1833333D01*
X1952380Y-1833333D01*
X2047619Y-1880952D01*
X2095238Y-1928571D01*
X2142857Y-2023809D01*
X2142857Y-2261904D01*
X2095238Y-2357142D01*
X2047619Y-2404761D01*
X1952380Y-2452380D01*
X1714285Y-2452380D01*
X1619047Y-2404761D01*
X1571428Y-2357142D01*
%TO.C,REF28*%
X-5523809Y1547619D02*
X-5857142Y2023809D01*
X-6095238Y1547619D02*
X-6095238Y2547619D01*
X-5714285Y2547619D01*
X-5619047Y2500000D01*
X-5571428Y2452380D01*
X-5523809Y2357142D01*
X-5523809Y2214285D01*
X-5571428Y2119047D01*
X-5619047Y2071428D01*
X-5714285Y2023809D01*
X-6095238Y2023809D01*
X-5095238Y2071428D02*
X-4761904Y2071428D01*
X-4619047Y1547619D02*
X-5095238Y1547619D01*
X-5095238Y2547619D01*
X-4619047Y2547619D01*
X-3857142Y2071428D02*
X-4190476Y2071428D01*
X-4190476Y1547619D02*
X-4190476Y2547619D01*
X-3714285Y2547619D01*
X-3380952Y2452380D02*
X-3333333Y2500000D01*
X-3238095Y2547619D01*
X-3000000Y2547619D01*
X-2904761Y2500000D01*
X-2857142Y2452380D01*
X-2809523Y2357142D01*
X-2809523Y2261904D01*
X-2857142Y2119047D01*
X-3428571Y1547619D01*
X-2809523Y1547619D01*
X-2238095Y2119047D02*
X-2333333Y2166666D01*
X-2380952Y2214285D01*
X-2428571Y2309523D01*
X-2428571Y2357142D01*
X-2380952Y2452380D01*
X-2333333Y2500000D01*
X-2238095Y2547619D01*
X-2047619Y2547619D01*
X-1952380Y2500000D01*
X-1904761Y2452380D01*
X-1857142Y2357142D01*
X-1857142Y2309523D01*
X-1904761Y2214285D01*
X-1952380Y2166666D01*
X-2047619Y2119047D01*
X-2238095Y2119047D01*
X-2333333Y2071428D01*
X-2380952Y2023809D01*
X-2428571Y1928571D01*
X-2428571Y1738095D01*
X-2380952Y1642857D01*
X-2333333Y1595238D01*
X-2238095Y1547619D01*
X-2047619Y1547619D01*
X-1952380Y1595238D01*
X-1904761Y1642857D01*
X-1857142Y1738095D01*
X-1857142Y1928571D01*
X-1904761Y2023809D01*
X-1952380Y2071428D01*
X-2047619Y2119047D01*
%TO.C,REF27*%
X-4983809Y-452380D02*
X-5317142Y23809D01*
X-5555238Y-452380D02*
X-5555238Y547619D01*
X-5174285Y547619D01*
X-5079047Y500000D01*
X-5031428Y452380D01*
X-4983809Y357142D01*
X-4983809Y214285D01*
X-5031428Y119047D01*
X-5079047Y71428D01*
X-5174285Y23809D01*
X-5555238Y23809D01*
X-4555238Y71428D02*
X-4221904Y71428D01*
X-4079047Y-452380D02*
X-4555238Y-452380D01*
X-4555238Y547619D01*
X-4079047Y547619D01*
X-3317142Y71428D02*
X-3650476Y71428D01*
X-3650476Y-452380D02*
X-3650476Y547619D01*
X-3174285Y547619D01*
X-2840952Y452380D02*
X-2793333Y500000D01*
X-2698095Y547619D01*
X-2460000Y547619D01*
X-2364761Y500000D01*
X-2317142Y452380D01*
X-2269523Y357142D01*
X-2269523Y261904D01*
X-2317142Y119047D01*
X-2888571Y-452380D01*
X-2269523Y-452380D01*
X-1936190Y547619D02*
X-1269523Y547619D01*
X-1698095Y-452380D01*
%TO.C,REF14*%
X-7433809Y507619D02*
X-7767142Y983809D01*
X-8005238Y507619D02*
X-8005238Y1507619D01*
X-7624285Y1507619D01*
X-7529047Y1460000D01*
X-7481428Y1412380D01*
X-7433809Y1317142D01*
X-7433809Y1174285D01*
X-7481428Y1079047D01*
X-7529047Y1031428D01*
X-7624285Y983809D01*
X-8005238Y983809D01*
X-7005238Y1031428D02*
X-6671904Y1031428D01*
X-6529047Y507619D02*
X-7005238Y507619D01*
X-7005238Y1507619D01*
X-6529047Y1507619D01*
X-5767142Y1031428D02*
X-6100476Y1031428D01*
X-6100476Y507619D02*
X-6100476Y1507619D01*
X-5624285Y1507619D01*
X-4719523Y507619D02*
X-5290952Y507619D01*
X-5005238Y507619D02*
X-5005238Y1507619D01*
X-5100476Y1364761D01*
X-5195714Y1269523D01*
X-5290952Y1221904D01*
X-3862380Y1174285D02*
X-3862380Y507619D01*
X-4100476Y1555238D02*
X-4338571Y840952D01*
X-3719523Y840952D01*
%TO.C,REF19*%
X-1523809Y5547619D02*
X-1857142Y6023809D01*
X-2095238Y5547619D02*
X-2095238Y6547619D01*
X-1714285Y6547619D01*
X-1619047Y6500000D01*
X-1571428Y6452380D01*
X-1523809Y6357142D01*
X-1523809Y6214285D01*
X-1571428Y6119047D01*
X-1619047Y6071428D01*
X-1714285Y6023809D01*
X-2095238Y6023809D01*
X-1095238Y6071428D02*
X-761904Y6071428D01*
X-619047Y5547619D02*
X-1095238Y5547619D01*
X-1095238Y6547619D01*
X-619047Y6547619D01*
X142857Y6071428D02*
X-190476Y6071428D01*
X-190476Y5547619D02*
X-190476Y6547619D01*
X285714Y6547619D01*
X1190476Y5547619D02*
X619047Y5547619D01*
X904761Y5547619D02*
X904761Y6547619D01*
X809523Y6404761D01*
X714285Y6309523D01*
X619047Y6261904D01*
X1666666Y5547619D02*
X1857142Y5547619D01*
X1952380Y5595238D01*
X1999999Y5642857D01*
X2095238Y5785714D01*
X2142857Y5976190D01*
X2142857Y6357142D01*
X2095238Y6452380D01*
X2047619Y6500000D01*
X1952380Y6547619D01*
X1761904Y6547619D01*
X1666666Y6500000D01*
X1619047Y6452380D01*
X1571428Y6357142D01*
X1571428Y6119047D01*
X1619047Y6023809D01*
X1666666Y5976190D01*
X1761904Y5928571D01*
X1952380Y5928571D01*
X2047619Y5976190D01*
X2095238Y6023809D01*
X2142857Y6119047D01*
%TO.C,REF15*%
X-7433809Y2587619D02*
X-7767142Y3063809D01*
X-8005238Y2587619D02*
X-8005238Y3587619D01*
X-7624285Y3587619D01*
X-7529047Y3540000D01*
X-7481428Y3492380D01*
X-7433809Y3397142D01*
X-7433809Y3254285D01*
X-7481428Y3159047D01*
X-7529047Y3111428D01*
X-7624285Y3063809D01*
X-8005238Y3063809D01*
X-7005238Y3111428D02*
X-6671904Y3111428D01*
X-6529047Y2587619D02*
X-7005238Y2587619D01*
X-7005238Y3587619D01*
X-6529047Y3587619D01*
X-5767142Y3111428D02*
X-6100476Y3111428D01*
X-6100476Y2587619D02*
X-6100476Y3587619D01*
X-5624285Y3587619D01*
X-4719523Y2587619D02*
X-5290952Y2587619D01*
X-5005238Y2587619D02*
X-5005238Y3587619D01*
X-5100476Y3444761D01*
X-5195714Y3349523D01*
X-5290952Y3301904D01*
X-3814761Y3587619D02*
X-4290952Y3587619D01*
X-4338571Y3111428D01*
X-4290952Y3159047D01*
X-4195714Y3206666D01*
X-3957619Y3206666D01*
X-3862380Y3159047D01*
X-3814761Y3111428D01*
X-3767142Y3016190D01*
X-3767142Y2778095D01*
X-3814761Y2682857D01*
X-3862380Y2635238D01*
X-3957619Y2587619D01*
X-4195714Y2587619D01*
X-4290952Y2635238D01*
X-4338571Y2682857D01*
%TO.C,REF18*%
X-3573809Y7187619D02*
X-3907142Y7663809D01*
X-4145238Y7187619D02*
X-4145238Y8187619D01*
X-3764285Y8187619D01*
X-3669047Y8140000D01*
X-3621428Y8092380D01*
X-3573809Y7997142D01*
X-3573809Y7854285D01*
X-3621428Y7759047D01*
X-3669047Y7711428D01*
X-3764285Y7663809D01*
X-4145238Y7663809D01*
X-3145238Y7711428D02*
X-2811904Y7711428D01*
X-2669047Y7187619D02*
X-3145238Y7187619D01*
X-3145238Y8187619D01*
X-2669047Y8187619D01*
X-1907142Y7711428D02*
X-2240476Y7711428D01*
X-2240476Y7187619D02*
X-2240476Y8187619D01*
X-1764285Y8187619D01*
X-859523Y7187619D02*
X-1430952Y7187619D01*
X-1145238Y7187619D02*
X-1145238Y8187619D01*
X-1240476Y8044761D01*
X-1335714Y7949523D01*
X-1430952Y7901904D01*
X-288095Y7759047D02*
X-383333Y7806666D01*
X-430952Y7854285D01*
X-478571Y7949523D01*
X-478571Y7997142D01*
X-430952Y8092380D01*
X-383333Y8140000D01*
X-288095Y8187619D01*
X-97619Y8187619D01*
X-2380Y8140000D01*
X45238Y8092380D01*
X92857Y7997142D01*
X92857Y7949523D01*
X45238Y7854285D01*
X-2380Y7806666D01*
X-97619Y7759047D01*
X-288095Y7759047D01*
X-383333Y7711428D01*
X-430952Y7663809D01*
X-478571Y7568571D01*
X-478571Y7378095D01*
X-430952Y7282857D01*
X-383333Y7235238D01*
X-288095Y7187619D01*
X-97619Y7187619D01*
X-2380Y7235238D01*
X45238Y7282857D01*
X92857Y7378095D01*
X92857Y7568571D01*
X45238Y7663809D01*
X-2380Y7711428D01*
X-97619Y7759047D01*
%TO.C,REF20*%
X476190Y5007619D02*
X142857Y5483809D01*
X-95238Y5007619D02*
X-95238Y6007619D01*
X285714Y6007619D01*
X380952Y5960000D01*
X428571Y5912380D01*
X476190Y5817142D01*
X476190Y5674285D01*
X428571Y5579047D01*
X380952Y5531428D01*
X285714Y5483809D01*
X-95238Y5483809D01*
X904761Y5531428D02*
X1238095Y5531428D01*
X1380952Y5007619D02*
X904761Y5007619D01*
X904761Y6007619D01*
X1380952Y6007619D01*
X2142857Y5531428D02*
X1809523Y5531428D01*
X1809523Y5007619D02*
X1809523Y6007619D01*
X2285714Y6007619D01*
X2619047Y5912380D02*
X2666666Y5960000D01*
X2761904Y6007619D01*
X2999999Y6007619D01*
X3095238Y5960000D01*
X3142857Y5912380D01*
X3190476Y5817142D01*
X3190476Y5721904D01*
X3142857Y5579047D01*
X2571428Y5007619D01*
X3190476Y5007619D01*
X3809523Y6007619D02*
X3904761Y6007619D01*
X3999999Y5960000D01*
X4047619Y5912380D01*
X4095238Y5817142D01*
X4142857Y5626666D01*
X4142857Y5388571D01*
X4095238Y5198095D01*
X4047619Y5102857D01*
X3999999Y5055238D01*
X3904761Y5007619D01*
X3809523Y5007619D01*
X3714285Y5055238D01*
X3666666Y5102857D01*
X3619047Y5198095D01*
X3571428Y5388571D01*
X3571428Y5626666D01*
X3619047Y5817142D01*
X3666666Y5912380D01*
X3714285Y5960000D01*
X3809523Y6007619D01*
%TO.C,REF6*%
X4862380Y497619D02*
X4529047Y973809D01*
X4290952Y497619D02*
X4290952Y1497619D01*
X4671904Y1497619D01*
X4767142Y1450000D01*
X4814761Y1402380D01*
X4862380Y1307142D01*
X4862380Y1164285D01*
X4814761Y1069047D01*
X4767142Y1021428D01*
X4671904Y973809D01*
X4290952Y973809D01*
X5290952Y1021428D02*
X5624285Y1021428D01*
X5767142Y497619D02*
X5290952Y497619D01*
X5290952Y1497619D01*
X5767142Y1497619D01*
X6529047Y1021428D02*
X6195714Y1021428D01*
X6195714Y497619D02*
X6195714Y1497619D01*
X6671904Y1497619D01*
X7481428Y1497619D02*
X7290952Y1497619D01*
X7195714Y1450000D01*
X7148095Y1402380D01*
X7052857Y1259523D01*
X7005238Y1069047D01*
X7005238Y688095D01*
X7052857Y592857D01*
X7100476Y545238D01*
X7195714Y497619D01*
X7386190Y497619D01*
X7481428Y545238D01*
X7529047Y592857D01*
X7576666Y688095D01*
X7576666Y926190D01*
X7529047Y1021428D01*
X7481428Y1069047D01*
X7386190Y1116666D01*
X7195714Y1116666D01*
X7100476Y1069047D01*
X7052857Y1021428D01*
X7005238Y926190D01*
%TO.C,REF8*%
X2802380Y-3052380D02*
X2469047Y-2576190D01*
X2230952Y-3052380D02*
X2230952Y-2052380D01*
X2611904Y-2052380D01*
X2707142Y-2100000D01*
X2754761Y-2147619D01*
X2802380Y-2242857D01*
X2802380Y-2385714D01*
X2754761Y-2480952D01*
X2707142Y-2528571D01*
X2611904Y-2576190D01*
X2230952Y-2576190D01*
X3230952Y-2528571D02*
X3564285Y-2528571D01*
X3707142Y-3052380D02*
X3230952Y-3052380D01*
X3230952Y-2052380D01*
X3707142Y-2052380D01*
X4469047Y-2528571D02*
X4135714Y-2528571D01*
X4135714Y-3052380D02*
X4135714Y-2052380D01*
X4611904Y-2052380D01*
X5135714Y-2480952D02*
X5040476Y-2433333D01*
X4992857Y-2385714D01*
X4945238Y-2290476D01*
X4945238Y-2242857D01*
X4992857Y-2147619D01*
X5040476Y-2100000D01*
X5135714Y-2052380D01*
X5326190Y-2052380D01*
X5421428Y-2100000D01*
X5469047Y-2147619D01*
X5516666Y-2242857D01*
X5516666Y-2290476D01*
X5469047Y-2385714D01*
X5421428Y-2433333D01*
X5326190Y-2480952D01*
X5135714Y-2480952D01*
X5040476Y-2528571D01*
X4992857Y-2576190D01*
X4945238Y-2671428D01*
X4945238Y-2861904D01*
X4992857Y-2957142D01*
X5040476Y-3004761D01*
X5135714Y-3052380D01*
X5326190Y-3052380D01*
X5421428Y-3004761D01*
X5469047Y-2957142D01*
X5516666Y-2861904D01*
X5516666Y-2671428D01*
X5469047Y-2576190D01*
X5421428Y-2528571D01*
X5326190Y-2480952D01*
%TD*%
M02*
