M48
; DRILL file {KiCad 6.0.4-6f826c9f35~116~ubuntu18.04.1} date Wed Jul 20 17:56:51 2022
; FORMAT={-:-/ absolute / inch / decimal}
; #@! TF.CreationDate,2022-07-20T17:56:51+03:00
; #@! TF.GenerationSoftware,Kicad,Pcbnew,6.0.4-6f826c9f35~116~ubuntu18.04.1
; #@! TF.FileFunction,Plated,1,2,PTH
FMAT,2
INCH
; #@! TA.AperFunction,Plated,PTH,ComponentDrill
T1C0.0394
; #@! TA.AperFunction,Plated,PTH,ComponentDrill
T2C0.1181
%
G90
G05
T1
X0.6397Y-0.8071
X0.6397Y-1.2795
X0.6397Y-1.752
X0.6397Y-2.2244
X0.6397Y-2.6968
X0.6397Y-3.1693
X0.6397Y-3.6417
X0.6397Y-4.1142
X0.7133Y-0.7531
X0.7133Y-0.861
X0.7133Y-1.2256
X0.7133Y-1.3334
X0.7133Y-1.698
X0.7133Y-1.8059
X0.7133Y-2.1705
X0.7133Y-2.2783
X0.7133Y-2.6429
X0.7133Y-2.7508
X0.7133Y-3.1153
X0.7133Y-3.2232
X0.7133Y-3.5878
X0.7133Y-3.6957
X0.7133Y-4.0602
X0.7133Y-4.1681
X0.7236Y-0.6622
X0.7236Y-0.952
X0.7236Y-1.1346
X0.7236Y-1.4244
X0.7236Y-1.6071
X0.7236Y-1.8968
X0.7236Y-2.0795
X0.7236Y-2.3693
X0.7236Y-2.552
X0.7236Y-2.8417
X0.7236Y-3.0244
X0.7236Y-3.3142
X0.7236Y-3.4968
X0.7236Y-3.7866
X0.7236Y-3.9693
X0.7236Y-4.259
X0.807Y-0.6988
X0.807Y-0.9153
X0.807Y-1.1712
X0.807Y-1.3878
X0.807Y-1.6437
X0.807Y-1.8602
X0.807Y-2.1161
X0.807Y-2.3327
X0.807Y-2.5886
X0.807Y-2.8051
X0.807Y-3.061
X0.807Y-3.2775
X0.807Y-3.5334
X0.807Y-3.75
X0.807Y-4.0059
X0.807Y-4.2224
X0.8901Y-0.6618
X0.8901Y-1.1342
X0.8901Y-1.6067
X0.8901Y-2.0791
X0.8901Y-2.5516
X0.8901Y-3.024
X0.8901Y-3.4964
X0.8901Y-3.9689
X0.8909Y-0.952
X0.8909Y-1.4244
X0.8909Y-1.8968
X0.8909Y-2.3693
X0.8909Y-2.8417
X0.8909Y-3.3142
X0.8909Y-3.7866
X0.8909Y-4.259
X0.9007Y-0.7527
X0.9007Y-0.861
X0.9007Y-1.2252
X0.9007Y-1.3334
X0.9007Y-1.6976
X0.9007Y-1.8059
X0.9007Y-2.1701
X0.9007Y-2.2783
X0.9007Y-2.6425
X0.9007Y-2.7508
X0.9007Y-3.1149
X0.9007Y-3.2232
X0.9007Y-3.5874
X0.9007Y-3.6957
X0.9007Y-4.0598
X0.9007Y-4.1681
X0.9743Y-0.8071
X0.9743Y-1.2795
X0.9743Y-1.752
X0.9743Y-2.2244
X0.9743Y-2.6968
X0.9743Y-3.1693
X0.9743Y-3.6417
X0.9743Y-4.1142
X1.1121Y-0.8071
X1.1121Y-1.2795
X1.1121Y-1.752
X1.1121Y-2.2244
X1.1121Y-2.6968
X1.1121Y-3.1693
X1.1121Y-3.6417
X1.1121Y-4.1142
X1.1858Y-0.7531
X1.1858Y-0.861
X1.1858Y-1.2256
X1.1858Y-1.3334
X1.1858Y-1.698
X1.1858Y-1.8059
X1.1858Y-2.1705
X1.1858Y-2.2783
X1.1858Y-2.6429
X1.1858Y-2.7508
X1.1858Y-3.1153
X1.1858Y-3.2232
X1.1858Y-3.5878
X1.1858Y-3.6957
X1.1858Y-4.0602
X1.1858Y-4.1681
X1.196Y-0.6622
X1.196Y-0.952
X1.196Y-1.1346
X1.196Y-1.4244
X1.196Y-1.6071
X1.196Y-1.8968
X1.196Y-2.0795
X1.196Y-2.3693
X1.196Y-2.552
X1.196Y-2.8417
X1.196Y-3.0244
X1.196Y-3.3142
X1.196Y-3.4968
X1.196Y-3.7866
X1.196Y-3.9693
X1.196Y-4.259
X1.2795Y-0.6988
X1.2795Y-0.9153
X1.2795Y-1.1712
X1.2795Y-1.3878
X1.2795Y-1.6437
X1.2795Y-1.8602
X1.2795Y-2.1161
X1.2795Y-2.3327
X1.2795Y-2.5886
X1.2795Y-2.8051
X1.2795Y-3.061
X1.2795Y-3.2775
X1.2795Y-3.5334
X1.2795Y-3.75
X1.2795Y-4.0059
X1.2795Y-4.2224
X1.3625Y-0.6618
X1.3625Y-1.1342
X1.3625Y-1.6067
X1.3625Y-2.0791
X1.3625Y-2.5516
X1.3625Y-3.024
X1.3625Y-3.4964
X1.3625Y-3.9689
X1.3633Y-0.952
X1.3633Y-1.4244
X1.3633Y-1.8968
X1.3633Y-2.3693
X1.3633Y-2.8417
X1.3633Y-3.3142
X1.3633Y-3.7866
X1.3633Y-4.259
X1.3732Y-0.7527
X1.3732Y-0.861
X1.3732Y-1.2252
X1.3732Y-1.3334
X1.3732Y-1.6976
X1.3732Y-1.8059
X1.3732Y-2.1701
X1.3732Y-2.2783
X1.3732Y-2.6425
X1.3732Y-2.7508
X1.3732Y-3.1149
X1.3732Y-3.2232
X1.3732Y-3.5874
X1.3732Y-3.6957
X1.3732Y-4.0598
X1.3732Y-4.1681
X1.4468Y-0.8071
X1.4468Y-1.2795
X1.4468Y-1.752
X1.4468Y-2.2244
X1.4468Y-2.6968
X1.4468Y-3.1693
X1.4468Y-3.6417
X1.4468Y-4.1142
X1.5846Y-0.8071
X1.5846Y-1.2795
X1.5846Y-1.752
X1.5846Y-2.2244
X1.5846Y-2.6968
X1.5846Y-3.1693
X1.5846Y-3.6417
X1.5846Y-4.1142
X1.6582Y-0.7531
X1.6582Y-0.861
X1.6582Y-1.2256
X1.6582Y-1.3334
X1.6582Y-1.698
X1.6582Y-1.8059
X1.6582Y-2.1705
X1.6582Y-2.2783
X1.6582Y-2.6429
X1.6582Y-2.7508
X1.6582Y-3.1153
X1.6582Y-3.2232
X1.6582Y-3.5878
X1.6582Y-3.6957
X1.6582Y-4.0602
X1.6582Y-4.1681
X1.6684Y-0.6622
X1.6684Y-0.952
X1.6684Y-1.1346
X1.6684Y-1.4244
X1.6684Y-1.6071
X1.6684Y-1.8968
X1.6684Y-2.0795
X1.6684Y-2.3693
X1.6684Y-2.552
X1.6684Y-2.8417
X1.6684Y-3.0244
X1.6684Y-3.3142
X1.6684Y-3.4968
X1.6684Y-3.7866
X1.6684Y-3.9693
X1.6684Y-4.259
X1.7519Y-0.6988
X1.7519Y-0.9153
X1.7519Y-1.1712
X1.7519Y-1.3878
X1.7519Y-1.6437
X1.7519Y-1.8602
X1.7519Y-2.1161
X1.7519Y-2.3327
X1.7519Y-2.5886
X1.7519Y-2.8051
X1.7519Y-3.061
X1.7519Y-3.2775
X1.7519Y-3.5334
X1.7519Y-3.75
X1.7519Y-4.0059
X1.7519Y-4.2224
X1.835Y-0.6618
X1.835Y-1.1342
X1.835Y-1.6067
X1.835Y-2.0791
X1.835Y-2.5516
X1.835Y-3.024
X1.835Y-3.4964
X1.835Y-3.9689
X1.8358Y-0.952
X1.8358Y-1.4244
X1.8358Y-1.8968
X1.8358Y-2.3693
X1.8358Y-2.8417
X1.8358Y-3.3142
X1.8358Y-3.7866
X1.8358Y-4.259
X1.8456Y-0.7527
X1.8456Y-0.861
X1.8456Y-1.2252
X1.8456Y-1.3334
X1.8456Y-1.6976
X1.8456Y-1.8059
X1.8456Y-2.1701
X1.8456Y-2.2783
X1.8456Y-2.6425
X1.8456Y-2.7508
X1.8456Y-3.1149
X1.8456Y-3.2232
X1.8456Y-3.5874
X1.8456Y-3.6957
X1.8456Y-4.0598
X1.8456Y-4.1681
X1.9192Y-0.8071
X1.9192Y-1.2795
X1.9192Y-1.752
X1.9192Y-2.2244
X1.9192Y-2.6968
X1.9192Y-3.1693
X1.9192Y-3.6417
X1.9192Y-4.1142
X2.057Y-0.8071
X2.057Y-1.2795
X2.057Y-1.752
X2.057Y-2.2244
X2.057Y-2.6968
X2.057Y-3.1693
X2.057Y-3.6417
X2.057Y-4.1142
X2.1306Y-0.7531
X2.1306Y-0.861
X2.1306Y-1.2256
X2.1306Y-1.3334
X2.1306Y-1.698
X2.1306Y-1.8059
X2.1306Y-2.1705
X2.1306Y-2.2783
X2.1306Y-2.6429
X2.1306Y-2.7508
X2.1306Y-3.1153
X2.1306Y-3.2232
X2.1306Y-3.5878
X2.1306Y-3.6957
X2.1306Y-4.0602
X2.1306Y-4.1681
X2.1409Y-0.6622
X2.1409Y-0.952
X2.1409Y-1.1346
X2.1409Y-1.4244
X2.1409Y-1.6071
X2.1409Y-1.8968
X2.1409Y-2.0795
X2.1409Y-2.3693
X2.1409Y-2.552
X2.1409Y-2.8417
X2.1409Y-3.0244
X2.1409Y-3.3142
X2.1409Y-3.4968
X2.1409Y-3.7866
X2.1409Y-3.9693
X2.1409Y-4.259
X2.2243Y-0.6988
X2.2243Y-0.9153
X2.2243Y-1.1712
X2.2243Y-1.3878
X2.2243Y-1.6437
X2.2243Y-1.8602
X2.2243Y-2.1161
X2.2243Y-2.3327
X2.2243Y-2.5886
X2.2243Y-2.8051
X2.2243Y-3.061
X2.2243Y-3.2775
X2.2243Y-3.5334
X2.2243Y-3.75
X2.2243Y-4.0059
X2.2243Y-4.2224
X2.3074Y-0.6618
X2.3074Y-1.1342
X2.3074Y-1.6067
X2.3074Y-2.0791
X2.3074Y-2.5516
X2.3074Y-3.024
X2.3074Y-3.4964
X2.3074Y-3.9689
X2.3082Y-0.952
X2.3082Y-1.4244
X2.3082Y-1.8968
X2.3082Y-2.3693
X2.3082Y-2.8417
X2.3082Y-3.3142
X2.3082Y-3.7866
X2.3082Y-4.259
X2.318Y-0.7527
X2.318Y-0.861
X2.318Y-1.2252
X2.318Y-1.3334
X2.318Y-1.6976
X2.318Y-1.8059
X2.318Y-2.1701
X2.318Y-2.2783
X2.318Y-2.6425
X2.318Y-2.7508
X2.318Y-3.1149
X2.318Y-3.2232
X2.318Y-3.5874
X2.318Y-3.6957
X2.318Y-4.0598
X2.318Y-4.1681
X2.3917Y-0.8071
X2.3917Y-1.2795
X2.3917Y-1.752
X2.3917Y-2.2244
X2.3917Y-2.6968
X2.3917Y-3.1693
X2.3917Y-3.6417
X2.3917Y-4.1142
X2.5295Y-0.8071
X2.5295Y-1.2795
X2.5295Y-1.752
X2.5295Y-2.2244
X2.5295Y-2.6968
X2.5295Y-3.1693
X2.5295Y-3.6417
X2.5295Y-4.1142
X2.6031Y-0.7531
X2.6031Y-0.861
X2.6031Y-1.2256
X2.6031Y-1.3334
X2.6031Y-1.698
X2.6031Y-1.8059
X2.6031Y-2.1705
X2.6031Y-2.2783
X2.6031Y-2.6429
X2.6031Y-2.7508
X2.6031Y-3.1153
X2.6031Y-3.2232
X2.6031Y-3.5878
X2.6031Y-3.6957
X2.6031Y-4.0602
X2.6031Y-4.1681
X2.6133Y-0.6622
X2.6133Y-0.952
X2.6133Y-1.1346
X2.6133Y-1.4244
X2.6133Y-1.6071
X2.6133Y-1.8968
X2.6133Y-2.0795
X2.6133Y-2.3693
X2.6133Y-2.552
X2.6133Y-2.8417
X2.6133Y-3.0244
X2.6133Y-3.3142
X2.6133Y-3.4968
X2.6133Y-3.7866
X2.6133Y-3.9693
X2.6133Y-4.259
X2.6968Y-0.6988
X2.6968Y-0.9153
X2.6968Y-1.1712
X2.6968Y-1.3878
X2.6968Y-1.6437
X2.6968Y-1.8602
X2.6968Y-2.1161
X2.6968Y-2.3327
X2.6968Y-2.5886
X2.6968Y-2.8051
X2.6968Y-3.061
X2.6968Y-3.2775
X2.6968Y-3.5334
X2.6968Y-3.75
X2.6968Y-4.0059
X2.6968Y-4.2224
X2.7799Y-0.6618
X2.7799Y-1.1342
X2.7799Y-1.6067
X2.7799Y-2.0791
X2.7799Y-2.5516
X2.7799Y-3.024
X2.7799Y-3.4964
X2.7799Y-3.9689
X2.7806Y-0.952
X2.7806Y-1.4244
X2.7806Y-1.8968
X2.7806Y-2.3693
X2.7806Y-2.8417
X2.7806Y-3.3142
X2.7806Y-3.7866
X2.7806Y-4.259
X2.7905Y-0.7527
X2.7905Y-0.861
X2.7905Y-1.2252
X2.7905Y-1.3334
X2.7905Y-1.6976
X2.7905Y-1.8059
X2.7905Y-2.1701
X2.7905Y-2.2783
X2.7905Y-2.6425
X2.7905Y-2.7508
X2.7905Y-3.1149
X2.7905Y-3.2232
X2.7905Y-3.5874
X2.7905Y-3.6957
X2.7905Y-4.0598
X2.7905Y-4.1681
X2.8641Y-0.8071
X2.8641Y-1.2795
X2.8641Y-1.752
X2.8641Y-2.2244
X2.8641Y-2.6968
X2.8641Y-3.1693
X2.8641Y-3.6417
X2.8641Y-4.1142
X3.0019Y-0.8071
X3.0019Y-1.2795
X3.0019Y-1.752
X3.0019Y-2.2244
X3.0019Y-2.6968
X3.0019Y-3.1693
X3.0019Y-3.6417
X3.0019Y-4.1142
X3.0755Y-0.7531
X3.0755Y-0.861
X3.0755Y-1.2256
X3.0755Y-1.3334
X3.0755Y-1.698
X3.0755Y-1.8059
X3.0755Y-2.1705
X3.0755Y-2.2783
X3.0755Y-2.6429
X3.0755Y-2.7508
X3.0755Y-3.1153
X3.0755Y-3.2232
X3.0755Y-3.5878
X3.0755Y-3.6957
X3.0755Y-4.0602
X3.0755Y-4.1681
X3.0858Y-0.6622
X3.0858Y-0.952
X3.0858Y-1.1346
X3.0858Y-1.4244
X3.0858Y-1.6071
X3.0858Y-1.8968
X3.0858Y-2.0795
X3.0858Y-2.3693
X3.0858Y-2.552
X3.0858Y-2.8417
X3.0858Y-3.0244
X3.0858Y-3.3142
X3.0858Y-3.4968
X3.0858Y-3.7866
X3.0858Y-3.9693
X3.0858Y-4.259
X3.1692Y-0.6988
X3.1692Y-0.9153
X3.1692Y-1.1712
X3.1692Y-1.3878
X3.1692Y-1.6437
X3.1692Y-1.8602
X3.1692Y-2.1161
X3.1692Y-2.3327
X3.1692Y-2.5886
X3.1692Y-2.8051
X3.1692Y-3.061
X3.1692Y-3.2775
X3.1692Y-3.5334
X3.1692Y-3.75
X3.1692Y-4.0059
X3.1692Y-4.2224
X3.2523Y-0.6618
X3.2523Y-1.1342
X3.2523Y-1.6067
X3.2523Y-2.0791
X3.2523Y-2.5516
X3.2523Y-3.024
X3.2523Y-3.4964
X3.2523Y-3.9689
X3.2531Y-0.952
X3.2531Y-1.4244
X3.2531Y-1.8968
X3.2531Y-2.3693
X3.2531Y-2.8417
X3.2531Y-3.3142
X3.2531Y-3.7866
X3.2531Y-4.259
X3.2629Y-0.7527
X3.2629Y-0.861
X3.2629Y-1.2252
X3.2629Y-1.3334
X3.2629Y-1.6976
X3.2629Y-1.8059
X3.2629Y-2.1701
X3.2629Y-2.2783
X3.2629Y-2.6425
X3.2629Y-2.7508
X3.2629Y-3.1149
X3.2629Y-3.2232
X3.2629Y-3.5874
X3.2629Y-3.6957
X3.2629Y-4.0598
X3.2629Y-4.1681
X3.3365Y-0.8071
X3.3365Y-1.2795
X3.3365Y-1.752
X3.3365Y-2.2244
X3.3365Y-2.6968
X3.3365Y-3.1693
X3.3365Y-3.6417
X3.3365Y-4.1142
X3.4743Y-0.8071
X3.4743Y-1.2795
X3.4743Y-1.752
X3.4743Y-2.2244
X3.4743Y-2.6968
X3.4743Y-3.1693
X3.4743Y-3.6417
X3.4743Y-4.1142
X3.548Y-0.7531
X3.548Y-0.861
X3.548Y-1.2256
X3.548Y-1.3334
X3.548Y-1.698
X3.548Y-1.8059
X3.548Y-2.1705
X3.548Y-2.2783
X3.548Y-2.6429
X3.548Y-2.7508
X3.548Y-3.1153
X3.548Y-3.2232
X3.548Y-3.5878
X3.548Y-3.6957
X3.548Y-4.0602
X3.548Y-4.1681
X3.5582Y-0.6622
X3.5582Y-0.952
X3.5582Y-1.1346
X3.5582Y-1.4244
X3.5582Y-1.6071
X3.5582Y-1.8968
X3.5582Y-2.0795
X3.5582Y-2.3693
X3.5582Y-2.552
X3.5582Y-2.8417
X3.5582Y-3.0244
X3.5582Y-3.3142
X3.5582Y-3.4968
X3.5582Y-3.7866
X3.5582Y-3.9693
X3.5582Y-4.259
X3.6417Y-0.6988
X3.6417Y-0.9153
X3.6417Y-1.1712
X3.6417Y-1.3878
X3.6417Y-1.6437
X3.6417Y-1.8602
X3.6417Y-2.1161
X3.6417Y-2.3327
X3.6417Y-2.5886
X3.6417Y-2.8051
X3.6417Y-3.061
X3.6417Y-3.2775
X3.6417Y-3.5334
X3.6417Y-3.75
X3.6417Y-4.0059
X3.6417Y-4.2224
X3.7247Y-0.6618
X3.7247Y-1.1342
X3.7247Y-1.6067
X3.7247Y-2.0791
X3.7247Y-2.5516
X3.7247Y-3.024
X3.7247Y-3.4964
X3.7247Y-3.9689
X3.7255Y-0.952
X3.7255Y-1.4244
X3.7255Y-1.8968
X3.7255Y-2.3693
X3.7255Y-2.8417
X3.7255Y-3.3142
X3.7255Y-3.7866
X3.7255Y-4.259
X3.7354Y-0.7527
X3.7354Y-0.861
X3.7354Y-1.2252
X3.7354Y-1.3334
X3.7354Y-1.6976
X3.7354Y-1.8059
X3.7354Y-2.1701
X3.7354Y-2.2783
X3.7354Y-2.6425
X3.7354Y-2.7508
X3.7354Y-3.1149
X3.7354Y-3.2232
X3.7354Y-3.5874
X3.7354Y-3.6957
X3.7354Y-4.0598
X3.7354Y-4.1681
X3.809Y-0.8071
X3.809Y-1.2795
X3.809Y-1.752
X3.809Y-2.2244
X3.809Y-2.6968
X3.809Y-3.1693
X3.809Y-3.6417
X3.809Y-4.1142
X3.9468Y-0.8071
X3.9468Y-1.2795
X3.9468Y-1.752
X3.9468Y-2.2244
X3.9468Y-2.6968
X3.9468Y-3.1693
X3.9468Y-3.6417
X3.9468Y-4.1142
X4.0204Y-0.7531
X4.0204Y-0.861
X4.0204Y-1.2256
X4.0204Y-1.3334
X4.0204Y-1.698
X4.0204Y-1.8059
X4.0204Y-2.1705
X4.0204Y-2.2783
X4.0204Y-2.6429
X4.0204Y-2.7508
X4.0204Y-3.1153
X4.0204Y-3.2232
X4.0204Y-3.5878
X4.0204Y-3.6957
X4.0204Y-4.0602
X4.0204Y-4.1681
X4.0306Y-0.6622
X4.0306Y-0.952
X4.0306Y-1.1346
X4.0306Y-1.4244
X4.0306Y-1.6071
X4.0306Y-1.8968
X4.0306Y-2.0795
X4.0306Y-2.3693
X4.0306Y-2.552
X4.0306Y-2.8417
X4.0306Y-3.0244
X4.0306Y-3.3142
X4.0306Y-3.4968
X4.0306Y-3.7866
X4.0306Y-3.9693
X4.0306Y-4.259
X4.1141Y-0.6988
X4.1141Y-0.9153
X4.1141Y-1.1712
X4.1141Y-1.3878
X4.1141Y-1.6437
X4.1141Y-1.8602
X4.1141Y-2.1161
X4.1141Y-2.3327
X4.1141Y-2.5886
X4.1141Y-2.8051
X4.1141Y-3.061
X4.1141Y-3.2775
X4.1141Y-3.5334
X4.1141Y-3.75
X4.1141Y-4.0059
X4.1141Y-4.2224
X4.1972Y-0.6618
X4.1972Y-1.1342
X4.1972Y-1.6067
X4.1972Y-2.0791
X4.1972Y-2.5516
X4.1972Y-3.024
X4.1972Y-3.4964
X4.1972Y-3.9689
X4.198Y-0.952
X4.198Y-1.4244
X4.198Y-1.8968
X4.198Y-2.3693
X4.198Y-2.8417
X4.198Y-3.3142
X4.198Y-3.7866
X4.198Y-4.259
X4.2078Y-0.7527
X4.2078Y-0.861
X4.2078Y-1.2252
X4.2078Y-1.3334
X4.2078Y-1.6976
X4.2078Y-1.8059
X4.2078Y-2.1701
X4.2078Y-2.2783
X4.2078Y-2.6425
X4.2078Y-2.7508
X4.2078Y-3.1149
X4.2078Y-3.2232
X4.2078Y-3.5874
X4.2078Y-3.6957
X4.2078Y-4.0598
X4.2078Y-4.1681
X4.2814Y-0.8071
X4.2814Y-1.2795
X4.2814Y-1.752
X4.2814Y-2.2244
X4.2814Y-2.6968
X4.2814Y-3.1693
X4.2814Y-3.6417
X4.2814Y-4.1142
T2
X0.807Y-0.8071
X0.807Y-1.2795
X0.807Y-1.752
X0.807Y-2.2244
X0.807Y-2.6968
X0.807Y-3.1693
X0.807Y-3.6417
X0.807Y-4.1142
X1.2795Y-0.8071
X1.2795Y-1.2795
X1.2795Y-1.752
X1.2795Y-2.2244
X1.2795Y-2.6968
X1.2795Y-3.1693
X1.2795Y-3.6417
X1.2795Y-4.1142
X1.7519Y-0.8071
X1.7519Y-1.2795
X1.7519Y-1.752
X1.7519Y-2.2244
X1.7519Y-2.6968
X1.7519Y-3.1693
X1.7519Y-3.6417
X1.7519Y-4.1142
X2.2243Y-0.8071
X2.2243Y-1.2795
X2.2243Y-1.752
X2.2243Y-2.2244
X2.2243Y-2.6968
X2.2243Y-3.1693
X2.2243Y-3.6417
X2.2243Y-4.1142
X2.6968Y-0.8071
X2.6968Y-1.2795
X2.6968Y-1.752
X2.6968Y-2.2244
X2.6968Y-2.6968
X2.6968Y-3.1693
X2.6968Y-3.6417
X2.6968Y-4.1142
X3.1692Y-0.8071
X3.1692Y-1.2795
X3.1692Y-1.752
X3.1692Y-2.2244
X3.1692Y-2.6968
X3.1692Y-3.1693
X3.1692Y-3.6417
X3.1692Y-4.1142
X3.6417Y-0.8071
X3.6417Y-1.2795
X3.6417Y-1.752
X3.6417Y-2.2244
X3.6417Y-2.6968
X3.6417Y-3.1693
X3.6417Y-3.6417
X3.6417Y-4.1142
X4.1141Y-0.8071
X4.1141Y-1.2795
X4.1141Y-1.752
X4.1141Y-2.2244
X4.1141Y-2.6968
X4.1141Y-3.1693
X4.1141Y-3.6417
X4.1141Y-4.1142
T0
M30
