%TF.GenerationSoftware,KiCad,Pcbnew,6.0.4-6f826c9f35~116~ubuntu18.04.1*%
%TF.CreationDate,2022-07-20T17:56:46+03:00*%
%TF.ProjectId,free_dry_electrodes_6i_6o_p8x8s1.0mm,66726565-5f64-4727-995f-656c65637472,rev?*%
%TF.SameCoordinates,Original*%
%TF.FileFunction,Copper,L1,Top*%
%TF.FilePolarity,Positive*%
%FSLAX46Y46*%
G04 Gerber Fmt 4.6, Leading zero omitted, Abs format (unit mm)*
G04 Created by KiCad (PCBNEW 6.0.4-6f826c9f35~116~ubuntu18.04.1) date 2022-07-20 17:56:46*
%MOMM*%
%LPD*%
G01*
G04 APERTURE LIST*
%TA.AperFunction,ComponentPad*%
%ADD10O,2.000000X2.000000*%
%TD*%
%TA.AperFunction,ComponentPad*%
%ADD11C,6.000000*%
%TD*%
%TA.AperFunction,Conductor*%
%ADD12C,2.000000*%
%TD*%
G04 APERTURE END LIST*
D10*
%TO.P,J23,1,Pin_1*%
%TO.N,Board_31-Net-(J13-Pad1)*%
X106628318Y-60179580D03*
%TD*%
%TO.P,J23,1,Pin_1*%
%TO.N,Board_12-Net-(J13-Pad1)*%
X70628318Y-36179580D03*
%TD*%
%TO.P,J23,1,Pin_1*%
%TO.N,Board_2-Net-(J13-Pad1)*%
X46628318Y-24179580D03*
%TD*%
%TO.P,J24,1,Pin_1*%
%TO.N,Board_39-Net-(J13-Pad1)*%
X102378318Y-72179580D03*
%TD*%
D11*
%TO.P,J0,1,Pin_1*%
%TO.N,Board_14-Net-(J13-Pad1)*%
X92498318Y-32499580D03*
%TD*%
D10*
%TO.P,J24,1,Pin_1*%
%TO.N,Board_17-Net-(J13-Pad1)*%
X30378318Y-48179580D03*
%TD*%
D11*
%TO.P,J0,1,Pin_1*%
%TO.N,Board_23-Net-(J13-Pad1)*%
X104498318Y-44499580D03*
%TD*%
D10*
%TO.P,J21,1,Pin_1*%
%TO.N,Board_14-Net-(J13-Pad1)*%
X94608318Y-28809580D03*
%TD*%
%TO.P,J15,1,Pin_1*%
%TO.N,Board_18-Net-(J13-Pad1)*%
X42118318Y-45869580D03*
%TD*%
%TO.P,J16,1,Pin_1*%
%TO.N,Board_56-Net-(J13-Pad1)*%
X18118318Y-103129580D03*
%TD*%
%TO.P,J15,1,Pin_1*%
%TO.N,Board_50-Net-(J13-Pad1)*%
X42118318Y-93869580D03*
%TD*%
%TO.P,J26,1,Pin_1*%
%TO.N,Board_57-Net-(J13-Pad1)*%
X30378318Y-100819580D03*
%TD*%
%TO.P,J22,1,Pin_1*%
%TO.N,Board_46-Net-(J13-Pad1)*%
X96748318Y-80499580D03*
%TD*%
%TO.P,J11,1,Pin_1*%
%TO.N,Board_57-Net-(J13-Pad1)*%
X32498318Y-101749580D03*
%TD*%
%TO.P,J22,1,Pin_1*%
%TO.N,Board_39-Net-(J13-Pad1)*%
X108748318Y-68499580D03*
%TD*%
%TO.P,J12,1,Pin_1*%
%TO.N,Board_47-Net-(J13-Pad1)*%
X106878318Y-79119580D03*
%TD*%
%TO.P,J22,1,Pin_1*%
%TO.N,Board_13-Net-(J13-Pad1)*%
X84748318Y-32499580D03*
%TD*%
%TO.P,J25,1,Pin_1*%
%TO.N,Board_0-Net-(J13-Pad1)*%
X16248318Y-20499580D03*
%TD*%
D11*
%TO.P,J0,1,Pin_1*%
%TO.N,Board_31-Net-(J13-Pad1)*%
X104498318Y-56499580D03*
%TD*%
D10*
%TO.P,J11,1,Pin_1*%
%TO.N,Board_5-Net-(J13-Pad1)*%
X80498318Y-17749580D03*
%TD*%
%TO.P,J21,1,Pin_1*%
%TO.N,Board_52-Net-(J13-Pad1)*%
X70608318Y-88809580D03*
%TD*%
%TO.P,J14,1,Pin_1*%
%TO.N,Board_27-Net-(J13-Pad1)*%
X56498318Y-59249580D03*
%TD*%
%TO.P,J11,1,Pin_1*%
%TO.N,Board_53-Net-(J13-Pad1)*%
X80498318Y-89749580D03*
%TD*%
%TO.P,J16,1,Pin_1*%
%TO.N,Board_39-Net-(J13-Pad1)*%
X102118318Y-67129580D03*
%TD*%
%TO.P,J22,1,Pin_1*%
%TO.N,Board_8-Net-(J13-Pad1)*%
X24748318Y-32499580D03*
%TD*%
D11*
%TO.P,J0,1,Pin_1*%
%TO.N,Board_46-Net-(J13-Pad1)*%
X92498318Y-80499580D03*
%TD*%
D10*
%TO.P,J13,1,Pin_1*%
%TO.N,Board_30-Net-(J13-Pad1)*%
X94878318Y-57869580D03*
%TD*%
%TO.P,J23,1,Pin_1*%
%TO.N,Board_27-Net-(J13-Pad1)*%
X58628318Y-60179580D03*
%TD*%
%TO.P,J21,1,Pin_1*%
%TO.N,Board_11-Net-(J13-Pad1)*%
X58608318Y-28809580D03*
%TD*%
%TO.P,J23,1,Pin_1*%
%TO.N,Board_38-Net-(J13-Pad1)*%
X94628318Y-72179580D03*
%TD*%
%TO.P,J21,1,Pin_1*%
%TO.N,Board_7-Net-(J13-Pad1)*%
X106608318Y-16809580D03*
%TD*%
%TO.P,J13,1,Pin_1*%
%TO.N,Board_35-Net-(J13-Pad1)*%
X58878318Y-69869580D03*
%TD*%
%TO.P,J22,1,Pin_1*%
%TO.N,Board_25-Net-(J13-Pad1)*%
X36748318Y-56499580D03*
%TD*%
%TO.P,J23,1,Pin_1*%
%TO.N,Board_14-Net-(J13-Pad1)*%
X94628318Y-36179580D03*
%TD*%
%TO.P,J22,1,Pin_1*%
%TO.N,Board_23-Net-(J13-Pad1)*%
X108748318Y-44499580D03*
%TD*%
%TO.P,J22,1,Pin_1*%
%TO.N,Board_26-Net-(J13-Pad1)*%
X48748318Y-56499580D03*
%TD*%
D11*
%TO.P,J0,1,Pin_1*%
%TO.N,Board_17-Net-(J13-Pad1)*%
X32498318Y-44499580D03*
%TD*%
D10*
%TO.P,J24,1,Pin_1*%
%TO.N,Board_48-Net-(J13-Pad1)*%
X18378318Y-96179580D03*
%TD*%
%TO.P,J21,1,Pin_1*%
%TO.N,Board_57-Net-(J13-Pad1)*%
X34608318Y-100809580D03*
%TD*%
%TO.P,J14,1,Pin_1*%
%TO.N,Board_50-Net-(J13-Pad1)*%
X44498318Y-95249580D03*
%TD*%
%TO.P,J15,1,Pin_1*%
%TO.N,Board_56-Net-(J13-Pad1)*%
X18118318Y-105869580D03*
%TD*%
%TO.P,J25,1,Pin_1*%
%TO.N,Board_62-Net-(J13-Pad1)*%
X88248318Y-104499580D03*
%TD*%
%TO.P,J21,1,Pin_1*%
%TO.N,Board_8-Net-(J13-Pad1)*%
X22608318Y-28809580D03*
%TD*%
%TO.P,J11,1,Pin_1*%
%TO.N,Board_26-Net-(J13-Pad1)*%
X44498318Y-53749580D03*
%TD*%
%TO.P,J22,1,Pin_1*%
%TO.N,Board_63-Net-(J13-Pad1)*%
X108748318Y-104499580D03*
%TD*%
%TO.P,J16,1,Pin_1*%
%TO.N,Board_42-Net-(J13-Pad1)*%
X42118318Y-79129580D03*
%TD*%
D11*
%TO.P,J0,1,Pin_1*%
%TO.N,Board_54-Net-(J13-Pad1)*%
X92498318Y-92499580D03*
%TD*%
D10*
%TO.P,J11,1,Pin_1*%
%TO.N,Board_9-Net-(J13-Pad1)*%
X32498318Y-29749580D03*
%TD*%
%TO.P,J11,1,Pin_1*%
%TO.N,Board_62-Net-(J13-Pad1)*%
X92498318Y-101749580D03*
%TD*%
%TO.P,J12,1,Pin_1*%
%TO.N,Board_38-Net-(J13-Pad1)*%
X94878318Y-67119580D03*
%TD*%
%TO.P,J25,1,Pin_1*%
%TO.N,Board_51-Net-(J13-Pad1)*%
X52248318Y-92499580D03*
%TD*%
%TO.P,J15,1,Pin_1*%
%TO.N,Board_62-Net-(J13-Pad1)*%
X90118318Y-105869580D03*
%TD*%
%TO.P,J26,1,Pin_1*%
%TO.N,Board_4-Net-(J13-Pad1)*%
X66378318Y-16819580D03*
%TD*%
%TO.P,J23,1,Pin_1*%
%TO.N,Board_30-Net-(J13-Pad1)*%
X94628318Y-60179580D03*
%TD*%
%TO.P,J14,1,Pin_1*%
%TO.N,Board_10-Net-(J13-Pad1)*%
X44498318Y-35249580D03*
%TD*%
%TO.P,J15,1,Pin_1*%
%TO.N,Board_58-Net-(J13-Pad1)*%
X42118318Y-105869580D03*
%TD*%
%TO.P,J23,1,Pin_1*%
%TO.N,Board_23-Net-(J13-Pad1)*%
X106628318Y-48179580D03*
%TD*%
%TO.P,J16,1,Pin_1*%
%TO.N,Board_54-Net-(J13-Pad1)*%
X90118318Y-91129580D03*
%TD*%
%TO.P,J14,1,Pin_1*%
%TO.N,Board_9-Net-(J13-Pad1)*%
X32498318Y-35249580D03*
%TD*%
%TO.P,J14,1,Pin_1*%
%TO.N,Board_2-Net-(J13-Pad1)*%
X44498318Y-23249580D03*
%TD*%
%TO.P,J22,1,Pin_1*%
%TO.N,Board_30-Net-(J13-Pad1)*%
X96748318Y-56499580D03*
%TD*%
%TO.P,J25,1,Pin_1*%
%TO.N,Board_48-Net-(J13-Pad1)*%
X16248318Y-92499580D03*
%TD*%
%TO.P,J16,1,Pin_1*%
%TO.N,Board_12-Net-(J13-Pad1)*%
X66118318Y-31129580D03*
%TD*%
%TO.P,J22,1,Pin_1*%
%TO.N,Board_15-Net-(J13-Pad1)*%
X108748318Y-32499580D03*
%TD*%
%TO.P,J24,1,Pin_1*%
%TO.N,Board_60-Net-(J13-Pad1)*%
X66378318Y-108179580D03*
%TD*%
%TO.P,J26,1,Pin_1*%
%TO.N,Board_38-Net-(J13-Pad1)*%
X90378318Y-64819580D03*
%TD*%
%TO.P,J26,1,Pin_1*%
%TO.N,Board_53-Net-(J13-Pad1)*%
X78378318Y-88819580D03*
%TD*%
%TO.P,J21,1,Pin_1*%
%TO.N,Board_10-Net-(J13-Pad1)*%
X46608318Y-28809580D03*
%TD*%
%TO.P,J14,1,Pin_1*%
%TO.N,Board_47-Net-(J13-Pad1)*%
X104498318Y-83249580D03*
%TD*%
%TO.P,J22,1,Pin_1*%
%TO.N,Board_21-Net-(J13-Pad1)*%
X84748318Y-44499580D03*
%TD*%
%TO.P,J16,1,Pin_1*%
%TO.N,Board_28-Net-(J13-Pad1)*%
X66118318Y-55129580D03*
%TD*%
%TO.P,J21,1,Pin_1*%
%TO.N,Board_55-Net-(J13-Pad1)*%
X106608318Y-88809580D03*
%TD*%
%TO.P,J14,1,Pin_1*%
%TO.N,Board_60-Net-(J13-Pad1)*%
X68498318Y-107249580D03*
%TD*%
%TO.P,J16,1,Pin_1*%
%TO.N,Board_23-Net-(J13-Pad1)*%
X102118318Y-43129580D03*
%TD*%
%TO.P,J26,1,Pin_1*%
%TO.N,Board_20-Net-(J13-Pad1)*%
X66378318Y-40819580D03*
%TD*%
%TO.P,J26,1,Pin_1*%
%TO.N,Board_2-Net-(J13-Pad1)*%
X42378318Y-16819580D03*
%TD*%
%TO.P,J13,1,Pin_1*%
%TO.N,Board_55-Net-(J13-Pad1)*%
X106878318Y-93869580D03*
%TD*%
%TO.P,J23,1,Pin_1*%
%TO.N,Board_29-Net-(J13-Pad1)*%
X82628318Y-60179580D03*
%TD*%
%TO.P,J22,1,Pin_1*%
%TO.N,Board_35-Net-(J13-Pad1)*%
X60748318Y-68499580D03*
%TD*%
%TO.P,J23,1,Pin_1*%
%TO.N,Board_16-Net-(J13-Pad1)*%
X22628318Y-48179580D03*
%TD*%
%TO.P,J23,1,Pin_1*%
%TO.N,Board_19-Net-(J13-Pad1)*%
X58628318Y-48179580D03*
%TD*%
%TO.P,J21,1,Pin_1*%
%TO.N,Board_4-Net-(J13-Pad1)*%
X70608318Y-16809580D03*
%TD*%
%TO.P,J23,1,Pin_1*%
%TO.N,Board_54-Net-(J13-Pad1)*%
X94628318Y-96179580D03*
%TD*%
%TO.P,J13,1,Pin_1*%
%TO.N,Board_33-Net-(J13-Pad1)*%
X34878318Y-69869580D03*
%TD*%
%TO.P,J11,1,Pin_1*%
%TO.N,Board_32-Net-(J13-Pad1)*%
X20498318Y-65749580D03*
%TD*%
%TO.P,J13,1,Pin_1*%
%TO.N,Board_32-Net-(J13-Pad1)*%
X22878318Y-69869580D03*
%TD*%
%TO.P,J11,1,Pin_1*%
%TO.N,Board_51-Net-(J13-Pad1)*%
X56498318Y-89749580D03*
%TD*%
%TO.P,J23,1,Pin_1*%
%TO.N,Board_20-Net-(J13-Pad1)*%
X70628318Y-48179580D03*
%TD*%
%TO.P,J13,1,Pin_1*%
%TO.N,Board_5-Net-(J13-Pad1)*%
X82878318Y-21869580D03*
%TD*%
%TO.P,J25,1,Pin_1*%
%TO.N,Board_13-Net-(J13-Pad1)*%
X76248318Y-32499580D03*
%TD*%
%TO.P,J15,1,Pin_1*%
%TO.N,Board_59-Net-(J13-Pad1)*%
X54118318Y-105869580D03*
%TD*%
%TO.P,J15,1,Pin_1*%
%TO.N,Board_14-Net-(J13-Pad1)*%
X90118318Y-33869580D03*
%TD*%
%TO.P,J16,1,Pin_1*%
%TO.N,Board_3-Net-(J13-Pad1)*%
X54118318Y-19129580D03*
%TD*%
%TO.P,J25,1,Pin_1*%
%TO.N,Board_2-Net-(J13-Pad1)*%
X40248318Y-20499580D03*
%TD*%
%TO.P,J12,1,Pin_1*%
%TO.N,Board_18-Net-(J13-Pad1)*%
X46878318Y-43119580D03*
%TD*%
%TO.P,J21,1,Pin_1*%
%TO.N,Board_9-Net-(J13-Pad1)*%
X34608318Y-28809580D03*
%TD*%
%TO.P,J22,1,Pin_1*%
%TO.N,Board_42-Net-(J13-Pad1)*%
X48748318Y-80499580D03*
%TD*%
%TO.P,J26,1,Pin_1*%
%TO.N,Board_1-Net-(J13-Pad1)*%
X30378318Y-16819580D03*
%TD*%
D11*
%TO.P,J0,1,Pin_1*%
%TO.N,Board_33-Net-(J13-Pad1)*%
X32498318Y-68499580D03*
%TD*%
D10*
%TO.P,J14,1,Pin_1*%
%TO.N,Board_24-Net-(J13-Pad1)*%
X20498318Y-59249580D03*
%TD*%
%TO.P,J25,1,Pin_1*%
%TO.N,Board_24-Net-(J13-Pad1)*%
X16248318Y-56499580D03*
%TD*%
%TO.P,J11,1,Pin_1*%
%TO.N,Board_33-Net-(J13-Pad1)*%
X32498318Y-65749580D03*
%TD*%
D11*
%TO.P,J0,1,Pin_1*%
%TO.N,Board_53-Net-(J13-Pad1)*%
X80498318Y-92499580D03*
%TD*%
%TO.P,J0,1,Pin_1*%
%TO.N,Board_10-Net-(J13-Pad1)*%
X44498318Y-32499580D03*
%TD*%
D10*
%TO.P,J15,1,Pin_1*%
%TO.N,Board_21-Net-(J13-Pad1)*%
X78118318Y-45869580D03*
%TD*%
%TO.P,J24,1,Pin_1*%
%TO.N,Board_3-Net-(J13-Pad1)*%
X54378318Y-24179580D03*
%TD*%
%TO.P,J22,1,Pin_1*%
%TO.N,Board_61-Net-(J13-Pad1)*%
X84748318Y-104499580D03*
%TD*%
%TO.P,J26,1,Pin_1*%
%TO.N,Board_5-Net-(J13-Pad1)*%
X78378318Y-16819580D03*
%TD*%
%TO.P,J22,1,Pin_1*%
%TO.N,Board_47-Net-(J13-Pad1)*%
X108748318Y-80499580D03*
%TD*%
%TO.P,J12,1,Pin_1*%
%TO.N,Board_30-Net-(J13-Pad1)*%
X94878318Y-55119580D03*
%TD*%
%TO.P,J16,1,Pin_1*%
%TO.N,Board_34-Net-(J13-Pad1)*%
X42118318Y-67129580D03*
%TD*%
%TO.P,J24,1,Pin_1*%
%TO.N,Board_53-Net-(J13-Pad1)*%
X78378318Y-96179580D03*
%TD*%
%TO.P,J21,1,Pin_1*%
%TO.N,Board_42-Net-(J13-Pad1)*%
X46608318Y-76809580D03*
%TD*%
%TO.P,J13,1,Pin_1*%
%TO.N,Board_17-Net-(J13-Pad1)*%
X34878318Y-45869580D03*
%TD*%
%TO.P,J21,1,Pin_1*%
%TO.N,Board_54-Net-(J13-Pad1)*%
X94608318Y-88809580D03*
%TD*%
%TO.P,J13,1,Pin_1*%
%TO.N,Board_62-Net-(J13-Pad1)*%
X94878318Y-105869580D03*
%TD*%
%TO.P,J15,1,Pin_1*%
%TO.N,Board_2-Net-(J13-Pad1)*%
X42118318Y-21869580D03*
%TD*%
%TO.P,J12,1,Pin_1*%
%TO.N,Board_22-Net-(J13-Pad1)*%
X94878318Y-43119580D03*
%TD*%
%TO.P,J14,1,Pin_1*%
%TO.N,Board_4-Net-(J13-Pad1)*%
X68498318Y-23249580D03*
%TD*%
%TO.P,J24,1,Pin_1*%
%TO.N,Board_33-Net-(J13-Pad1)*%
X30378318Y-72179580D03*
%TD*%
%TO.P,J15,1,Pin_1*%
%TO.N,Board_27-Net-(J13-Pad1)*%
X54118318Y-57869580D03*
%TD*%
%TO.P,J12,1,Pin_1*%
%TO.N,Board_53-Net-(J13-Pad1)*%
X82878318Y-91119580D03*
%TD*%
%TO.P,J25,1,Pin_1*%
%TO.N,Board_58-Net-(J13-Pad1)*%
X40248318Y-104499580D03*
%TD*%
%TO.P,J23,1,Pin_1*%
%TO.N,Board_50-Net-(J13-Pad1)*%
X46628318Y-96179580D03*
%TD*%
%TO.P,J24,1,Pin_1*%
%TO.N,Board_25-Net-(J13-Pad1)*%
X30378318Y-60179580D03*
%TD*%
%TO.P,J12,1,Pin_1*%
%TO.N,Board_15-Net-(J13-Pad1)*%
X106878318Y-31119580D03*
%TD*%
%TO.P,J26,1,Pin_1*%
%TO.N,Board_13-Net-(J13-Pad1)*%
X78378318Y-28819580D03*
%TD*%
%TO.P,J24,1,Pin_1*%
%TO.N,Board_22-Net-(J13-Pad1)*%
X90378318Y-48179580D03*
%TD*%
%TO.P,J21,1,Pin_1*%
%TO.N,Board_28-Net-(J13-Pad1)*%
X70608318Y-52809580D03*
%TD*%
%TO.P,J21,1,Pin_1*%
%TO.N,Board_15-Net-(J13-Pad1)*%
X106608318Y-28809580D03*
%TD*%
%TO.P,J25,1,Pin_1*%
%TO.N,Board_4-Net-(J13-Pad1)*%
X64248318Y-20499580D03*
%TD*%
%TO.P,J25,1,Pin_1*%
%TO.N,Board_14-Net-(J13-Pad1)*%
X88248318Y-32499580D03*
%TD*%
%TO.P,J23,1,Pin_1*%
%TO.N,Board_41-Net-(J13-Pad1)*%
X34628318Y-84179580D03*
%TD*%
%TO.P,J15,1,Pin_1*%
%TO.N,Board_49-Net-(J13-Pad1)*%
X30118318Y-93869580D03*
%TD*%
%TO.P,J21,1,Pin_1*%
%TO.N,Board_34-Net-(J13-Pad1)*%
X46608318Y-64809580D03*
%TD*%
%TO.P,J11,1,Pin_1*%
%TO.N,Board_17-Net-(J13-Pad1)*%
X32498318Y-41749580D03*
%TD*%
%TO.P,J16,1,Pin_1*%
%TO.N,Board_36-Net-(J13-Pad1)*%
X66118318Y-67129580D03*
%TD*%
%TO.P,J23,1,Pin_1*%
%TO.N,Board_8-Net-(J13-Pad1)*%
X22628318Y-36179580D03*
%TD*%
%TO.P,J25,1,Pin_1*%
%TO.N,Board_9-Net-(J13-Pad1)*%
X28248318Y-32499580D03*
%TD*%
D11*
%TO.P,J0,1,Pin_1*%
%TO.N,Board_4-Net-(J13-Pad1)*%
X68498318Y-20499580D03*
%TD*%
D10*
%TO.P,J15,1,Pin_1*%
%TO.N,Board_33-Net-(J13-Pad1)*%
X30118318Y-69869580D03*
%TD*%
%TO.P,J16,1,Pin_1*%
%TO.N,Board_58-Net-(J13-Pad1)*%
X42118318Y-103129580D03*
%TD*%
%TO.P,J12,1,Pin_1*%
%TO.N,Board_6-Net-(J13-Pad1)*%
X94878318Y-19119580D03*
%TD*%
%TO.P,J25,1,Pin_1*%
%TO.N,Board_23-Net-(J13-Pad1)*%
X100248318Y-44499580D03*
%TD*%
%TO.P,J23,1,Pin_1*%
%TO.N,Board_35-Net-(J13-Pad1)*%
X58628318Y-72179580D03*
%TD*%
%TO.P,J24,1,Pin_1*%
%TO.N,Board_32-Net-(J13-Pad1)*%
X18378318Y-72179580D03*
%TD*%
%TO.P,J25,1,Pin_1*%
%TO.N,Board_22-Net-(J13-Pad1)*%
X88248318Y-44499580D03*
%TD*%
%TO.P,J14,1,Pin_1*%
%TO.N,Board_18-Net-(J13-Pad1)*%
X44498318Y-47249580D03*
%TD*%
D11*
%TO.P,J0,1,Pin_1*%
%TO.N,Board_26-Net-(J13-Pad1)*%
X44498318Y-56499580D03*
%TD*%
D10*
%TO.P,J12,1,Pin_1*%
%TO.N,Board_46-Net-(J13-Pad1)*%
X94878318Y-79119580D03*
%TD*%
D11*
%TO.P,J0,1,Pin_1*%
%TO.N,Board_38-Net-(J13-Pad1)*%
X92498318Y-68499580D03*
%TD*%
D10*
%TO.P,J21,1,Pin_1*%
%TO.N,Board_13-Net-(J13-Pad1)*%
X82608318Y-28809580D03*
%TD*%
%TO.P,J13,1,Pin_1*%
%TO.N,Board_21-Net-(J13-Pad1)*%
X82878318Y-45869580D03*
%TD*%
%TO.P,J21,1,Pin_1*%
%TO.N,Board_46-Net-(J13-Pad1)*%
X94608318Y-76809580D03*
%TD*%
%TO.P,J15,1,Pin_1*%
%TO.N,Board_60-Net-(J13-Pad1)*%
X66118318Y-105869580D03*
%TD*%
%TO.P,J16,1,Pin_1*%
%TO.N,Board_37-Net-(J13-Pad1)*%
X78118318Y-67129580D03*
%TD*%
%TO.P,J23,1,Pin_1*%
%TO.N,Board_43-Net-(J13-Pad1)*%
X58628318Y-84179580D03*
%TD*%
%TO.P,J14,1,Pin_1*%
%TO.N,Board_25-Net-(J13-Pad1)*%
X32498318Y-59249580D03*
%TD*%
%TO.P,J14,1,Pin_1*%
%TO.N,Board_26-Net-(J13-Pad1)*%
X44498318Y-59249580D03*
%TD*%
%TO.P,J21,1,Pin_1*%
%TO.N,Board_63-Net-(J13-Pad1)*%
X106608318Y-100809580D03*
%TD*%
D11*
%TO.P,J0,1,Pin_1*%
%TO.N,Board_5-Net-(J13-Pad1)*%
X80498318Y-20499580D03*
%TD*%
D10*
%TO.P,J23,1,Pin_1*%
%TO.N,Board_63-Net-(J13-Pad1)*%
X106628318Y-108179580D03*
%TD*%
%TO.P,J24,1,Pin_1*%
%TO.N,Board_23-Net-(J13-Pad1)*%
X102378318Y-48179580D03*
%TD*%
%TO.P,J16,1,Pin_1*%
%TO.N,Board_11-Net-(J13-Pad1)*%
X54118318Y-31129580D03*
%TD*%
%TO.P,J15,1,Pin_1*%
%TO.N,Board_5-Net-(J13-Pad1)*%
X78118318Y-21869580D03*
%TD*%
%TO.P,J13,1,Pin_1*%
%TO.N,Board_52-Net-(J13-Pad1)*%
X70878318Y-93869580D03*
%TD*%
%TO.P,J23,1,Pin_1*%
%TO.N,Board_25-Net-(J13-Pad1)*%
X34628318Y-60179580D03*
%TD*%
%TO.P,J22,1,Pin_1*%
%TO.N,Board_22-Net-(J13-Pad1)*%
X96748318Y-44499580D03*
%TD*%
%TO.P,J13,1,Pin_1*%
%TO.N,Board_42-Net-(J13-Pad1)*%
X46878318Y-81869580D03*
%TD*%
%TO.P,J16,1,Pin_1*%
%TO.N,Board_53-Net-(J13-Pad1)*%
X78118318Y-91129580D03*
%TD*%
%TO.P,J13,1,Pin_1*%
%TO.N,Board_9-Net-(J13-Pad1)*%
X34878318Y-33869580D03*
%TD*%
%TO.P,J12,1,Pin_1*%
%TO.N,Board_10-Net-(J13-Pad1)*%
X46878318Y-31119580D03*
%TD*%
%TO.P,J14,1,Pin_1*%
%TO.N,Board_45-Net-(J13-Pad1)*%
X80498318Y-83249580D03*
%TD*%
%TO.P,J15,1,Pin_1*%
%TO.N,Board_16-Net-(J13-Pad1)*%
X18118318Y-45869580D03*
%TD*%
%TO.P,J15,1,Pin_1*%
%TO.N,Board_30-Net-(J13-Pad1)*%
X90118318Y-57869580D03*
%TD*%
%TO.P,J26,1,Pin_1*%
%TO.N,Board_11-Net-(J13-Pad1)*%
X54378318Y-28819580D03*
%TD*%
%TO.P,J11,1,Pin_1*%
%TO.N,Board_39-Net-(J13-Pad1)*%
X104498318Y-65749580D03*
%TD*%
%TO.P,J16,1,Pin_1*%
%TO.N,Board_50-Net-(J13-Pad1)*%
X42118318Y-91129580D03*
%TD*%
%TO.P,J15,1,Pin_1*%
%TO.N,Board_24-Net-(J13-Pad1)*%
X18118318Y-57869580D03*
%TD*%
%TO.P,J25,1,Pin_1*%
%TO.N,Board_3-Net-(J13-Pad1)*%
X52248318Y-20499580D03*
%TD*%
D11*
%TO.P,J0,1,Pin_1*%
%TO.N,Board_29-Net-(J13-Pad1)*%
X80498318Y-56499580D03*
%TD*%
D10*
%TO.P,J25,1,Pin_1*%
%TO.N,Board_32-Net-(J13-Pad1)*%
X16248318Y-68499580D03*
%TD*%
%TO.P,J16,1,Pin_1*%
%TO.N,Board_41-Net-(J13-Pad1)*%
X30118318Y-79129580D03*
%TD*%
%TO.P,J26,1,Pin_1*%
%TO.N,Board_10-Net-(J13-Pad1)*%
X42378318Y-28819580D03*
%TD*%
%TO.P,J26,1,Pin_1*%
%TO.N,Board_55-Net-(J13-Pad1)*%
X102378318Y-88819580D03*
%TD*%
%TO.P,J26,1,Pin_1*%
%TO.N,Board_63-Net-(J13-Pad1)*%
X102378318Y-100819580D03*
%TD*%
%TO.P,J21,1,Pin_1*%
%TO.N,Board_12-Net-(J13-Pad1)*%
X70608318Y-28809580D03*
%TD*%
%TO.P,J25,1,Pin_1*%
%TO.N,Board_41-Net-(J13-Pad1)*%
X28248318Y-80499580D03*
%TD*%
%TO.P,J11,1,Pin_1*%
%TO.N,Board_42-Net-(J13-Pad1)*%
X44498318Y-77749580D03*
%TD*%
%TO.P,J23,1,Pin_1*%
%TO.N,Board_58-Net-(J13-Pad1)*%
X46628318Y-108179580D03*
%TD*%
%TO.P,J24,1,Pin_1*%
%TO.N,Board_56-Net-(J13-Pad1)*%
X18378318Y-108179580D03*
%TD*%
%TO.P,J13,1,Pin_1*%
%TO.N,Board_2-Net-(J13-Pad1)*%
X46878318Y-21869580D03*
%TD*%
%TO.P,J12,1,Pin_1*%
%TO.N,Board_52-Net-(J13-Pad1)*%
X70878318Y-91119580D03*
%TD*%
%TO.P,J11,1,Pin_1*%
%TO.N,Board_40-Net-(J13-Pad1)*%
X20498318Y-77749580D03*
%TD*%
%TO.P,J14,1,Pin_1*%
%TO.N,Board_28-Net-(J13-Pad1)*%
X68498318Y-59249580D03*
%TD*%
%TO.P,J13,1,Pin_1*%
%TO.N,Board_22-Net-(J13-Pad1)*%
X94878318Y-45869580D03*
%TD*%
%TO.P,J16,1,Pin_1*%
%TO.N,Board_43-Net-(J13-Pad1)*%
X54118318Y-79129580D03*
%TD*%
%TO.P,J25,1,Pin_1*%
%TO.N,Board_54-Net-(J13-Pad1)*%
X88248318Y-92499580D03*
%TD*%
D11*
%TO.P,J0,1,Pin_1*%
%TO.N,Board_48-Net-(J13-Pad1)*%
X20498318Y-92499580D03*
%TD*%
D10*
%TO.P,J21,1,Pin_1*%
%TO.N,Board_39-Net-(J13-Pad1)*%
X106608318Y-64809580D03*
%TD*%
%TO.P,J15,1,Pin_1*%
%TO.N,Board_8-Net-(J13-Pad1)*%
X18118318Y-33869580D03*
%TD*%
%TO.P,J14,1,Pin_1*%
%TO.N,Board_32-Net-(J13-Pad1)*%
X20498318Y-71249580D03*
%TD*%
D11*
%TO.P,J0,1,Pin_1*%
%TO.N,Board_42-Net-(J13-Pad1)*%
X44498318Y-80499580D03*
%TD*%
D10*
%TO.P,J21,1,Pin_1*%
%TO.N,Board_59-Net-(J13-Pad1)*%
X58608318Y-100809580D03*
%TD*%
%TO.P,J13,1,Pin_1*%
%TO.N,Board_6-Net-(J13-Pad1)*%
X94878318Y-21869580D03*
%TD*%
%TO.P,J24,1,Pin_1*%
%TO.N,Board_5-Net-(J13-Pad1)*%
X78378318Y-24179580D03*
%TD*%
%TO.P,J26,1,Pin_1*%
%TO.N,Board_62-Net-(J13-Pad1)*%
X90378318Y-100819580D03*
%TD*%
%TO.P,J26,1,Pin_1*%
%TO.N,Board_58-Net-(J13-Pad1)*%
X42378318Y-100819580D03*
%TD*%
%TO.P,J24,1,Pin_1*%
%TO.N,Board_55-Net-(J13-Pad1)*%
X102378318Y-96179580D03*
%TD*%
%TO.P,J13,1,Pin_1*%
%TO.N,Board_24-Net-(J13-Pad1)*%
X22878318Y-57869580D03*
%TD*%
%TO.P,J12,1,Pin_1*%
%TO.N,Board_33-Net-(J13-Pad1)*%
X34878318Y-67119580D03*
%TD*%
%TO.P,J16,1,Pin_1*%
%TO.N,Board_5-Net-(J13-Pad1)*%
X78118318Y-19129580D03*
%TD*%
%TO.P,J24,1,Pin_1*%
%TO.N,Board_62-Net-(J13-Pad1)*%
X90378318Y-108179580D03*
%TD*%
%TO.P,J26,1,Pin_1*%
%TO.N,Board_23-Net-(J13-Pad1)*%
X102378318Y-40819580D03*
%TD*%
%TO.P,J16,1,Pin_1*%
%TO.N,Board_16-Net-(J13-Pad1)*%
X18118318Y-43129580D03*
%TD*%
%TO.P,J22,1,Pin_1*%
%TO.N,Board_51-Net-(J13-Pad1)*%
X60748318Y-92499580D03*
%TD*%
%TO.P,J16,1,Pin_1*%
%TO.N,Board_40-Net-(J13-Pad1)*%
X18118318Y-79129580D03*
%TD*%
%TO.P,J12,1,Pin_1*%
%TO.N,Board_58-Net-(J13-Pad1)*%
X46878318Y-103119580D03*
%TD*%
%TO.P,J11,1,Pin_1*%
%TO.N,Board_14-Net-(J13-Pad1)*%
X92498318Y-29749580D03*
%TD*%
%TO.P,J25,1,Pin_1*%
%TO.N,Board_35-Net-(J13-Pad1)*%
X52248318Y-68499580D03*
%TD*%
%TO.P,J12,1,Pin_1*%
%TO.N,Board_31-Net-(J13-Pad1)*%
X106878318Y-55119580D03*
%TD*%
%TO.P,J23,1,Pin_1*%
%TO.N,Board_26-Net-(J13-Pad1)*%
X46628318Y-60179580D03*
%TD*%
%TO.P,J16,1,Pin_1*%
%TO.N,Board_38-Net-(J13-Pad1)*%
X90118318Y-67129580D03*
%TD*%
%TO.P,J21,1,Pin_1*%
%TO.N,Board_32-Net-(J13-Pad1)*%
X22608318Y-64809580D03*
%TD*%
%TO.P,J12,1,Pin_1*%
%TO.N,Board_40-Net-(J13-Pad1)*%
X22878318Y-79119580D03*
%TD*%
D11*
%TO.P,J0,1,Pin_1*%
%TO.N,Board_11-Net-(J13-Pad1)*%
X56498318Y-32499580D03*
%TD*%
D10*
%TO.P,J16,1,Pin_1*%
%TO.N,Board_19-Net-(J13-Pad1)*%
X54118318Y-43129580D03*
%TD*%
%TO.P,J13,1,Pin_1*%
%TO.N,Board_43-Net-(J13-Pad1)*%
X58878318Y-81869580D03*
%TD*%
%TO.P,J24,1,Pin_1*%
%TO.N,Board_10-Net-(J13-Pad1)*%
X42378318Y-36179580D03*
%TD*%
%TO.P,J22,1,Pin_1*%
%TO.N,Board_1-Net-(J13-Pad1)*%
X36748318Y-20499580D03*
%TD*%
%TO.P,J16,1,Pin_1*%
%TO.N,Board_20-Net-(J13-Pad1)*%
X66118318Y-43129580D03*
%TD*%
%TO.P,J12,1,Pin_1*%
%TO.N,Board_12-Net-(J13-Pad1)*%
X70878318Y-31119580D03*
%TD*%
%TO.P,J12,1,Pin_1*%
%TO.N,Board_61-Net-(J13-Pad1)*%
X82878318Y-103119580D03*
%TD*%
%TO.P,J22,1,Pin_1*%
%TO.N,Board_18-Net-(J13-Pad1)*%
X48748318Y-44499580D03*
%TD*%
%TO.P,J21,1,Pin_1*%
%TO.N,Board_50-Net-(J13-Pad1)*%
X46608318Y-88809580D03*
%TD*%
%TO.P,J13,1,Pin_1*%
%TO.N,Board_27-Net-(J13-Pad1)*%
X58878318Y-57869580D03*
%TD*%
%TO.P,J26,1,Pin_1*%
%TO.N,Board_34-Net-(J13-Pad1)*%
X42378318Y-64819580D03*
%TD*%
%TO.P,J16,1,Pin_1*%
%TO.N,Board_59-Net-(J13-Pad1)*%
X54118318Y-103129580D03*
%TD*%
%TO.P,J21,1,Pin_1*%
%TO.N,Board_61-Net-(J13-Pad1)*%
X82608318Y-100809580D03*
%TD*%
%TO.P,J22,1,Pin_1*%
%TO.N,Board_62-Net-(J13-Pad1)*%
X96748318Y-104499580D03*
%TD*%
%TO.P,J12,1,Pin_1*%
%TO.N,Board_8-Net-(J13-Pad1)*%
X22878318Y-31119580D03*
%TD*%
%TO.P,J12,1,Pin_1*%
%TO.N,Board_19-Net-(J13-Pad1)*%
X58878318Y-43119580D03*
%TD*%
%TO.P,J13,1,Pin_1*%
%TO.N,Board_36-Net-(J13-Pad1)*%
X70878318Y-69869580D03*
%TD*%
%TO.P,J15,1,Pin_1*%
%TO.N,Board_44-Net-(J13-Pad1)*%
X66118318Y-81869580D03*
%TD*%
%TO.P,J26,1,Pin_1*%
%TO.N,Board_61-Net-(J13-Pad1)*%
X78378318Y-100819580D03*
%TD*%
%TO.P,J25,1,Pin_1*%
%TO.N,Board_49-Net-(J13-Pad1)*%
X28248318Y-92499580D03*
%TD*%
%TO.P,J13,1,Pin_1*%
%TO.N,Board_7-Net-(J13-Pad1)*%
X106878318Y-21869580D03*
%TD*%
%TO.P,J14,1,Pin_1*%
%TO.N,Board_49-Net-(J13-Pad1)*%
X32498318Y-95249580D03*
%TD*%
%TO.P,J26,1,Pin_1*%
%TO.N,Board_32-Net-(J13-Pad1)*%
X18378318Y-64819580D03*
%TD*%
D11*
%TO.P,J0,1,Pin_1*%
%TO.N,Board_60-Net-(J13-Pad1)*%
X68498318Y-104499580D03*
%TD*%
D10*
%TO.P,J26,1,Pin_1*%
%TO.N,Board_46-Net-(J13-Pad1)*%
X90378318Y-76819580D03*
%TD*%
%TO.P,J14,1,Pin_1*%
%TO.N,Board_8-Net-(J13-Pad1)*%
X20498318Y-35249580D03*
%TD*%
%TO.P,J23,1,Pin_1*%
%TO.N,Board_34-Net-(J13-Pad1)*%
X46628318Y-72179580D03*
%TD*%
%TO.P,J14,1,Pin_1*%
%TO.N,Board_16-Net-(J13-Pad1)*%
X20498318Y-47249580D03*
%TD*%
%TO.P,J22,1,Pin_1*%
%TO.N,Board_29-Net-(J13-Pad1)*%
X84748318Y-56499580D03*
%TD*%
%TO.P,J16,1,Pin_1*%
%TO.N,Board_7-Net-(J13-Pad1)*%
X102118318Y-19129580D03*
%TD*%
%TO.P,J25,1,Pin_1*%
%TO.N,Board_31-Net-(J13-Pad1)*%
X100248318Y-56499580D03*
%TD*%
%TO.P,J16,1,Pin_1*%
%TO.N,Board_60-Net-(J13-Pad1)*%
X66118318Y-103129580D03*
%TD*%
%TO.P,J15,1,Pin_1*%
%TO.N,Board_13-Net-(J13-Pad1)*%
X78118318Y-33869580D03*
%TD*%
%TO.P,J21,1,Pin_1*%
%TO.N,Board_51-Net-(J13-Pad1)*%
X58608318Y-88809580D03*
%TD*%
%TO.P,J26,1,Pin_1*%
%TO.N,Board_22-Net-(J13-Pad1)*%
X90378318Y-40819580D03*
%TD*%
%TO.P,J14,1,Pin_1*%
%TO.N,Board_61-Net-(J13-Pad1)*%
X80498318Y-107249580D03*
%TD*%
%TO.P,J13,1,Pin_1*%
%TO.N,Board_37-Net-(J13-Pad1)*%
X82878318Y-69869580D03*
%TD*%
%TO.P,J15,1,Pin_1*%
%TO.N,Board_28-Net-(J13-Pad1)*%
X66118318Y-57869580D03*
%TD*%
%TO.P,J24,1,Pin_1*%
%TO.N,Board_7-Net-(J13-Pad1)*%
X102378318Y-24179580D03*
%TD*%
%TO.P,J22,1,Pin_1*%
%TO.N,Board_36-Net-(J13-Pad1)*%
X72748318Y-68499580D03*
%TD*%
%TO.P,J11,1,Pin_1*%
%TO.N,Board_46-Net-(J13-Pad1)*%
X92498318Y-77749580D03*
%TD*%
%TO.P,J22,1,Pin_1*%
%TO.N,Board_59-Net-(J13-Pad1)*%
X60748318Y-104499580D03*
%TD*%
%TO.P,J12,1,Pin_1*%
%TO.N,Board_29-Net-(J13-Pad1)*%
X82878318Y-55119580D03*
%TD*%
%TO.P,J14,1,Pin_1*%
%TO.N,Board_55-Net-(J13-Pad1)*%
X104498318Y-95249580D03*
%TD*%
%TO.P,J23,1,Pin_1*%
%TO.N,Board_5-Net-(J13-Pad1)*%
X82628318Y-24179580D03*
%TD*%
%TO.P,J13,1,Pin_1*%
%TO.N,Board_34-Net-(J13-Pad1)*%
X46878318Y-69869580D03*
%TD*%
%TO.P,J23,1,Pin_1*%
%TO.N,Board_9-Net-(J13-Pad1)*%
X34628318Y-36179580D03*
%TD*%
%TO.P,J15,1,Pin_1*%
%TO.N,Board_4-Net-(J13-Pad1)*%
X66118318Y-21869580D03*
%TD*%
%TO.P,J26,1,Pin_1*%
%TO.N,Board_37-Net-(J13-Pad1)*%
X78378318Y-64819580D03*
%TD*%
%TO.P,J25,1,Pin_1*%
%TO.N,Board_28-Net-(J13-Pad1)*%
X64248318Y-56499580D03*
%TD*%
%TO.P,J13,1,Pin_1*%
%TO.N,Board_61-Net-(J13-Pad1)*%
X82878318Y-105869580D03*
%TD*%
%TO.P,J24,1,Pin_1*%
%TO.N,Board_61-Net-(J13-Pad1)*%
X78378318Y-108179580D03*
%TD*%
%TO.P,J15,1,Pin_1*%
%TO.N,Board_1-Net-(J13-Pad1)*%
X30118318Y-21869580D03*
%TD*%
%TO.P,J23,1,Pin_1*%
%TO.N,Board_4-Net-(J13-Pad1)*%
X70628318Y-24179580D03*
%TD*%
D11*
%TO.P,J0,1,Pin_1*%
%TO.N,Board_62-Net-(J13-Pad1)*%
X92498318Y-104499580D03*
%TD*%
D10*
%TO.P,J21,1,Pin_1*%
%TO.N,Board_58-Net-(J13-Pad1)*%
X46608318Y-100809580D03*
%TD*%
%TO.P,J14,1,Pin_1*%
%TO.N,Board_53-Net-(J13-Pad1)*%
X80498318Y-95249580D03*
%TD*%
%TO.P,J23,1,Pin_1*%
%TO.N,Board_0-Net-(J13-Pad1)*%
X22628318Y-24179580D03*
%TD*%
%TO.P,J23,1,Pin_1*%
%TO.N,Board_55-Net-(J13-Pad1)*%
X106628318Y-96179580D03*
%TD*%
%TO.P,J21,1,Pin_1*%
%TO.N,Board_0-Net-(J13-Pad1)*%
X22608318Y-16809580D03*
%TD*%
%TO.P,J15,1,Pin_1*%
%TO.N,Board_42-Net-(J13-Pad1)*%
X42118318Y-81869580D03*
%TD*%
%TO.P,J24,1,Pin_1*%
%TO.N,Board_14-Net-(J13-Pad1)*%
X90378318Y-36179580D03*
%TD*%
%TO.P,J21,1,Pin_1*%
%TO.N,Board_36-Net-(J13-Pad1)*%
X70608318Y-64809580D03*
%TD*%
%TO.P,J22,1,Pin_1*%
%TO.N,Board_4-Net-(J13-Pad1)*%
X72748318Y-20499580D03*
%TD*%
%TO.P,J24,1,Pin_1*%
%TO.N,Board_16-Net-(J13-Pad1)*%
X18378318Y-48179580D03*
%TD*%
%TO.P,J26,1,Pin_1*%
%TO.N,Board_14-Net-(J13-Pad1)*%
X90378318Y-28819580D03*
%TD*%
%TO.P,J21,1,Pin_1*%
%TO.N,Board_44-Net-(J13-Pad1)*%
X70608318Y-76809580D03*
%TD*%
%TO.P,J26,1,Pin_1*%
%TO.N,Board_40-Net-(J13-Pad1)*%
X18378318Y-76819580D03*
%TD*%
%TO.P,J12,1,Pin_1*%
%TO.N,Board_59-Net-(J13-Pad1)*%
X58878318Y-103119580D03*
%TD*%
%TO.P,J24,1,Pin_1*%
%TO.N,Board_11-Net-(J13-Pad1)*%
X54378318Y-36179580D03*
%TD*%
%TO.P,J25,1,Pin_1*%
%TO.N,Board_27-Net-(J13-Pad1)*%
X52248318Y-56499580D03*
%TD*%
%TO.P,J25,1,Pin_1*%
%TO.N,Board_45-Net-(J13-Pad1)*%
X76248318Y-80499580D03*
%TD*%
%TO.P,J25,1,Pin_1*%
%TO.N,Board_43-Net-(J13-Pad1)*%
X52248318Y-80499580D03*
%TD*%
%TO.P,J15,1,Pin_1*%
%TO.N,Board_48-Net-(J13-Pad1)*%
X18118318Y-93869580D03*
%TD*%
%TO.P,J26,1,Pin_1*%
%TO.N,Board_49-Net-(J13-Pad1)*%
X30378318Y-88819580D03*
%TD*%
%TO.P,J24,1,Pin_1*%
%TO.N,Board_35-Net-(J13-Pad1)*%
X54378318Y-72179580D03*
%TD*%
%TO.P,J16,1,Pin_1*%
%TO.N,Board_57-Net-(J13-Pad1)*%
X30118318Y-103129580D03*
%TD*%
%TO.P,J12,1,Pin_1*%
%TO.N,Board_0-Net-(J13-Pad1)*%
X22878318Y-19119580D03*
%TD*%
%TO.P,J23,1,Pin_1*%
%TO.N,Board_53-Net-(J13-Pad1)*%
X82628318Y-96179580D03*
%TD*%
%TO.P,J12,1,Pin_1*%
%TO.N,Board_41-Net-(J13-Pad1)*%
X34878318Y-79119580D03*
%TD*%
%TO.P,J11,1,Pin_1*%
%TO.N,Board_20-Net-(J13-Pad1)*%
X68498318Y-41749580D03*
%TD*%
%TO.P,J12,1,Pin_1*%
%TO.N,Board_23-Net-(J13-Pad1)*%
X106878318Y-43119580D03*
%TD*%
%TO.P,J25,1,Pin_1*%
%TO.N,Board_25-Net-(J13-Pad1)*%
X28248318Y-56499580D03*
%TD*%
%TO.P,J13,1,Pin_1*%
%TO.N,Board_48-Net-(J13-Pad1)*%
X22878318Y-93869580D03*
%TD*%
%TO.P,J13,1,Pin_1*%
%TO.N,Board_12-Net-(J13-Pad1)*%
X70878318Y-33869580D03*
%TD*%
%TO.P,J22,1,Pin_1*%
%TO.N,Board_40-Net-(J13-Pad1)*%
X24748318Y-80499580D03*
%TD*%
%TO.P,J26,1,Pin_1*%
%TO.N,Board_21-Net-(J13-Pad1)*%
X78378318Y-40819580D03*
%TD*%
%TO.P,J15,1,Pin_1*%
%TO.N,Board_63-Net-(J13-Pad1)*%
X102118318Y-105869580D03*
%TD*%
%TO.P,J14,1,Pin_1*%
%TO.N,Board_43-Net-(J13-Pad1)*%
X56498318Y-83249580D03*
%TD*%
%TO.P,J16,1,Pin_1*%
%TO.N,Board_17-Net-(J13-Pad1)*%
X30118318Y-43129580D03*
%TD*%
%TO.P,J26,1,Pin_1*%
%TO.N,Board_56-Net-(J13-Pad1)*%
X18378318Y-100819580D03*
%TD*%
D11*
%TO.P,J0,1,Pin_1*%
%TO.N,Board_12-Net-(J13-Pad1)*%
X68498318Y-32499580D03*
%TD*%
D10*
%TO.P,J11,1,Pin_1*%
%TO.N,Board_37-Net-(J13-Pad1)*%
X80498318Y-65749580D03*
%TD*%
%TO.P,J23,1,Pin_1*%
%TO.N,Board_52-Net-(J13-Pad1)*%
X70628318Y-96179580D03*
%TD*%
%TO.P,J11,1,Pin_1*%
%TO.N,Board_13-Net-(J13-Pad1)*%
X80498318Y-29749580D03*
%TD*%
%TO.P,J26,1,Pin_1*%
%TO.N,Board_24-Net-(J13-Pad1)*%
X18378318Y-52819580D03*
%TD*%
%TO.P,J25,1,Pin_1*%
%TO.N,Board_50-Net-(J13-Pad1)*%
X40248318Y-92499580D03*
%TD*%
%TO.P,J16,1,Pin_1*%
%TO.N,Board_0-Net-(J13-Pad1)*%
X18118318Y-19129580D03*
%TD*%
%TO.P,J16,1,Pin_1*%
%TO.N,Board_21-Net-(J13-Pad1)*%
X78118318Y-43129580D03*
%TD*%
%TO.P,J26,1,Pin_1*%
%TO.N,Board_19-Net-(J13-Pad1)*%
X54378318Y-40819580D03*
%TD*%
%TO.P,J14,1,Pin_1*%
%TO.N,Board_29-Net-(J13-Pad1)*%
X80498318Y-59249580D03*
%TD*%
%TO.P,J14,1,Pin_1*%
%TO.N,Board_48-Net-(J13-Pad1)*%
X20498318Y-95249580D03*
%TD*%
%TO.P,J11,1,Pin_1*%
%TO.N,Board_31-Net-(J13-Pad1)*%
X104498318Y-53749580D03*
%TD*%
%TO.P,J11,1,Pin_1*%
%TO.N,Board_27-Net-(J13-Pad1)*%
X56498318Y-53749580D03*
%TD*%
%TO.P,J13,1,Pin_1*%
%TO.N,Board_8-Net-(J13-Pad1)*%
X22878318Y-33869580D03*
%TD*%
%TO.P,J22,1,Pin_1*%
%TO.N,Board_57-Net-(J13-Pad1)*%
X36748318Y-104499580D03*
%TD*%
%TO.P,J15,1,Pin_1*%
%TO.N,Board_19-Net-(J13-Pad1)*%
X54118318Y-45869580D03*
%TD*%
%TO.P,J21,1,Pin_1*%
%TO.N,Board_20-Net-(J13-Pad1)*%
X70608318Y-40809580D03*
%TD*%
%TO.P,J23,1,Pin_1*%
%TO.N,Board_15-Net-(J13-Pad1)*%
X106628318Y-36179580D03*
%TD*%
%TO.P,J16,1,Pin_1*%
%TO.N,Board_27-Net-(J13-Pad1)*%
X54118318Y-55129580D03*
%TD*%
%TO.P,J22,1,Pin_1*%
%TO.N,Board_44-Net-(J13-Pad1)*%
X72748318Y-80499580D03*
%TD*%
%TO.P,J11,1,Pin_1*%
%TO.N,Board_28-Net-(J13-Pad1)*%
X68498318Y-53749580D03*
%TD*%
%TO.P,J12,1,Pin_1*%
%TO.N,Board_26-Net-(J13-Pad1)*%
X46878318Y-55119580D03*
%TD*%
%TO.P,J16,1,Pin_1*%
%TO.N,Board_61-Net-(J13-Pad1)*%
X78118318Y-103129580D03*
%TD*%
%TO.P,J24,1,Pin_1*%
%TO.N,Board_59-Net-(J13-Pad1)*%
X54378318Y-108179580D03*
%TD*%
%TO.P,J13,1,Pin_1*%
%TO.N,Board_53-Net-(J13-Pad1)*%
X82878318Y-93869580D03*
%TD*%
%TO.P,J15,1,Pin_1*%
%TO.N,Board_32-Net-(J13-Pad1)*%
X18118318Y-69869580D03*
%TD*%
%TO.P,J22,1,Pin_1*%
%TO.N,Board_58-Net-(J13-Pad1)*%
X48748318Y-104499580D03*
%TD*%
%TO.P,J21,1,Pin_1*%
%TO.N,Board_19-Net-(J13-Pad1)*%
X58608318Y-40809580D03*
%TD*%
%TO.P,J24,1,Pin_1*%
%TO.N,Board_37-Net-(J13-Pad1)*%
X78378318Y-72179580D03*
%TD*%
%TO.P,J16,1,Pin_1*%
%TO.N,Board_4-Net-(J13-Pad1)*%
X66118318Y-19129580D03*
%TD*%
%TO.P,J14,1,Pin_1*%
%TO.N,Board_34-Net-(J13-Pad1)*%
X44498318Y-71249580D03*
%TD*%
%TO.P,J24,1,Pin_1*%
%TO.N,Board_27-Net-(J13-Pad1)*%
X54378318Y-60179580D03*
%TD*%
%TO.P,J21,1,Pin_1*%
%TO.N,Board_37-Net-(J13-Pad1)*%
X82608318Y-64809580D03*
%TD*%
%TO.P,J21,1,Pin_1*%
%TO.N,Board_49-Net-(J13-Pad1)*%
X34608318Y-88809580D03*
%TD*%
%TO.P,J14,1,Pin_1*%
%TO.N,Board_36-Net-(J13-Pad1)*%
X68498318Y-71249580D03*
%TD*%
%TO.P,J21,1,Pin_1*%
%TO.N,Board_45-Net-(J13-Pad1)*%
X82608318Y-76809580D03*
%TD*%
%TO.P,J16,1,Pin_1*%
%TO.N,Board_10-Net-(J13-Pad1)*%
X42118318Y-31129580D03*
%TD*%
%TO.P,J12,1,Pin_1*%
%TO.N,Board_49-Net-(J13-Pad1)*%
X34878318Y-91119580D03*
%TD*%
%TO.P,J22,1,Pin_1*%
%TO.N,Board_12-Net-(J13-Pad1)*%
X72748318Y-32499580D03*
%TD*%
%TO.P,J24,1,Pin_1*%
%TO.N,Board_50-Net-(J13-Pad1)*%
X42378318Y-96179580D03*
%TD*%
%TO.P,J14,1,Pin_1*%
%TO.N,Board_11-Net-(J13-Pad1)*%
X56498318Y-35249580D03*
%TD*%
%TO.P,J13,1,Pin_1*%
%TO.N,Board_58-Net-(J13-Pad1)*%
X46878318Y-105869580D03*
%TD*%
%TO.P,J16,1,Pin_1*%
%TO.N,Board_14-Net-(J13-Pad1)*%
X90118318Y-31129580D03*
%TD*%
%TO.P,J13,1,Pin_1*%
%TO.N,Board_3-Net-(J13-Pad1)*%
X58878318Y-21869580D03*
%TD*%
%TO.P,J22,1,Pin_1*%
%TO.N,Board_33-Net-(J13-Pad1)*%
X36748318Y-68499580D03*
%TD*%
%TO.P,J11,1,Pin_1*%
%TO.N,Board_8-Net-(J13-Pad1)*%
X20498318Y-29749580D03*
%TD*%
%TO.P,J25,1,Pin_1*%
%TO.N,Board_38-Net-(J13-Pad1)*%
X88248318Y-68499580D03*
%TD*%
%TO.P,J14,1,Pin_1*%
%TO.N,Board_20-Net-(J13-Pad1)*%
X68498318Y-47249580D03*
%TD*%
%TO.P,J16,1,Pin_1*%
%TO.N,Board_24-Net-(J13-Pad1)*%
X18118318Y-55129580D03*
%TD*%
%TO.P,J15,1,Pin_1*%
%TO.N,Board_57-Net-(J13-Pad1)*%
X30118318Y-105869580D03*
%TD*%
%TO.P,J25,1,Pin_1*%
%TO.N,Board_11-Net-(J13-Pad1)*%
X52248318Y-32499580D03*
%TD*%
%TO.P,J14,1,Pin_1*%
%TO.N,Board_39-Net-(J13-Pad1)*%
X104498318Y-71249580D03*
%TD*%
%TO.P,J26,1,Pin_1*%
%TO.N,Board_3-Net-(J13-Pad1)*%
X54378318Y-16819580D03*
%TD*%
%TO.P,J24,1,Pin_1*%
%TO.N,Board_40-Net-(J13-Pad1)*%
X18378318Y-84179580D03*
%TD*%
%TO.P,J16,1,Pin_1*%
%TO.N,Board_46-Net-(J13-Pad1)*%
X90118318Y-79129580D03*
%TD*%
%TO.P,J25,1,Pin_1*%
%TO.N,Board_39-Net-(J13-Pad1)*%
X100248318Y-68499580D03*
%TD*%
%TO.P,J24,1,Pin_1*%
%TO.N,Board_38-Net-(J13-Pad1)*%
X90378318Y-72179580D03*
%TD*%
%TO.P,J22,1,Pin_1*%
%TO.N,Board_52-Net-(J13-Pad1)*%
X72748318Y-92499580D03*
%TD*%
%TO.P,J24,1,Pin_1*%
%TO.N,Board_1-Net-(J13-Pad1)*%
X30378318Y-24179580D03*
%TD*%
%TO.P,J14,1,Pin_1*%
%TO.N,Board_38-Net-(J13-Pad1)*%
X92498318Y-71249580D03*
%TD*%
%TO.P,J13,1,Pin_1*%
%TO.N,Board_26-Net-(J13-Pad1)*%
X46878318Y-57869580D03*
%TD*%
%TO.P,J25,1,Pin_1*%
%TO.N,Board_61-Net-(J13-Pad1)*%
X76248318Y-104499580D03*
%TD*%
%TO.P,J15,1,Pin_1*%
%TO.N,Board_39-Net-(J13-Pad1)*%
X102118318Y-69869580D03*
%TD*%
%TO.P,J24,1,Pin_1*%
%TO.N,Board_54-Net-(J13-Pad1)*%
X90378318Y-96179580D03*
%TD*%
D11*
%TO.P,J0,1,Pin_1*%
%TO.N,Board_24-Net-(J13-Pad1)*%
X20498318Y-56499580D03*
%TD*%
D10*
%TO.P,J11,1,Pin_1*%
%TO.N,Board_25-Net-(J13-Pad1)*%
X32498318Y-53749580D03*
%TD*%
%TO.P,J26,1,Pin_1*%
%TO.N,Board_9-Net-(J13-Pad1)*%
X30378318Y-28819580D03*
%TD*%
%TO.P,J14,1,Pin_1*%
%TO.N,Board_1-Net-(J13-Pad1)*%
X32498318Y-23249580D03*
%TD*%
D11*
%TO.P,J0,1,Pin_1*%
%TO.N,Board_40-Net-(J13-Pad1)*%
X20498318Y-80499580D03*
%TD*%
D10*
%TO.P,J22,1,Pin_1*%
%TO.N,Board_17-Net-(J13-Pad1)*%
X36748318Y-44499580D03*
%TD*%
D11*
%TO.P,J0,1,Pin_1*%
%TO.N,Board_16-Net-(J13-Pad1)*%
X20498318Y-44499580D03*
%TD*%
D10*
%TO.P,J26,1,Pin_1*%
%TO.N,Board_0-Net-(J13-Pad1)*%
X18378318Y-16819580D03*
%TD*%
%TO.P,J21,1,Pin_1*%
%TO.N,Board_53-Net-(J13-Pad1)*%
X82608318Y-88809580D03*
%TD*%
%TO.P,J12,1,Pin_1*%
%TO.N,Board_27-Net-(J13-Pad1)*%
X58878318Y-55119580D03*
%TD*%
%TO.P,J16,1,Pin_1*%
%TO.N,Board_6-Net-(J13-Pad1)*%
X90118318Y-19129580D03*
%TD*%
%TO.P,J23,1,Pin_1*%
%TO.N,Board_21-Net-(J13-Pad1)*%
X82628318Y-48179580D03*
%TD*%
%TO.P,J16,1,Pin_1*%
%TO.N,Board_51-Net-(J13-Pad1)*%
X54118318Y-91129580D03*
%TD*%
%TO.P,J23,1,Pin_1*%
%TO.N,Board_1-Net-(J13-Pad1)*%
X34628318Y-24179580D03*
%TD*%
%TO.P,J24,1,Pin_1*%
%TO.N,Board_41-Net-(J13-Pad1)*%
X30378318Y-84179580D03*
%TD*%
%TO.P,J12,1,Pin_1*%
%TO.N,Board_1-Net-(J13-Pad1)*%
X34878318Y-19119580D03*
%TD*%
%TO.P,J23,1,Pin_1*%
%TO.N,Board_24-Net-(J13-Pad1)*%
X22628318Y-60179580D03*
%TD*%
%TO.P,J11,1,Pin_1*%
%TO.N,Board_52-Net-(J13-Pad1)*%
X68498318Y-89749580D03*
%TD*%
%TO.P,J13,1,Pin_1*%
%TO.N,Board_19-Net-(J13-Pad1)*%
X58878318Y-45869580D03*
%TD*%
%TO.P,J24,1,Pin_1*%
%TO.N,Board_4-Net-(J13-Pad1)*%
X66378318Y-24179580D03*
%TD*%
%TO.P,J26,1,Pin_1*%
%TO.N,Board_44-Net-(J13-Pad1)*%
X66378318Y-76819580D03*
%TD*%
%TO.P,J25,1,Pin_1*%
%TO.N,Board_19-Net-(J13-Pad1)*%
X52248318Y-44499580D03*
%TD*%
%TO.P,J11,1,Pin_1*%
%TO.N,Board_10-Net-(J13-Pad1)*%
X44498318Y-29749580D03*
%TD*%
%TO.P,J21,1,Pin_1*%
%TO.N,Board_56-Net-(J13-Pad1)*%
X22608318Y-100809580D03*
%TD*%
%TO.P,J25,1,Pin_1*%
%TO.N,Board_42-Net-(J13-Pad1)*%
X40248318Y-80499580D03*
%TD*%
%TO.P,J12,1,Pin_1*%
%TO.N,Board_7-Net-(J13-Pad1)*%
X106878318Y-19119580D03*
%TD*%
%TO.P,J11,1,Pin_1*%
%TO.N,Board_44-Net-(J13-Pad1)*%
X68498318Y-77749580D03*
%TD*%
%TO.P,J15,1,Pin_1*%
%TO.N,Board_31-Net-(J13-Pad1)*%
X102118318Y-57869580D03*
%TD*%
D11*
%TO.P,J0,1,Pin_1*%
%TO.N,Board_35-Net-(J13-Pad1)*%
X56498318Y-68499580D03*
%TD*%
D10*
%TO.P,J25,1,Pin_1*%
%TO.N,Board_56-Net-(J13-Pad1)*%
X16248318Y-104499580D03*
%TD*%
%TO.P,J21,1,Pin_1*%
%TO.N,Board_17-Net-(J13-Pad1)*%
X34608318Y-40809580D03*
%TD*%
%TO.P,J11,1,Pin_1*%
%TO.N,Board_11-Net-(J13-Pad1)*%
X56498318Y-29749580D03*
%TD*%
%TO.P,J16,1,Pin_1*%
%TO.N,Board_26-Net-(J13-Pad1)*%
X42118318Y-55129580D03*
%TD*%
%TO.P,J16,1,Pin_1*%
%TO.N,Board_63-Net-(J13-Pad1)*%
X102118318Y-103129580D03*
%TD*%
%TO.P,J22,1,Pin_1*%
%TO.N,Board_32-Net-(J13-Pad1)*%
X24748318Y-68499580D03*
%TD*%
%TO.P,J15,1,Pin_1*%
%TO.N,Board_53-Net-(J13-Pad1)*%
X78118318Y-93869580D03*
%TD*%
%TO.P,J23,1,Pin_1*%
%TO.N,Board_13-Net-(J13-Pad1)*%
X82628318Y-36179580D03*
%TD*%
%TO.P,J15,1,Pin_1*%
%TO.N,Board_41-Net-(J13-Pad1)*%
X30118318Y-81869580D03*
%TD*%
%TO.P,J12,1,Pin_1*%
%TO.N,Board_56-Net-(J13-Pad1)*%
X22878318Y-103119580D03*
%TD*%
%TO.P,J25,1,Pin_1*%
%TO.N,Board_60-Net-(J13-Pad1)*%
X64248318Y-104499580D03*
%TD*%
%TO.P,J21,1,Pin_1*%
%TO.N,Board_5-Net-(J13-Pad1)*%
X82608318Y-16809580D03*
%TD*%
%TO.P,J12,1,Pin_1*%
%TO.N,Board_11-Net-(J13-Pad1)*%
X58878318Y-31119580D03*
%TD*%
%TO.P,J22,1,Pin_1*%
%TO.N,Board_43-Net-(J13-Pad1)*%
X60748318Y-80499580D03*
%TD*%
D11*
%TO.P,J0,1,Pin_1*%
%TO.N,Board_37-Net-(J13-Pad1)*%
X80498318Y-68499580D03*
%TD*%
D10*
%TO.P,J16,1,Pin_1*%
%TO.N,Board_35-Net-(J13-Pad1)*%
X54118318Y-67129580D03*
%TD*%
%TO.P,J26,1,Pin_1*%
%TO.N,Board_27-Net-(J13-Pad1)*%
X54378318Y-52819580D03*
%TD*%
%TO.P,J23,1,Pin_1*%
%TO.N,Board_42-Net-(J13-Pad1)*%
X46628318Y-84179580D03*
%TD*%
%TO.P,J14,1,Pin_1*%
%TO.N,Board_42-Net-(J13-Pad1)*%
X44498318Y-83249580D03*
%TD*%
%TO.P,J11,1,Pin_1*%
%TO.N,Board_15-Net-(J13-Pad1)*%
X104498318Y-29749580D03*
%TD*%
%TO.P,J26,1,Pin_1*%
%TO.N,Board_47-Net-(J13-Pad1)*%
X102378318Y-76819580D03*
%TD*%
%TO.P,J26,1,Pin_1*%
%TO.N,Board_59-Net-(J13-Pad1)*%
X54378318Y-100819580D03*
%TD*%
%TO.P,J13,1,Pin_1*%
%TO.N,Board_57-Net-(J13-Pad1)*%
X34878318Y-105869580D03*
%TD*%
%TO.P,J12,1,Pin_1*%
%TO.N,Board_4-Net-(J13-Pad1)*%
X70878318Y-19119580D03*
%TD*%
%TO.P,J16,1,Pin_1*%
%TO.N,Board_55-Net-(J13-Pad1)*%
X102118318Y-91129580D03*
%TD*%
%TO.P,J24,1,Pin_1*%
%TO.N,Board_44-Net-(J13-Pad1)*%
X66378318Y-84179580D03*
%TD*%
%TO.P,J13,1,Pin_1*%
%TO.N,Board_47-Net-(J13-Pad1)*%
X106878318Y-81869580D03*
%TD*%
%TO.P,J25,1,Pin_1*%
%TO.N,Board_63-Net-(J13-Pad1)*%
X100248318Y-104499580D03*
%TD*%
%TO.P,J23,1,Pin_1*%
%TO.N,Board_56-Net-(J13-Pad1)*%
X22628318Y-108179580D03*
%TD*%
%TO.P,J25,1,Pin_1*%
%TO.N,Board_33-Net-(J13-Pad1)*%
X28248318Y-68499580D03*
%TD*%
%TO.P,J26,1,Pin_1*%
%TO.N,Board_33-Net-(J13-Pad1)*%
X30378318Y-64819580D03*
%TD*%
%TO.P,J14,1,Pin_1*%
%TO.N,Board_56-Net-(J13-Pad1)*%
X20498318Y-107249580D03*
%TD*%
%TO.P,J22,1,Pin_1*%
%TO.N,Board_11-Net-(J13-Pad1)*%
X60748318Y-32499580D03*
%TD*%
%TO.P,J11,1,Pin_1*%
%TO.N,Board_35-Net-(J13-Pad1)*%
X56498318Y-65749580D03*
%TD*%
%TO.P,J14,1,Pin_1*%
%TO.N,Board_15-Net-(J13-Pad1)*%
X104498318Y-35249580D03*
%TD*%
%TO.P,J22,1,Pin_1*%
%TO.N,Board_14-Net-(J13-Pad1)*%
X96748318Y-32499580D03*
%TD*%
%TO.P,J24,1,Pin_1*%
%TO.N,Board_26-Net-(J13-Pad1)*%
X42378318Y-60179580D03*
%TD*%
%TO.P,J24,1,Pin_1*%
%TO.N,Board_0-Net-(J13-Pad1)*%
X18378318Y-24179580D03*
%TD*%
%TO.P,J21,1,Pin_1*%
%TO.N,Board_41-Net-(J13-Pad1)*%
X34608318Y-76809580D03*
%TD*%
%TO.P,J13,1,Pin_1*%
%TO.N,Board_38-Net-(J13-Pad1)*%
X94878318Y-69869580D03*
%TD*%
%TO.P,J15,1,Pin_1*%
%TO.N,Board_46-Net-(J13-Pad1)*%
X90118318Y-81869580D03*
%TD*%
%TO.P,J21,1,Pin_1*%
%TO.N,Board_43-Net-(J13-Pad1)*%
X58608318Y-76809580D03*
%TD*%
%TO.P,J22,1,Pin_1*%
%TO.N,Board_19-Net-(J13-Pad1)*%
X60748318Y-44499580D03*
%TD*%
%TO.P,J24,1,Pin_1*%
%TO.N,Board_43-Net-(J13-Pad1)*%
X54378318Y-84179580D03*
%TD*%
%TO.P,J14,1,Pin_1*%
%TO.N,Board_51-Net-(J13-Pad1)*%
X56498318Y-95249580D03*
%TD*%
%TO.P,J25,1,Pin_1*%
%TO.N,Board_57-Net-(J13-Pad1)*%
X28248318Y-104499580D03*
%TD*%
%TO.P,J23,1,Pin_1*%
%TO.N,Board_6-Net-(J13-Pad1)*%
X94628318Y-24179580D03*
%TD*%
%TO.P,J22,1,Pin_1*%
%TO.N,Board_20-Net-(J13-Pad1)*%
X72748318Y-44499580D03*
%TD*%
%TO.P,J12,1,Pin_1*%
%TO.N,Board_44-Net-(J13-Pad1)*%
X70878318Y-79119580D03*
%TD*%
%TO.P,J16,1,Pin_1*%
%TO.N,Board_31-Net-(J13-Pad1)*%
X102118318Y-55129580D03*
%TD*%
%TO.P,J24,1,Pin_1*%
%TO.N,Board_19-Net-(J13-Pad1)*%
X54378318Y-48179580D03*
%TD*%
%TO.P,J23,1,Pin_1*%
%TO.N,Board_32-Net-(J13-Pad1)*%
X22628318Y-72179580D03*
%TD*%
D11*
%TO.P,J0,1,Pin_1*%
%TO.N,Board_52-Net-(J13-Pad1)*%
X68498318Y-92499580D03*
%TD*%
D10*
%TO.P,J14,1,Pin_1*%
%TO.N,Board_62-Net-(J13-Pad1)*%
X92498318Y-107249580D03*
%TD*%
%TO.P,J26,1,Pin_1*%
%TO.N,Board_45-Net-(J13-Pad1)*%
X78378318Y-76819580D03*
%TD*%
%TO.P,J15,1,Pin_1*%
%TO.N,Board_47-Net-(J13-Pad1)*%
X102118318Y-81869580D03*
%TD*%
%TO.P,J12,1,Pin_1*%
%TO.N,Board_34-Net-(J13-Pad1)*%
X46878318Y-67119580D03*
%TD*%
%TO.P,J15,1,Pin_1*%
%TO.N,Board_23-Net-(J13-Pad1)*%
X102118318Y-45869580D03*
%TD*%
%TO.P,J14,1,Pin_1*%
%TO.N,Board_54-Net-(J13-Pad1)*%
X92498318Y-95249580D03*
%TD*%
%TO.P,J23,1,Pin_1*%
%TO.N,Board_7-Net-(J13-Pad1)*%
X106628318Y-24179580D03*
%TD*%
%TO.P,J11,1,Pin_1*%
%TO.N,Board_0-Net-(J13-Pad1)*%
X20498318Y-17749580D03*
%TD*%
%TO.P,J24,1,Pin_1*%
%TO.N,Board_2-Net-(J13-Pad1)*%
X42378318Y-24179580D03*
%TD*%
%TO.P,J22,1,Pin_1*%
%TO.N,Board_31-Net-(J13-Pad1)*%
X108748318Y-56499580D03*
%TD*%
%TO.P,J14,1,Pin_1*%
%TO.N,Board_12-Net-(J13-Pad1)*%
X68498318Y-35249580D03*
%TD*%
%TO.P,J12,1,Pin_1*%
%TO.N,Board_2-Net-(J13-Pad1)*%
X46878318Y-19119580D03*
%TD*%
%TO.P,J21,1,Pin_1*%
%TO.N,Board_24-Net-(J13-Pad1)*%
X22608318Y-52809580D03*
%TD*%
%TO.P,J16,1,Pin_1*%
%TO.N,Board_49-Net-(J13-Pad1)*%
X30118318Y-91129580D03*
%TD*%
%TO.P,J21,1,Pin_1*%
%TO.N,Board_31-Net-(J13-Pad1)*%
X106608318Y-52809580D03*
%TD*%
%TO.P,J15,1,Pin_1*%
%TO.N,Board_36-Net-(J13-Pad1)*%
X66118318Y-69869580D03*
%TD*%
%TO.P,J22,1,Pin_1*%
%TO.N,Board_16-Net-(J13-Pad1)*%
X24748318Y-44499580D03*
%TD*%
%TO.P,J16,1,Pin_1*%
%TO.N,Board_52-Net-(J13-Pad1)*%
X66118318Y-91129580D03*
%TD*%
%TO.P,J11,1,Pin_1*%
%TO.N,Board_3-Net-(J13-Pad1)*%
X56498318Y-17749580D03*
%TD*%
%TO.P,J13,1,Pin_1*%
%TO.N,Board_59-Net-(J13-Pad1)*%
X58878318Y-105869580D03*
%TD*%
%TO.P,J13,1,Pin_1*%
%TO.N,Board_49-Net-(J13-Pad1)*%
X34878318Y-93869580D03*
%TD*%
%TO.P,J15,1,Pin_1*%
%TO.N,Board_10-Net-(J13-Pad1)*%
X42118318Y-33869580D03*
%TD*%
%TO.P,J25,1,Pin_1*%
%TO.N,Board_18-Net-(J13-Pad1)*%
X40248318Y-44499580D03*
%TD*%
%TO.P,J15,1,Pin_1*%
%TO.N,Board_3-Net-(J13-Pad1)*%
X54118318Y-21869580D03*
%TD*%
%TO.P,J13,1,Pin_1*%
%TO.N,Board_18-Net-(J13-Pad1)*%
X46878318Y-45869580D03*
%TD*%
%TO.P,J25,1,Pin_1*%
%TO.N,Board_12-Net-(J13-Pad1)*%
X64248318Y-32499580D03*
%TD*%
%TO.P,J26,1,Pin_1*%
%TO.N,Board_50-Net-(J13-Pad1)*%
X42378318Y-88819580D03*
%TD*%
%TO.P,J16,1,Pin_1*%
%TO.N,Board_25-Net-(J13-Pad1)*%
X30118318Y-55129580D03*
%TD*%
%TO.P,J11,1,Pin_1*%
%TO.N,Board_18-Net-(J13-Pad1)*%
X44498318Y-41749580D03*
%TD*%
%TO.P,J14,1,Pin_1*%
%TO.N,Board_46-Net-(J13-Pad1)*%
X92498318Y-83249580D03*
%TD*%
%TO.P,J15,1,Pin_1*%
%TO.N,Board_17-Net-(J13-Pad1)*%
X30118318Y-45869580D03*
%TD*%
%TO.P,J13,1,Pin_1*%
%TO.N,Board_40-Net-(J13-Pad1)*%
X22878318Y-81869580D03*
%TD*%
%TO.P,J12,1,Pin_1*%
%TO.N,Board_45-Net-(J13-Pad1)*%
X82878318Y-79119580D03*
%TD*%
%TO.P,J12,1,Pin_1*%
%TO.N,Board_36-Net-(J13-Pad1)*%
X70878318Y-67119580D03*
%TD*%
D11*
%TO.P,J0,1,Pin_1*%
%TO.N,Board_59-Net-(J13-Pad1)*%
X56498318Y-104499580D03*
%TD*%
D10*
%TO.P,J15,1,Pin_1*%
%TO.N,Board_61-Net-(J13-Pad1)*%
X78118318Y-105869580D03*
%TD*%
%TO.P,J25,1,Pin_1*%
%TO.N,Board_20-Net-(J13-Pad1)*%
X64248318Y-44499580D03*
%TD*%
%TO.P,J15,1,Pin_1*%
%TO.N,Board_7-Net-(J13-Pad1)*%
X102118318Y-21869580D03*
%TD*%
%TO.P,J14,1,Pin_1*%
%TO.N,Board_23-Net-(J13-Pad1)*%
X104498318Y-47249580D03*
%TD*%
%TO.P,J13,1,Pin_1*%
%TO.N,Board_16-Net-(J13-Pad1)*%
X22878318Y-45869580D03*
%TD*%
%TO.P,J15,1,Pin_1*%
%TO.N,Board_20-Net-(J13-Pad1)*%
X66118318Y-45869580D03*
%TD*%
%TO.P,J13,1,Pin_1*%
%TO.N,Board_54-Net-(J13-Pad1)*%
X94878318Y-93869580D03*
%TD*%
%TO.P,J25,1,Pin_1*%
%TO.N,Board_59-Net-(J13-Pad1)*%
X52248318Y-104499580D03*
%TD*%
%TO.P,J23,1,Pin_1*%
%TO.N,Board_48-Net-(J13-Pad1)*%
X22628318Y-96179580D03*
%TD*%
%TO.P,J15,1,Pin_1*%
%TO.N,Board_55-Net-(J13-Pad1)*%
X102118318Y-93869580D03*
%TD*%
%TO.P,J14,1,Pin_1*%
%TO.N,Board_35-Net-(J13-Pad1)*%
X56498318Y-71249580D03*
%TD*%
D11*
%TO.P,J0,1,Pin_1*%
%TO.N,Board_22-Net-(J13-Pad1)*%
X92498318Y-44499580D03*
%TD*%
%TO.P,J0,1,Pin_1*%
%TO.N,Board_44-Net-(J13-Pad1)*%
X68498318Y-80499580D03*
%TD*%
D10*
%TO.P,J23,1,Pin_1*%
%TO.N,Board_10-Net-(J13-Pad1)*%
X46628318Y-36179580D03*
%TD*%
%TO.P,J25,1,Pin_1*%
%TO.N,Board_10-Net-(J13-Pad1)*%
X40248318Y-32499580D03*
%TD*%
%TO.P,J13,1,Pin_1*%
%TO.N,Board_25-Net-(J13-Pad1)*%
X34878318Y-57869580D03*
%TD*%
%TO.P,J26,1,Pin_1*%
%TO.N,Board_30-Net-(J13-Pad1)*%
X90378318Y-52819580D03*
%TD*%
%TO.P,J23,1,Pin_1*%
%TO.N,Board_47-Net-(J13-Pad1)*%
X106628318Y-84179580D03*
%TD*%
%TO.P,J21,1,Pin_1*%
%TO.N,Board_1-Net-(J13-Pad1)*%
X34608318Y-16809580D03*
%TD*%
%TO.P,J22,1,Pin_1*%
%TO.N,Board_45-Net-(J13-Pad1)*%
X84748318Y-80499580D03*
%TD*%
D11*
%TO.P,J0,1,Pin_1*%
%TO.N,Board_56-Net-(J13-Pad1)*%
X20498318Y-104499580D03*
%TD*%
D10*
%TO.P,J21,1,Pin_1*%
%TO.N,Board_21-Net-(J13-Pad1)*%
X82608318Y-40809580D03*
%TD*%
%TO.P,J16,1,Pin_1*%
%TO.N,Board_1-Net-(J13-Pad1)*%
X30118318Y-19129580D03*
%TD*%
%TO.P,J11,1,Pin_1*%
%TO.N,Board_59-Net-(J13-Pad1)*%
X56498318Y-101749580D03*
%TD*%
%TO.P,J14,1,Pin_1*%
%TO.N,Board_14-Net-(J13-Pad1)*%
X92498318Y-35249580D03*
%TD*%
%TO.P,J22,1,Pin_1*%
%TO.N,Board_37-Net-(J13-Pad1)*%
X84748318Y-68499580D03*
%TD*%
%TO.P,J14,1,Pin_1*%
%TO.N,Board_59-Net-(J13-Pad1)*%
X56498318Y-107249580D03*
%TD*%
%TO.P,J23,1,Pin_1*%
%TO.N,Board_59-Net-(J13-Pad1)*%
X58628318Y-108179580D03*
%TD*%
D11*
%TO.P,J0,1,Pin_1*%
%TO.N,Board_50-Net-(J13-Pad1)*%
X44498318Y-92499580D03*
%TD*%
D10*
%TO.P,J16,1,Pin_1*%
%TO.N,Board_29-Net-(J13-Pad1)*%
X78118318Y-55129580D03*
%TD*%
%TO.P,J22,1,Pin_1*%
%TO.N,Board_41-Net-(J13-Pad1)*%
X36748318Y-80499580D03*
%TD*%
%TO.P,J23,1,Pin_1*%
%TO.N,Board_3-Net-(J13-Pad1)*%
X58628318Y-24179580D03*
%TD*%
D11*
%TO.P,J0,1,Pin_1*%
%TO.N,Board_0-Net-(J13-Pad1)*%
X20498318Y-20499580D03*
%TD*%
D10*
%TO.P,J25,1,Pin_1*%
%TO.N,Board_44-Net-(J13-Pad1)*%
X64248318Y-80499580D03*
%TD*%
%TO.P,J24,1,Pin_1*%
%TO.N,Board_24-Net-(J13-Pad1)*%
X18378318Y-60179580D03*
%TD*%
%TO.P,J13,1,Pin_1*%
%TO.N,Board_4-Net-(J13-Pad1)*%
X70878318Y-21869580D03*
%TD*%
D11*
%TO.P,J0,1,Pin_1*%
%TO.N,Board_25-Net-(J13-Pad1)*%
X32498318Y-56499580D03*
%TD*%
D10*
%TO.P,J14,1,Pin_1*%
%TO.N,Board_5-Net-(J13-Pad1)*%
X80498318Y-23249580D03*
%TD*%
%TO.P,J21,1,Pin_1*%
%TO.N,Board_29-Net-(J13-Pad1)*%
X82608318Y-52809580D03*
%TD*%
%TO.P,J12,1,Pin_1*%
%TO.N,Board_62-Net-(J13-Pad1)*%
X94878318Y-103119580D03*
%TD*%
%TO.P,J26,1,Pin_1*%
%TO.N,Board_12-Net-(J13-Pad1)*%
X66378318Y-28819580D03*
%TD*%
%TO.P,J22,1,Pin_1*%
%TO.N,Board_38-Net-(J13-Pad1)*%
X96748318Y-68499580D03*
%TD*%
%TO.P,J13,1,Pin_1*%
%TO.N,Board_0-Net-(J13-Pad1)*%
X22878318Y-21869580D03*
%TD*%
%TO.P,J25,1,Pin_1*%
%TO.N,Board_6-Net-(J13-Pad1)*%
X88248318Y-20499580D03*
%TD*%
%TO.P,J24,1,Pin_1*%
%TO.N,Board_13-Net-(J13-Pad1)*%
X78378318Y-36179580D03*
%TD*%
%TO.P,J23,1,Pin_1*%
%TO.N,Board_36-Net-(J13-Pad1)*%
X70628318Y-72179580D03*
%TD*%
D11*
%TO.P,J0,1,Pin_1*%
%TO.N,Board_13-Net-(J13-Pad1)*%
X80498318Y-32499580D03*
%TD*%
%TO.P,J0,1,Pin_1*%
%TO.N,Board_2-Net-(J13-Pad1)*%
X44498318Y-20499580D03*
%TD*%
D10*
%TO.P,J13,1,Pin_1*%
%TO.N,Board_14-Net-(J13-Pad1)*%
X94878318Y-33869580D03*
%TD*%
%TO.P,J26,1,Pin_1*%
%TO.N,Board_52-Net-(J13-Pad1)*%
X66378318Y-88819580D03*
%TD*%
%TO.P,J13,1,Pin_1*%
%TO.N,Board_41-Net-(J13-Pad1)*%
X34878318Y-81869580D03*
%TD*%
%TO.P,J25,1,Pin_1*%
%TO.N,Board_17-Net-(J13-Pad1)*%
X28248318Y-44499580D03*
%TD*%
%TO.P,J11,1,Pin_1*%
%TO.N,Board_34-Net-(J13-Pad1)*%
X44498318Y-65749580D03*
%TD*%
%TO.P,J13,1,Pin_1*%
%TO.N,Board_29-Net-(J13-Pad1)*%
X82878318Y-57869580D03*
%TD*%
%TO.P,J26,1,Pin_1*%
%TO.N,Board_60-Net-(J13-Pad1)*%
X66378318Y-100819580D03*
%TD*%
%TO.P,J23,1,Pin_1*%
%TO.N,Board_39-Net-(J13-Pad1)*%
X106628318Y-72179580D03*
%TD*%
%TO.P,J12,1,Pin_1*%
%TO.N,Board_57-Net-(J13-Pad1)*%
X34878318Y-103119580D03*
%TD*%
%TO.P,J16,1,Pin_1*%
%TO.N,Board_8-Net-(J13-Pad1)*%
X18118318Y-31129580D03*
%TD*%
%TO.P,J25,1,Pin_1*%
%TO.N,Board_53-Net-(J13-Pad1)*%
X76248318Y-92499580D03*
%TD*%
%TO.P,J11,1,Pin_1*%
%TO.N,Board_19-Net-(J13-Pad1)*%
X56498318Y-41749580D03*
%TD*%
%TO.P,J15,1,Pin_1*%
%TO.N,Board_25-Net-(J13-Pad1)*%
X30118318Y-57869580D03*
%TD*%
%TO.P,J14,1,Pin_1*%
%TO.N,Board_21-Net-(J13-Pad1)*%
X80498318Y-47249580D03*
%TD*%
%TO.P,J11,1,Pin_1*%
%TO.N,Board_16-Net-(J13-Pad1)*%
X20498318Y-41749580D03*
%TD*%
%TO.P,J22,1,Pin_1*%
%TO.N,Board_10-Net-(J13-Pad1)*%
X48748318Y-32499580D03*
%TD*%
%TO.P,J15,1,Pin_1*%
%TO.N,Board_11-Net-(J13-Pad1)*%
X54118318Y-33869580D03*
%TD*%
D11*
%TO.P,J0,1,Pin_1*%
%TO.N,Board_15-Net-(J13-Pad1)*%
X104498318Y-32499580D03*
%TD*%
D10*
%TO.P,J12,1,Pin_1*%
%TO.N,Board_21-Net-(J13-Pad1)*%
X82878318Y-43119580D03*
%TD*%
%TO.P,J22,1,Pin_1*%
%TO.N,Board_7-Net-(J13-Pad1)*%
X108748318Y-20499580D03*
%TD*%
%TO.P,J12,1,Pin_1*%
%TO.N,Board_43-Net-(J13-Pad1)*%
X58878318Y-79119580D03*
%TD*%
%TO.P,J11,1,Pin_1*%
%TO.N,Board_36-Net-(J13-Pad1)*%
X68498318Y-65749580D03*
%TD*%
%TO.P,J21,1,Pin_1*%
%TO.N,Board_22-Net-(J13-Pad1)*%
X94608318Y-40809580D03*
%TD*%
%TO.P,J11,1,Pin_1*%
%TO.N,Board_54-Net-(J13-Pad1)*%
X92498318Y-89749580D03*
%TD*%
%TO.P,J12,1,Pin_1*%
%TO.N,Board_63-Net-(J13-Pad1)*%
X106878318Y-103119580D03*
%TD*%
%TO.P,J25,1,Pin_1*%
%TO.N,Board_46-Net-(J13-Pad1)*%
X88248318Y-80499580D03*
%TD*%
%TO.P,J14,1,Pin_1*%
%TO.N,Board_41-Net-(J13-Pad1)*%
X32498318Y-83249580D03*
%TD*%
%TO.P,J23,1,Pin_1*%
%TO.N,Board_46-Net-(J13-Pad1)*%
X94628318Y-84179580D03*
%TD*%
D11*
%TO.P,J0,1,Pin_1*%
%TO.N,Board_45-Net-(J13-Pad1)*%
X80498318Y-80499580D03*
%TD*%
D10*
%TO.P,J12,1,Pin_1*%
%TO.N,Board_28-Net-(J13-Pad1)*%
X70878318Y-55119580D03*
%TD*%
%TO.P,J12,1,Pin_1*%
%TO.N,Board_9-Net-(J13-Pad1)*%
X34878318Y-31119580D03*
%TD*%
%TO.P,J11,1,Pin_1*%
%TO.N,Board_45-Net-(J13-Pad1)*%
X80498318Y-77749580D03*
%TD*%
%TO.P,J26,1,Pin_1*%
%TO.N,Board_39-Net-(J13-Pad1)*%
X102378318Y-64819580D03*
%TD*%
%TO.P,J26,1,Pin_1*%
%TO.N,Board_51-Net-(J13-Pad1)*%
X54378318Y-88819580D03*
%TD*%
%TO.P,J11,1,Pin_1*%
%TO.N,Board_60-Net-(J13-Pad1)*%
X68498318Y-101749580D03*
%TD*%
%TO.P,J14,1,Pin_1*%
%TO.N,Board_19-Net-(J13-Pad1)*%
X56498318Y-47249580D03*
%TD*%
%TO.P,J24,1,Pin_1*%
%TO.N,Board_6-Net-(J13-Pad1)*%
X90378318Y-24179580D03*
%TD*%
%TO.P,J22,1,Pin_1*%
%TO.N,Board_49-Net-(J13-Pad1)*%
X36748318Y-92499580D03*
%TD*%
%TO.P,J11,1,Pin_1*%
%TO.N,Board_43-Net-(J13-Pad1)*%
X56498318Y-77749580D03*
%TD*%
%TO.P,J12,1,Pin_1*%
%TO.N,Board_35-Net-(J13-Pad1)*%
X58878318Y-67119580D03*
%TD*%
%TO.P,J11,1,Pin_1*%
%TO.N,Board_50-Net-(J13-Pad1)*%
X44498318Y-89749580D03*
%TD*%
%TO.P,J25,1,Pin_1*%
%TO.N,Board_7-Net-(J13-Pad1)*%
X100248318Y-20499580D03*
%TD*%
D11*
%TO.P,J0,1,Pin_1*%
%TO.N,Board_28-Net-(J13-Pad1)*%
X68498318Y-56499580D03*
%TD*%
D10*
%TO.P,J14,1,Pin_1*%
%TO.N,Board_44-Net-(J13-Pad1)*%
X68498318Y-83249580D03*
%TD*%
%TO.P,J11,1,Pin_1*%
%TO.N,Board_1-Net-(J13-Pad1)*%
X32498318Y-17749580D03*
%TD*%
%TO.P,J14,1,Pin_1*%
%TO.N,Board_3-Net-(J13-Pad1)*%
X56498318Y-23249580D03*
%TD*%
%TO.P,J21,1,Pin_1*%
%TO.N,Board_47-Net-(J13-Pad1)*%
X106608318Y-76809580D03*
%TD*%
%TO.P,J25,1,Pin_1*%
%TO.N,Board_52-Net-(J13-Pad1)*%
X64248318Y-92499580D03*
%TD*%
%TO.P,J13,1,Pin_1*%
%TO.N,Board_44-Net-(J13-Pad1)*%
X70878318Y-81869580D03*
%TD*%
%TO.P,J24,1,Pin_1*%
%TO.N,Board_31-Net-(J13-Pad1)*%
X102378318Y-60179580D03*
%TD*%
%TO.P,J23,1,Pin_1*%
%TO.N,Board_33-Net-(J13-Pad1)*%
X34628318Y-72179580D03*
%TD*%
%TO.P,J13,1,Pin_1*%
%TO.N,Board_50-Net-(J13-Pad1)*%
X46878318Y-93869580D03*
%TD*%
%TO.P,J11,1,Pin_1*%
%TO.N,Board_61-Net-(J13-Pad1)*%
X80498318Y-101749580D03*
%TD*%
%TO.P,J14,1,Pin_1*%
%TO.N,Board_52-Net-(J13-Pad1)*%
X68498318Y-95249580D03*
%TD*%
%TO.P,J24,1,Pin_1*%
%TO.N,Board_21-Net-(J13-Pad1)*%
X78378318Y-48179580D03*
%TD*%
%TO.P,J23,1,Pin_1*%
%TO.N,Board_40-Net-(J13-Pad1)*%
X22628318Y-84179580D03*
%TD*%
%TO.P,J21,1,Pin_1*%
%TO.N,Board_62-Net-(J13-Pad1)*%
X94608318Y-100809580D03*
%TD*%
%TO.P,J12,1,Pin_1*%
%TO.N,Board_13-Net-(J13-Pad1)*%
X82878318Y-31119580D03*
%TD*%
%TO.P,J12,1,Pin_1*%
%TO.N,Board_39-Net-(J13-Pad1)*%
X106878318Y-67119580D03*
%TD*%
%TO.P,J23,1,Pin_1*%
%TO.N,Board_22-Net-(J13-Pad1)*%
X94628318Y-48179580D03*
%TD*%
%TO.P,J22,1,Pin_1*%
%TO.N,Board_60-Net-(J13-Pad1)*%
X72748318Y-104499580D03*
%TD*%
%TO.P,J25,1,Pin_1*%
%TO.N,Board_8-Net-(J13-Pad1)*%
X16248318Y-32499580D03*
%TD*%
%TO.P,J21,1,Pin_1*%
%TO.N,Board_2-Net-(J13-Pad1)*%
X46608318Y-16809580D03*
%TD*%
%TO.P,J21,1,Pin_1*%
%TO.N,Board_16-Net-(J13-Pad1)*%
X22608318Y-40809580D03*
%TD*%
%TO.P,J11,1,Pin_1*%
%TO.N,Board_21-Net-(J13-Pad1)*%
X80498318Y-41749580D03*
%TD*%
%TO.P,J26,1,Pin_1*%
%TO.N,Board_43-Net-(J13-Pad1)*%
X54378318Y-76819580D03*
%TD*%
D11*
%TO.P,J0,1,Pin_1*%
%TO.N,Board_43-Net-(J13-Pad1)*%
X56498318Y-80499580D03*
%TD*%
D10*
%TO.P,J12,1,Pin_1*%
%TO.N,Board_60-Net-(J13-Pad1)*%
X70878318Y-103119580D03*
%TD*%
%TO.P,J23,1,Pin_1*%
%TO.N,Board_45-Net-(J13-Pad1)*%
X82628318Y-84179580D03*
%TD*%
%TO.P,J12,1,Pin_1*%
%TO.N,Board_48-Net-(J13-Pad1)*%
X22878318Y-91119580D03*
%TD*%
%TO.P,J24,1,Pin_1*%
%TO.N,Board_15-Net-(J13-Pad1)*%
X102378318Y-36179580D03*
%TD*%
%TO.P,J21,1,Pin_1*%
%TO.N,Board_26-Net-(J13-Pad1)*%
X46608318Y-52809580D03*
%TD*%
%TO.P,J24,1,Pin_1*%
%TO.N,Board_34-Net-(J13-Pad1)*%
X42378318Y-72179580D03*
%TD*%
%TO.P,J15,1,Pin_1*%
%TO.N,Board_12-Net-(J13-Pad1)*%
X66118318Y-33869580D03*
%TD*%
%TO.P,J22,1,Pin_1*%
%TO.N,Board_56-Net-(J13-Pad1)*%
X24748318Y-104499580D03*
%TD*%
%TO.P,J13,1,Pin_1*%
%TO.N,Board_63-Net-(J13-Pad1)*%
X106878318Y-105869580D03*
%TD*%
%TO.P,J26,1,Pin_1*%
%TO.N,Board_17-Net-(J13-Pad1)*%
X30378318Y-40819580D03*
%TD*%
%TO.P,J22,1,Pin_1*%
%TO.N,Board_2-Net-(J13-Pad1)*%
X48748318Y-20499580D03*
%TD*%
%TO.P,J26,1,Pin_1*%
%TO.N,Board_28-Net-(J13-Pad1)*%
X66378318Y-52819580D03*
%TD*%
%TO.P,J15,1,Pin_1*%
%TO.N,Board_34-Net-(J13-Pad1)*%
X42118318Y-69869580D03*
%TD*%
%TO.P,J11,1,Pin_1*%
%TO.N,Board_24-Net-(J13-Pad1)*%
X20498318Y-53749580D03*
%TD*%
%TO.P,J13,1,Pin_1*%
%TO.N,Board_46-Net-(J13-Pad1)*%
X94878318Y-81869580D03*
%TD*%
%TO.P,J16,1,Pin_1*%
%TO.N,Board_18-Net-(J13-Pad1)*%
X42118318Y-43129580D03*
%TD*%
%TO.P,J24,1,Pin_1*%
%TO.N,Board_36-Net-(J13-Pad1)*%
X66378318Y-72179580D03*
%TD*%
%TO.P,J11,1,Pin_1*%
%TO.N,Board_47-Net-(J13-Pad1)*%
X104498318Y-77749580D03*
%TD*%
%TO.P,J25,1,Pin_1*%
%TO.N,Board_37-Net-(J13-Pad1)*%
X76248318Y-68499580D03*
%TD*%
%TO.P,J24,1,Pin_1*%
%TO.N,Board_63-Net-(J13-Pad1)*%
X102378318Y-108179580D03*
%TD*%
D11*
%TO.P,J0,1,Pin_1*%
%TO.N,Board_8-Net-(J13-Pad1)*%
X20498318Y-32499580D03*
%TD*%
D10*
%TO.P,J11,1,Pin_1*%
%TO.N,Board_58-Net-(J13-Pad1)*%
X44498318Y-101749580D03*
%TD*%
%TO.P,J25,1,Pin_1*%
%TO.N,Board_21-Net-(J13-Pad1)*%
X76248318Y-44499580D03*
%TD*%
%TO.P,J23,1,Pin_1*%
%TO.N,Board_62-Net-(J13-Pad1)*%
X94628318Y-108179580D03*
%TD*%
%TO.P,J13,1,Pin_1*%
%TO.N,Board_20-Net-(J13-Pad1)*%
X70878318Y-45869580D03*
%TD*%
D11*
%TO.P,J0,1,Pin_1*%
%TO.N,Board_30-Net-(J13-Pad1)*%
X92498318Y-56499580D03*
%TD*%
D10*
%TO.P,J14,1,Pin_1*%
%TO.N,Board_31-Net-(J13-Pad1)*%
X104498318Y-59249580D03*
%TD*%
%TO.P,J15,1,Pin_1*%
%TO.N,Board_37-Net-(J13-Pad1)*%
X78118318Y-69869580D03*
%TD*%
%TO.P,J21,1,Pin_1*%
%TO.N,Board_3-Net-(J13-Pad1)*%
X58608318Y-16809580D03*
%TD*%
%TO.P,J12,1,Pin_1*%
%TO.N,Board_25-Net-(J13-Pad1)*%
X34878318Y-55119580D03*
%TD*%
%TO.P,J24,1,Pin_1*%
%TO.N,Board_20-Net-(J13-Pad1)*%
X66378318Y-48179580D03*
%TD*%
%TO.P,J16,1,Pin_1*%
%TO.N,Board_44-Net-(J13-Pad1)*%
X66118318Y-79129580D03*
%TD*%
%TO.P,J16,1,Pin_1*%
%TO.N,Board_45-Net-(J13-Pad1)*%
X78118318Y-79129580D03*
%TD*%
%TO.P,J25,1,Pin_1*%
%TO.N,Board_55-Net-(J13-Pad1)*%
X100248318Y-92499580D03*
%TD*%
D11*
%TO.P,J0,1,Pin_1*%
%TO.N,Board_39-Net-(J13-Pad1)*%
X104498318Y-68499580D03*
%TD*%
D10*
%TO.P,J13,1,Pin_1*%
%TO.N,Board_11-Net-(J13-Pad1)*%
X58878318Y-33869580D03*
%TD*%
%TO.P,J23,1,Pin_1*%
%TO.N,Board_49-Net-(J13-Pad1)*%
X34628318Y-96179580D03*
%TD*%
%TO.P,J22,1,Pin_1*%
%TO.N,Board_48-Net-(J13-Pad1)*%
X24748318Y-92499580D03*
%TD*%
%TO.P,J11,1,Pin_1*%
%TO.N,Board_41-Net-(J13-Pad1)*%
X32498318Y-77749580D03*
%TD*%
%TO.P,J24,1,Pin_1*%
%TO.N,Board_58-Net-(J13-Pad1)*%
X42378318Y-108179580D03*
%TD*%
%TO.P,J24,1,Pin_1*%
%TO.N,Board_28-Net-(J13-Pad1)*%
X66378318Y-60179580D03*
%TD*%
%TO.P,J21,1,Pin_1*%
%TO.N,Board_23-Net-(J13-Pad1)*%
X106608318Y-40809580D03*
%TD*%
D11*
%TO.P,J0,1,Pin_1*%
%TO.N,Board_18-Net-(J13-Pad1)*%
X44498318Y-44499580D03*
%TD*%
D10*
%TO.P,J16,1,Pin_1*%
%TO.N,Board_13-Net-(J13-Pad1)*%
X78118318Y-31129580D03*
%TD*%
%TO.P,J14,1,Pin_1*%
%TO.N,Board_22-Net-(J13-Pad1)*%
X92498318Y-47249580D03*
%TD*%
%TO.P,J11,1,Pin_1*%
%TO.N,Board_29-Net-(J13-Pad1)*%
X80498318Y-53749580D03*
%TD*%
%TO.P,J13,1,Pin_1*%
%TO.N,Board_56-Net-(J13-Pad1)*%
X22878318Y-105869580D03*
%TD*%
%TO.P,J13,1,Pin_1*%
%TO.N,Board_10-Net-(J13-Pad1)*%
X46878318Y-33869580D03*
%TD*%
D11*
%TO.P,J0,1,Pin_1*%
%TO.N,Board_20-Net-(J13-Pad1)*%
X68498318Y-44499580D03*
%TD*%
D10*
%TO.P,J26,1,Pin_1*%
%TO.N,Board_25-Net-(J13-Pad1)*%
X30378318Y-52819580D03*
%TD*%
%TO.P,J11,1,Pin_1*%
%TO.N,Board_22-Net-(J13-Pad1)*%
X92498318Y-41749580D03*
%TD*%
%TO.P,J12,1,Pin_1*%
%TO.N,Board_20-Net-(J13-Pad1)*%
X70878318Y-43119580D03*
%TD*%
%TO.P,J16,1,Pin_1*%
%TO.N,Board_22-Net-(J13-Pad1)*%
X90118318Y-43129580D03*
%TD*%
%TO.P,J21,1,Pin_1*%
%TO.N,Board_25-Net-(J13-Pad1)*%
X34608318Y-52809580D03*
%TD*%
D11*
%TO.P,J0,1,Pin_1*%
%TO.N,Board_3-Net-(J13-Pad1)*%
X56498318Y-20499580D03*
%TD*%
D10*
%TO.P,J11,1,Pin_1*%
%TO.N,Board_2-Net-(J13-Pad1)*%
X44498318Y-17749580D03*
%TD*%
%TO.P,J11,1,Pin_1*%
%TO.N,Board_63-Net-(J13-Pad1)*%
X104498318Y-101749580D03*
%TD*%
D11*
%TO.P,J0,1,Pin_1*%
%TO.N,Board_1-Net-(J13-Pad1)*%
X32498318Y-20499580D03*
%TD*%
D10*
%TO.P,J13,1,Pin_1*%
%TO.N,Board_15-Net-(J13-Pad1)*%
X106878318Y-33869580D03*
%TD*%
%TO.P,J22,1,Pin_1*%
%TO.N,Board_24-Net-(J13-Pad1)*%
X24748318Y-56499580D03*
%TD*%
%TO.P,J16,1,Pin_1*%
%TO.N,Board_30-Net-(J13-Pad1)*%
X90118318Y-55129580D03*
%TD*%
%TO.P,J21,1,Pin_1*%
%TO.N,Board_6-Net-(J13-Pad1)*%
X94608318Y-16809580D03*
%TD*%
%TO.P,J16,1,Pin_1*%
%TO.N,Board_48-Net-(J13-Pad1)*%
X18118318Y-91129580D03*
%TD*%
%TO.P,J22,1,Pin_1*%
%TO.N,Board_6-Net-(J13-Pad1)*%
X96748318Y-20499580D03*
%TD*%
%TO.P,J13,1,Pin_1*%
%TO.N,Board_23-Net-(J13-Pad1)*%
X106878318Y-45869580D03*
%TD*%
%TO.P,J23,1,Pin_1*%
%TO.N,Board_37-Net-(J13-Pad1)*%
X82628318Y-72179580D03*
%TD*%
%TO.P,J26,1,Pin_1*%
%TO.N,Board_15-Net-(J13-Pad1)*%
X102378318Y-28819580D03*
%TD*%
%TO.P,J26,1,Pin_1*%
%TO.N,Board_16-Net-(J13-Pad1)*%
X18378318Y-40819580D03*
%TD*%
%TO.P,J23,1,Pin_1*%
%TO.N,Board_44-Net-(J13-Pad1)*%
X70628318Y-84179580D03*
%TD*%
%TO.P,J14,1,Pin_1*%
%TO.N,Board_57-Net-(J13-Pad1)*%
X32498318Y-107249580D03*
%TD*%
%TO.P,J14,1,Pin_1*%
%TO.N,Board_30-Net-(J13-Pad1)*%
X92498318Y-59249580D03*
%TD*%
%TO.P,J21,1,Pin_1*%
%TO.N,Board_35-Net-(J13-Pad1)*%
X58608318Y-64809580D03*
%TD*%
%TO.P,J24,1,Pin_1*%
%TO.N,Board_47-Net-(J13-Pad1)*%
X102378318Y-84179580D03*
%TD*%
%TO.P,J26,1,Pin_1*%
%TO.N,Board_41-Net-(J13-Pad1)*%
X30378318Y-76819580D03*
%TD*%
D11*
%TO.P,J0,1,Pin_1*%
%TO.N,Board_41-Net-(J13-Pad1)*%
X32498318Y-80499580D03*
%TD*%
D10*
%TO.P,J15,1,Pin_1*%
%TO.N,Board_38-Net-(J13-Pad1)*%
X90118318Y-69869580D03*
%TD*%
%TO.P,J13,1,Pin_1*%
%TO.N,Board_13-Net-(J13-Pad1)*%
X82878318Y-33869580D03*
%TD*%
%TO.P,J24,1,Pin_1*%
%TO.N,Board_9-Net-(J13-Pad1)*%
X30378318Y-36179580D03*
%TD*%
D11*
%TO.P,J0,1,Pin_1*%
%TO.N,Board_63-Net-(J13-Pad1)*%
X104498318Y-104499580D03*
%TD*%
%TO.P,J0,1,Pin_1*%
%TO.N,Board_51-Net-(J13-Pad1)*%
X56498318Y-92499580D03*
%TD*%
D10*
%TO.P,J16,1,Pin_1*%
%TO.N,Board_15-Net-(J13-Pad1)*%
X102118318Y-31129580D03*
%TD*%
%TO.P,J16,1,Pin_1*%
%TO.N,Board_32-Net-(J13-Pad1)*%
X18118318Y-67129580D03*
%TD*%
%TO.P,J23,1,Pin_1*%
%TO.N,Board_11-Net-(J13-Pad1)*%
X58628318Y-36179580D03*
%TD*%
%TO.P,J11,1,Pin_1*%
%TO.N,Board_49-Net-(J13-Pad1)*%
X32498318Y-89749580D03*
%TD*%
%TO.P,J12,1,Pin_1*%
%TO.N,Board_5-Net-(J13-Pad1)*%
X82878318Y-19119580D03*
%TD*%
D11*
%TO.P,J0,1,Pin_1*%
%TO.N,Board_47-Net-(J13-Pad1)*%
X104498318Y-80499580D03*
%TD*%
%TO.P,J0,1,Pin_1*%
%TO.N,Board_49-Net-(J13-Pad1)*%
X32498318Y-92499580D03*
%TD*%
D10*
%TO.P,J14,1,Pin_1*%
%TO.N,Board_13-Net-(J13-Pad1)*%
X80498318Y-35249580D03*
%TD*%
%TO.P,J13,1,Pin_1*%
%TO.N,Board_60-Net-(J13-Pad1)*%
X70878318Y-105869580D03*
%TD*%
%TO.P,J24,1,Pin_1*%
%TO.N,Board_57-Net-(J13-Pad1)*%
X30378318Y-108179580D03*
%TD*%
%TO.P,J24,1,Pin_1*%
%TO.N,Board_18-Net-(J13-Pad1)*%
X42378318Y-48179580D03*
%TD*%
%TO.P,J25,1,Pin_1*%
%TO.N,Board_34-Net-(J13-Pad1)*%
X40248318Y-68499580D03*
%TD*%
%TO.P,J22,1,Pin_1*%
%TO.N,Board_5-Net-(J13-Pad1)*%
X84748318Y-20499580D03*
%TD*%
%TO.P,J22,1,Pin_1*%
%TO.N,Board_28-Net-(J13-Pad1)*%
X72748318Y-56499580D03*
%TD*%
%TO.P,J26,1,Pin_1*%
%TO.N,Board_26-Net-(J13-Pad1)*%
X42378318Y-52819580D03*
%TD*%
%TO.P,J12,1,Pin_1*%
%TO.N,Board_16-Net-(J13-Pad1)*%
X22878318Y-43119580D03*
%TD*%
%TO.P,J24,1,Pin_1*%
%TO.N,Board_51-Net-(J13-Pad1)*%
X54378318Y-96179580D03*
%TD*%
%TO.P,J11,1,Pin_1*%
%TO.N,Board_30-Net-(J13-Pad1)*%
X92498318Y-53749580D03*
%TD*%
%TO.P,J24,1,Pin_1*%
%TO.N,Board_12-Net-(J13-Pad1)*%
X66378318Y-36179580D03*
%TD*%
%TO.P,J23,1,Pin_1*%
%TO.N,Board_51-Net-(J13-Pad1)*%
X58628318Y-96179580D03*
%TD*%
%TO.P,J12,1,Pin_1*%
%TO.N,Board_55-Net-(J13-Pad1)*%
X106878318Y-91119580D03*
%TD*%
%TO.P,J16,1,Pin_1*%
%TO.N,Board_62-Net-(J13-Pad1)*%
X90118318Y-103129580D03*
%TD*%
%TO.P,J24,1,Pin_1*%
%TO.N,Board_52-Net-(J13-Pad1)*%
X66378318Y-96179580D03*
%TD*%
D11*
%TO.P,J0,1,Pin_1*%
%TO.N,Board_36-Net-(J13-Pad1)*%
X68498318Y-68499580D03*
%TD*%
D10*
%TO.P,J24,1,Pin_1*%
%TO.N,Board_8-Net-(J13-Pad1)*%
X18378318Y-36179580D03*
%TD*%
%TO.P,J26,1,Pin_1*%
%TO.N,Board_8-Net-(J13-Pad1)*%
X18378318Y-28819580D03*
%TD*%
%TO.P,J15,1,Pin_1*%
%TO.N,Board_40-Net-(J13-Pad1)*%
X18118318Y-81869580D03*
%TD*%
%TO.P,J14,1,Pin_1*%
%TO.N,Board_33-Net-(J13-Pad1)*%
X32498318Y-71249580D03*
%TD*%
%TO.P,J11,1,Pin_1*%
%TO.N,Board_12-Net-(J13-Pad1)*%
X68498318Y-29749580D03*
%TD*%
%TO.P,J22,1,Pin_1*%
%TO.N,Board_27-Net-(J13-Pad1)*%
X60748318Y-56499580D03*
%TD*%
%TO.P,J26,1,Pin_1*%
%TO.N,Board_36-Net-(J13-Pad1)*%
X66378318Y-64819580D03*
%TD*%
%TO.P,J25,1,Pin_1*%
%TO.N,Board_36-Net-(J13-Pad1)*%
X64248318Y-68499580D03*
%TD*%
%TO.P,J15,1,Pin_1*%
%TO.N,Board_35-Net-(J13-Pad1)*%
X54118318Y-69869580D03*
%TD*%
%TO.P,J25,1,Pin_1*%
%TO.N,Board_29-Net-(J13-Pad1)*%
X76248318Y-56499580D03*
%TD*%
%TO.P,J21,1,Pin_1*%
%TO.N,Board_33-Net-(J13-Pad1)*%
X34608318Y-64809580D03*
%TD*%
%TO.P,J12,1,Pin_1*%
%TO.N,Board_54-Net-(J13-Pad1)*%
X94878318Y-91119580D03*
%TD*%
%TO.P,J15,1,Pin_1*%
%TO.N,Board_26-Net-(J13-Pad1)*%
X42118318Y-57869580D03*
%TD*%
%TO.P,J22,1,Pin_1*%
%TO.N,Board_0-Net-(J13-Pad1)*%
X24748318Y-20499580D03*
%TD*%
%TO.P,J15,1,Pin_1*%
%TO.N,Board_0-Net-(J13-Pad1)*%
X18118318Y-21869580D03*
%TD*%
%TO.P,J15,1,Pin_1*%
%TO.N,Board_51-Net-(J13-Pad1)*%
X54118318Y-93869580D03*
%TD*%
%TO.P,J25,1,Pin_1*%
%TO.N,Board_5-Net-(J13-Pad1)*%
X76248318Y-20499580D03*
%TD*%
%TO.P,J23,1,Pin_1*%
%TO.N,Board_57-Net-(J13-Pad1)*%
X34628318Y-108179580D03*
%TD*%
%TO.P,J25,1,Pin_1*%
%TO.N,Board_47-Net-(J13-Pad1)*%
X100248318Y-80499580D03*
%TD*%
%TO.P,J16,1,Pin_1*%
%TO.N,Board_9-Net-(J13-Pad1)*%
X30118318Y-31129580D03*
%TD*%
D11*
%TO.P,J0,1,Pin_1*%
%TO.N,Board_34-Net-(J13-Pad1)*%
X44498318Y-68499580D03*
%TD*%
D10*
%TO.P,J14,1,Pin_1*%
%TO.N,Board_58-Net-(J13-Pad1)*%
X44498318Y-107249580D03*
%TD*%
D11*
%TO.P,J0,1,Pin_1*%
%TO.N,Board_6-Net-(J13-Pad1)*%
X92498318Y-20499580D03*
%TD*%
%TO.P,J0,1,Pin_1*%
%TO.N,Board_61-Net-(J13-Pad1)*%
X80498318Y-104499580D03*
%TD*%
D10*
%TO.P,J13,1,Pin_1*%
%TO.N,Board_31-Net-(J13-Pad1)*%
X106878318Y-57869580D03*
%TD*%
%TO.P,J11,1,Pin_1*%
%TO.N,Board_55-Net-(J13-Pad1)*%
X104498318Y-89749580D03*
%TD*%
%TO.P,J12,1,Pin_1*%
%TO.N,Board_24-Net-(J13-Pad1)*%
X22878318Y-55119580D03*
%TD*%
%TO.P,J23,1,Pin_1*%
%TO.N,Board_17-Net-(J13-Pad1)*%
X34628318Y-48179580D03*
%TD*%
%TO.P,J24,1,Pin_1*%
%TO.N,Board_46-Net-(J13-Pad1)*%
X90378318Y-84179580D03*
%TD*%
%TO.P,J12,1,Pin_1*%
%TO.N,Board_50-Net-(J13-Pad1)*%
X46878318Y-91119580D03*
%TD*%
%TO.P,J15,1,Pin_1*%
%TO.N,Board_9-Net-(J13-Pad1)*%
X30118318Y-33869580D03*
%TD*%
%TO.P,J26,1,Pin_1*%
%TO.N,Board_29-Net-(J13-Pad1)*%
X78378318Y-52819580D03*
%TD*%
%TO.P,J24,1,Pin_1*%
%TO.N,Board_49-Net-(J13-Pad1)*%
X30378318Y-96179580D03*
%TD*%
%TO.P,J12,1,Pin_1*%
%TO.N,Board_14-Net-(J13-Pad1)*%
X94878318Y-31119580D03*
%TD*%
D11*
%TO.P,J0,1,Pin_1*%
%TO.N,Board_32-Net-(J13-Pad1)*%
X20498318Y-68499580D03*
%TD*%
D10*
%TO.P,J23,1,Pin_1*%
%TO.N,Board_28-Net-(J13-Pad1)*%
X70628318Y-60179580D03*
%TD*%
%TO.P,J11,1,Pin_1*%
%TO.N,Board_7-Net-(J13-Pad1)*%
X104498318Y-17749580D03*
%TD*%
D11*
%TO.P,J0,1,Pin_1*%
%TO.N,Board_27-Net-(J13-Pad1)*%
X56498318Y-56499580D03*
%TD*%
D10*
%TO.P,J21,1,Pin_1*%
%TO.N,Board_27-Net-(J13-Pad1)*%
X58608318Y-52809580D03*
%TD*%
%TO.P,J15,1,Pin_1*%
%TO.N,Board_22-Net-(J13-Pad1)*%
X90118318Y-45869580D03*
%TD*%
%TO.P,J22,1,Pin_1*%
%TO.N,Board_53-Net-(J13-Pad1)*%
X84748318Y-92499580D03*
%TD*%
%TO.P,J13,1,Pin_1*%
%TO.N,Board_28-Net-(J13-Pad1)*%
X70878318Y-57869580D03*
%TD*%
%TO.P,J25,1,Pin_1*%
%TO.N,Board_40-Net-(J13-Pad1)*%
X16248318Y-80499580D03*
%TD*%
%TO.P,J16,1,Pin_1*%
%TO.N,Board_2-Net-(J13-Pad1)*%
X42118318Y-19129580D03*
%TD*%
%TO.P,J12,1,Pin_1*%
%TO.N,Board_51-Net-(J13-Pad1)*%
X58878318Y-91119580D03*
%TD*%
%TO.P,J26,1,Pin_1*%
%TO.N,Board_48-Net-(J13-Pad1)*%
X18378318Y-88819580D03*
%TD*%
%TO.P,J13,1,Pin_1*%
%TO.N,Board_45-Net-(J13-Pad1)*%
X82878318Y-81869580D03*
%TD*%
%TO.P,J26,1,Pin_1*%
%TO.N,Board_6-Net-(J13-Pad1)*%
X90378318Y-16819580D03*
%TD*%
D11*
%TO.P,J0,1,Pin_1*%
%TO.N,Board_55-Net-(J13-Pad1)*%
X104498318Y-92499580D03*
%TD*%
D10*
%TO.P,J25,1,Pin_1*%
%TO.N,Board_16-Net-(J13-Pad1)*%
X16248318Y-44499580D03*
%TD*%
%TO.P,J15,1,Pin_1*%
%TO.N,Board_43-Net-(J13-Pad1)*%
X54118318Y-81869580D03*
%TD*%
D11*
%TO.P,J0,1,Pin_1*%
%TO.N,Board_58-Net-(J13-Pad1)*%
X44498318Y-104499580D03*
%TD*%
D10*
%TO.P,J25,1,Pin_1*%
%TO.N,Board_26-Net-(J13-Pad1)*%
X40248318Y-56499580D03*
%TD*%
%TO.P,J23,1,Pin_1*%
%TO.N,Board_18-Net-(J13-Pad1)*%
X46628318Y-48179580D03*
%TD*%
%TO.P,J15,1,Pin_1*%
%TO.N,Board_29-Net-(J13-Pad1)*%
X78118318Y-57869580D03*
%TD*%
%TO.P,J14,1,Pin_1*%
%TO.N,Board_0-Net-(J13-Pad1)*%
X20498318Y-23249580D03*
%TD*%
%TO.P,J24,1,Pin_1*%
%TO.N,Board_42-Net-(J13-Pad1)*%
X42378318Y-84179580D03*
%TD*%
%TO.P,J21,1,Pin_1*%
%TO.N,Board_38-Net-(J13-Pad1)*%
X94608318Y-64809580D03*
%TD*%
%TO.P,J22,1,Pin_1*%
%TO.N,Board_55-Net-(J13-Pad1)*%
X108748318Y-92499580D03*
%TD*%
%TO.P,J26,1,Pin_1*%
%TO.N,Board_18-Net-(J13-Pad1)*%
X42378318Y-40819580D03*
%TD*%
%TO.P,J22,1,Pin_1*%
%TO.N,Board_9-Net-(J13-Pad1)*%
X36748318Y-32499580D03*
%TD*%
%TO.P,J12,1,Pin_1*%
%TO.N,Board_17-Net-(J13-Pad1)*%
X34878318Y-43119580D03*
%TD*%
%TO.P,J12,1,Pin_1*%
%TO.N,Board_37-Net-(J13-Pad1)*%
X82878318Y-67119580D03*
%TD*%
%TO.P,J13,1,Pin_1*%
%TO.N,Board_1-Net-(J13-Pad1)*%
X34878318Y-21869580D03*
%TD*%
%TO.P,J22,1,Pin_1*%
%TO.N,Board_50-Net-(J13-Pad1)*%
X48748318Y-92499580D03*
%TD*%
%TO.P,J12,1,Pin_1*%
%TO.N,Board_42-Net-(J13-Pad1)*%
X46878318Y-79119580D03*
%TD*%
%TO.P,J21,1,Pin_1*%
%TO.N,Board_40-Net-(J13-Pad1)*%
X22608318Y-76809580D03*
%TD*%
%TO.P,J21,1,Pin_1*%
%TO.N,Board_18-Net-(J13-Pad1)*%
X46608318Y-40809580D03*
%TD*%
D11*
%TO.P,J0,1,Pin_1*%
%TO.N,Board_19-Net-(J13-Pad1)*%
X56498318Y-44499580D03*
%TD*%
D10*
%TO.P,J15,1,Pin_1*%
%TO.N,Board_45-Net-(J13-Pad1)*%
X78118318Y-81869580D03*
%TD*%
%TO.P,J21,1,Pin_1*%
%TO.N,Board_48-Net-(J13-Pad1)*%
X22608318Y-88809580D03*
%TD*%
%TO.P,J12,1,Pin_1*%
%TO.N,Board_32-Net-(J13-Pad1)*%
X22878318Y-67119580D03*
%TD*%
%TO.P,J14,1,Pin_1*%
%TO.N,Board_63-Net-(J13-Pad1)*%
X104498318Y-107249580D03*
%TD*%
%TO.P,J11,1,Pin_1*%
%TO.N,Board_4-Net-(J13-Pad1)*%
X68498318Y-17749580D03*
%TD*%
%TO.P,J26,1,Pin_1*%
%TO.N,Board_31-Net-(J13-Pad1)*%
X102378318Y-52819580D03*
%TD*%
D11*
%TO.P,J0,1,Pin_1*%
%TO.N,Board_9-Net-(J13-Pad1)*%
X32498318Y-32499580D03*
%TD*%
D10*
%TO.P,J11,1,Pin_1*%
%TO.N,Board_48-Net-(J13-Pad1)*%
X20498318Y-89749580D03*
%TD*%
%TO.P,J23,1,Pin_1*%
%TO.N,Board_61-Net-(J13-Pad1)*%
X82628318Y-108179580D03*
%TD*%
%TO.P,J11,1,Pin_1*%
%TO.N,Board_56-Net-(J13-Pad1)*%
X20498318Y-101749580D03*
%TD*%
%TO.P,J14,1,Pin_1*%
%TO.N,Board_37-Net-(J13-Pad1)*%
X80498318Y-71249580D03*
%TD*%
%TO.P,J14,1,Pin_1*%
%TO.N,Board_7-Net-(J13-Pad1)*%
X104498318Y-23249580D03*
%TD*%
%TO.P,J15,1,Pin_1*%
%TO.N,Board_15-Net-(J13-Pad1)*%
X102118318Y-33869580D03*
%TD*%
%TO.P,J14,1,Pin_1*%
%TO.N,Board_40-Net-(J13-Pad1)*%
X20498318Y-83249580D03*
%TD*%
%TO.P,J14,1,Pin_1*%
%TO.N,Board_6-Net-(J13-Pad1)*%
X92498318Y-23249580D03*
%TD*%
%TO.P,J15,1,Pin_1*%
%TO.N,Board_6-Net-(J13-Pad1)*%
X90118318Y-21869580D03*
%TD*%
%TO.P,J15,1,Pin_1*%
%TO.N,Board_54-Net-(J13-Pad1)*%
X90118318Y-93869580D03*
%TD*%
%TO.P,J25,1,Pin_1*%
%TO.N,Board_30-Net-(J13-Pad1)*%
X88248318Y-56499580D03*
%TD*%
%TO.P,J25,1,Pin_1*%
%TO.N,Board_15-Net-(J13-Pad1)*%
X100248318Y-32499580D03*
%TD*%
%TO.P,J16,1,Pin_1*%
%TO.N,Board_47-Net-(J13-Pad1)*%
X102118318Y-79129580D03*
%TD*%
%TO.P,J24,1,Pin_1*%
%TO.N,Board_30-Net-(J13-Pad1)*%
X90378318Y-60179580D03*
%TD*%
%TO.P,J14,1,Pin_1*%
%TO.N,Board_17-Net-(J13-Pad1)*%
X32498318Y-47249580D03*
%TD*%
D11*
%TO.P,J0,1,Pin_1*%
%TO.N,Board_21-Net-(J13-Pad1)*%
X80498318Y-44499580D03*
%TD*%
%TO.P,J0,1,Pin_1*%
%TO.N,Board_57-Net-(J13-Pad1)*%
X32498318Y-104499580D03*
%TD*%
D10*
%TO.P,J26,1,Pin_1*%
%TO.N,Board_54-Net-(J13-Pad1)*%
X90378318Y-88819580D03*
%TD*%
%TO.P,J12,1,Pin_1*%
%TO.N,Board_3-Net-(J13-Pad1)*%
X58878318Y-19119580D03*
%TD*%
D11*
%TO.P,J0,1,Pin_1*%
%TO.N,Board_7-Net-(J13-Pad1)*%
X104498318Y-20499580D03*
%TD*%
D10*
%TO.P,J26,1,Pin_1*%
%TO.N,Board_42-Net-(J13-Pad1)*%
X42378318Y-76819580D03*
%TD*%
%TO.P,J15,1,Pin_1*%
%TO.N,Board_52-Net-(J13-Pad1)*%
X66118318Y-93869580D03*
%TD*%
%TO.P,J22,1,Pin_1*%
%TO.N,Board_3-Net-(J13-Pad1)*%
X60748318Y-20499580D03*
%TD*%
%TO.P,J24,1,Pin_1*%
%TO.N,Board_45-Net-(J13-Pad1)*%
X78378318Y-84179580D03*
%TD*%
%TO.P,J22,1,Pin_1*%
%TO.N,Board_34-Net-(J13-Pad1)*%
X48748318Y-68499580D03*
%TD*%
%TO.P,J11,1,Pin_1*%
%TO.N,Board_38-Net-(J13-Pad1)*%
X92498318Y-65749580D03*
%TD*%
%TO.P,J22,1,Pin_1*%
%TO.N,Board_54-Net-(J13-Pad1)*%
X96748318Y-92499580D03*
%TD*%
%TO.P,J11,1,Pin_1*%
%TO.N,Board_23-Net-(J13-Pad1)*%
X104498318Y-41749580D03*
%TD*%
%TO.P,J24,1,Pin_1*%
%TO.N,Board_29-Net-(J13-Pad1)*%
X78378318Y-60179580D03*
%TD*%
%TO.P,J11,1,Pin_1*%
%TO.N,Board_6-Net-(J13-Pad1)*%
X92498318Y-17749580D03*
%TD*%
%TO.P,J21,1,Pin_1*%
%TO.N,Board_60-Net-(J13-Pad1)*%
X70608318Y-100809580D03*
%TD*%
%TO.P,J26,1,Pin_1*%
%TO.N,Board_35-Net-(J13-Pad1)*%
X54378318Y-64819580D03*
%TD*%
%TO.P,J25,1,Pin_1*%
%TO.N,Board_1-Net-(J13-Pad1)*%
X28248318Y-20499580D03*
%TD*%
%TO.P,J26,1,Pin_1*%
%TO.N,Board_7-Net-(J13-Pad1)*%
X102378318Y-16819580D03*
%TD*%
%TO.P,J16,1,Pin_1*%
%TO.N,Board_33-Net-(J13-Pad1)*%
X30118318Y-67129580D03*
%TD*%
%TO.P,J13,1,Pin_1*%
%TO.N,Board_51-Net-(J13-Pad1)*%
X58878318Y-93869580D03*
%TD*%
%TO.P,J13,1,Pin_1*%
%TO.N,Board_39-Net-(J13-Pad1)*%
X106878318Y-69869580D03*
%TD*%
%TO.P,J23,1,Pin_1*%
%TO.N,Board_60-Net-(J13-Pad1)*%
X70628318Y-108179580D03*
%TD*%
%TO.P,J21,1,Pin_1*%
%TO.N,Board_30-Net-(J13-Pad1)*%
X94608318Y-52809580D03*
%TD*%
D12*
%TO.N,Board_0-Net-(J13-Pad1)*%
X18118318Y-21869580D02*
X17618318Y-21869580D01*
X19568318Y-24179580D02*
X20498318Y-23249580D01*
X22628318Y-24179580D02*
X21428318Y-24179580D01*
X23378318Y-21869580D02*
X24748318Y-20499580D01*
X22608318Y-16809580D02*
X21438318Y-16809580D01*
X22878318Y-21869580D02*
X23378318Y-21869580D01*
X18118318Y-19129580D02*
X17618318Y-19129580D01*
X17618318Y-21869580D02*
X16248318Y-20499580D01*
X22878318Y-19119580D02*
X22878318Y-17079580D01*
X18118318Y-19129580D02*
X18118318Y-17079580D01*
X18118318Y-21869580D02*
X18118318Y-23919580D01*
X18118318Y-23919580D02*
X18378318Y-24179580D01*
X22878318Y-21869580D02*
X22878318Y-23929580D01*
X19568318Y-16819580D02*
X20498318Y-17749580D01*
X21438318Y-16809580D02*
X20498318Y-17749580D01*
X18118318Y-17079580D02*
X18378318Y-16819580D01*
X22878318Y-17079580D02*
X22608318Y-16809580D01*
X23368318Y-19119580D02*
X24748318Y-20499580D01*
X22878318Y-23929580D02*
X22628318Y-24179580D01*
X18378318Y-24179580D02*
X19568318Y-24179580D01*
X18378318Y-16819580D02*
X19568318Y-16819580D01*
X21428318Y-24179580D02*
X20498318Y-23249580D01*
X22878318Y-19119580D02*
X23368318Y-19119580D01*
X17618318Y-19129580D02*
X16248318Y-20499580D01*
%TO.N,Board_1-Net-(J13-Pad1)*%
X30118318Y-21869580D02*
X29618318Y-21869580D01*
X31568318Y-24179580D02*
X32498318Y-23249580D01*
X34628318Y-24179580D02*
X33428318Y-24179580D01*
X35378318Y-21869580D02*
X36748318Y-20499580D01*
X34608318Y-16809580D02*
X33438318Y-16809580D01*
X34878318Y-21869580D02*
X35378318Y-21869580D01*
X30118318Y-19129580D02*
X29618318Y-19129580D01*
X29618318Y-21869580D02*
X28248318Y-20499580D01*
X34878318Y-19119580D02*
X34878318Y-17079580D01*
X30118318Y-19129580D02*
X30118318Y-17079580D01*
X30118318Y-21869580D02*
X30118318Y-23919580D01*
X30118318Y-23919580D02*
X30378318Y-24179580D01*
X34878318Y-21869580D02*
X34878318Y-23929580D01*
X31568318Y-16819580D02*
X32498318Y-17749580D01*
X33438318Y-16809580D02*
X32498318Y-17749580D01*
X30118318Y-17079580D02*
X30378318Y-16819580D01*
X34878318Y-17079580D02*
X34608318Y-16809580D01*
X35368318Y-19119580D02*
X36748318Y-20499580D01*
X34878318Y-23929580D02*
X34628318Y-24179580D01*
X30378318Y-24179580D02*
X31568318Y-24179580D01*
X30378318Y-16819580D02*
X31568318Y-16819580D01*
X33428318Y-24179580D02*
X32498318Y-23249580D01*
X34878318Y-19119580D02*
X35368318Y-19119580D01*
X29618318Y-19129580D02*
X28248318Y-20499580D01*
%TO.N,Board_2-Net-(J13-Pad1)*%
X42118318Y-21869580D02*
X41618318Y-21869580D01*
X43568318Y-24179580D02*
X44498318Y-23249580D01*
X46628318Y-24179580D02*
X45428318Y-24179580D01*
X47378318Y-21869580D02*
X48748318Y-20499580D01*
X46608318Y-16809580D02*
X45438318Y-16809580D01*
X46878318Y-21869580D02*
X47378318Y-21869580D01*
X42118318Y-19129580D02*
X41618318Y-19129580D01*
X41618318Y-21869580D02*
X40248318Y-20499580D01*
X46878318Y-19119580D02*
X46878318Y-17079580D01*
X42118318Y-19129580D02*
X42118318Y-17079580D01*
X42118318Y-21869580D02*
X42118318Y-23919580D01*
X42118318Y-23919580D02*
X42378318Y-24179580D01*
X46878318Y-21869580D02*
X46878318Y-23929580D01*
X43568318Y-16819580D02*
X44498318Y-17749580D01*
X45438318Y-16809580D02*
X44498318Y-17749580D01*
X42118318Y-17079580D02*
X42378318Y-16819580D01*
X46878318Y-17079580D02*
X46608318Y-16809580D01*
X47368318Y-19119580D02*
X48748318Y-20499580D01*
X46878318Y-23929580D02*
X46628318Y-24179580D01*
X42378318Y-24179580D02*
X43568318Y-24179580D01*
X42378318Y-16819580D02*
X43568318Y-16819580D01*
X45428318Y-24179580D02*
X44498318Y-23249580D01*
X46878318Y-19119580D02*
X47368318Y-19119580D01*
X41618318Y-19129580D02*
X40248318Y-20499580D01*
%TO.N,Board_3-Net-(J13-Pad1)*%
X54118318Y-21869580D02*
X53618318Y-21869580D01*
X55568318Y-24179580D02*
X56498318Y-23249580D01*
X58628318Y-24179580D02*
X57428318Y-24179580D01*
X59378318Y-21869580D02*
X60748318Y-20499580D01*
X58608318Y-16809580D02*
X57438318Y-16809580D01*
X58878318Y-21869580D02*
X59378318Y-21869580D01*
X54118318Y-19129580D02*
X53618318Y-19129580D01*
X53618318Y-21869580D02*
X52248318Y-20499580D01*
X58878318Y-19119580D02*
X58878318Y-17079580D01*
X54118318Y-19129580D02*
X54118318Y-17079580D01*
X54118318Y-21869580D02*
X54118318Y-23919580D01*
X54118318Y-23919580D02*
X54378318Y-24179580D01*
X58878318Y-21869580D02*
X58878318Y-23929580D01*
X55568318Y-16819580D02*
X56498318Y-17749580D01*
X57438318Y-16809580D02*
X56498318Y-17749580D01*
X54118318Y-17079580D02*
X54378318Y-16819580D01*
X58878318Y-17079580D02*
X58608318Y-16809580D01*
X59368318Y-19119580D02*
X60748318Y-20499580D01*
X58878318Y-23929580D02*
X58628318Y-24179580D01*
X54378318Y-24179580D02*
X55568318Y-24179580D01*
X54378318Y-16819580D02*
X55568318Y-16819580D01*
X57428318Y-24179580D02*
X56498318Y-23249580D01*
X58878318Y-19119580D02*
X59368318Y-19119580D01*
X53618318Y-19129580D02*
X52248318Y-20499580D01*
%TO.N,Board_4-Net-(J13-Pad1)*%
X66118318Y-21869580D02*
X65618318Y-21869580D01*
X67568318Y-24179580D02*
X68498318Y-23249580D01*
X70628318Y-24179580D02*
X69428318Y-24179580D01*
X71378318Y-21869580D02*
X72748318Y-20499580D01*
X70608318Y-16809580D02*
X69438318Y-16809580D01*
X70878318Y-21869580D02*
X71378318Y-21869580D01*
X66118318Y-19129580D02*
X65618318Y-19129580D01*
X65618318Y-21869580D02*
X64248318Y-20499580D01*
X70878318Y-19119580D02*
X70878318Y-17079580D01*
X66118318Y-19129580D02*
X66118318Y-17079580D01*
X66118318Y-21869580D02*
X66118318Y-23919580D01*
X66118318Y-23919580D02*
X66378318Y-24179580D01*
X70878318Y-21869580D02*
X70878318Y-23929580D01*
X67568318Y-16819580D02*
X68498318Y-17749580D01*
X69438318Y-16809580D02*
X68498318Y-17749580D01*
X66118318Y-17079580D02*
X66378318Y-16819580D01*
X70878318Y-17079580D02*
X70608318Y-16809580D01*
X71368318Y-19119580D02*
X72748318Y-20499580D01*
X70878318Y-23929580D02*
X70628318Y-24179580D01*
X66378318Y-24179580D02*
X67568318Y-24179580D01*
X66378318Y-16819580D02*
X67568318Y-16819580D01*
X69428318Y-24179580D02*
X68498318Y-23249580D01*
X70878318Y-19119580D02*
X71368318Y-19119580D01*
X65618318Y-19129580D02*
X64248318Y-20499580D01*
%TO.N,Board_5-Net-(J13-Pad1)*%
X78118318Y-21869580D02*
X77618318Y-21869580D01*
X79568318Y-24179580D02*
X80498318Y-23249580D01*
X82628318Y-24179580D02*
X81428318Y-24179580D01*
X83378318Y-21869580D02*
X84748318Y-20499580D01*
X82608318Y-16809580D02*
X81438318Y-16809580D01*
X82878318Y-21869580D02*
X83378318Y-21869580D01*
X78118318Y-19129580D02*
X77618318Y-19129580D01*
X77618318Y-21869580D02*
X76248318Y-20499580D01*
X82878318Y-19119580D02*
X82878318Y-17079580D01*
X78118318Y-19129580D02*
X78118318Y-17079580D01*
X78118318Y-21869580D02*
X78118318Y-23919580D01*
X78118318Y-23919580D02*
X78378318Y-24179580D01*
X82878318Y-21869580D02*
X82878318Y-23929580D01*
X79568318Y-16819580D02*
X80498318Y-17749580D01*
X81438318Y-16809580D02*
X80498318Y-17749580D01*
X78118318Y-17079580D02*
X78378318Y-16819580D01*
X82878318Y-17079580D02*
X82608318Y-16809580D01*
X83368318Y-19119580D02*
X84748318Y-20499580D01*
X82878318Y-23929580D02*
X82628318Y-24179580D01*
X78378318Y-24179580D02*
X79568318Y-24179580D01*
X78378318Y-16819580D02*
X79568318Y-16819580D01*
X81428318Y-24179580D02*
X80498318Y-23249580D01*
X82878318Y-19119580D02*
X83368318Y-19119580D01*
X77618318Y-19129580D02*
X76248318Y-20499580D01*
%TO.N,Board_6-Net-(J13-Pad1)*%
X90118318Y-21869580D02*
X89618318Y-21869580D01*
X91568318Y-24179580D02*
X92498318Y-23249580D01*
X94628318Y-24179580D02*
X93428318Y-24179580D01*
X95378318Y-21869580D02*
X96748318Y-20499580D01*
X94608318Y-16809580D02*
X93438318Y-16809580D01*
X94878318Y-21869580D02*
X95378318Y-21869580D01*
X90118318Y-19129580D02*
X89618318Y-19129580D01*
X89618318Y-21869580D02*
X88248318Y-20499580D01*
X94878318Y-19119580D02*
X94878318Y-17079580D01*
X90118318Y-19129580D02*
X90118318Y-17079580D01*
X90118318Y-21869580D02*
X90118318Y-23919580D01*
X90118318Y-23919580D02*
X90378318Y-24179580D01*
X94878318Y-21869580D02*
X94878318Y-23929580D01*
X91568318Y-16819580D02*
X92498318Y-17749580D01*
X93438318Y-16809580D02*
X92498318Y-17749580D01*
X90118318Y-17079580D02*
X90378318Y-16819580D01*
X94878318Y-17079580D02*
X94608318Y-16809580D01*
X95368318Y-19119580D02*
X96748318Y-20499580D01*
X94878318Y-23929580D02*
X94628318Y-24179580D01*
X90378318Y-24179580D02*
X91568318Y-24179580D01*
X90378318Y-16819580D02*
X91568318Y-16819580D01*
X93428318Y-24179580D02*
X92498318Y-23249580D01*
X94878318Y-19119580D02*
X95368318Y-19119580D01*
X89618318Y-19129580D02*
X88248318Y-20499580D01*
%TO.N,Board_7-Net-(J13-Pad1)*%
X102118318Y-21869580D02*
X101618318Y-21869580D01*
X103568318Y-24179580D02*
X104498318Y-23249580D01*
X106628318Y-24179580D02*
X105428318Y-24179580D01*
X107378318Y-21869580D02*
X108748318Y-20499580D01*
X106608318Y-16809580D02*
X105438318Y-16809580D01*
X106878318Y-21869580D02*
X107378318Y-21869580D01*
X102118318Y-19129580D02*
X101618318Y-19129580D01*
X101618318Y-21869580D02*
X100248318Y-20499580D01*
X106878318Y-19119580D02*
X106878318Y-17079580D01*
X102118318Y-19129580D02*
X102118318Y-17079580D01*
X102118318Y-21869580D02*
X102118318Y-23919580D01*
X102118318Y-23919580D02*
X102378318Y-24179580D01*
X106878318Y-21869580D02*
X106878318Y-23929580D01*
X103568318Y-16819580D02*
X104498318Y-17749580D01*
X105438318Y-16809580D02*
X104498318Y-17749580D01*
X102118318Y-17079580D02*
X102378318Y-16819580D01*
X106878318Y-17079580D02*
X106608318Y-16809580D01*
X107368318Y-19119580D02*
X108748318Y-20499580D01*
X106878318Y-23929580D02*
X106628318Y-24179580D01*
X102378318Y-24179580D02*
X103568318Y-24179580D01*
X102378318Y-16819580D02*
X103568318Y-16819580D01*
X105428318Y-24179580D02*
X104498318Y-23249580D01*
X106878318Y-19119580D02*
X107368318Y-19119580D01*
X101618318Y-19129580D02*
X100248318Y-20499580D01*
%TO.N,Board_8-Net-(J13-Pad1)*%
X18118318Y-33869580D02*
X17618318Y-33869580D01*
X19568318Y-36179580D02*
X20498318Y-35249580D01*
X22628318Y-36179580D02*
X21428318Y-36179580D01*
X23378318Y-33869580D02*
X24748318Y-32499580D01*
X22608318Y-28809580D02*
X21438318Y-28809580D01*
X22878318Y-33869580D02*
X23378318Y-33869580D01*
X18118318Y-31129580D02*
X17618318Y-31129580D01*
X17618318Y-33869580D02*
X16248318Y-32499580D01*
X22878318Y-31119580D02*
X22878318Y-29079580D01*
X18118318Y-31129580D02*
X18118318Y-29079580D01*
X18118318Y-33869580D02*
X18118318Y-35919580D01*
X18118318Y-35919580D02*
X18378318Y-36179580D01*
X22878318Y-33869580D02*
X22878318Y-35929580D01*
X19568318Y-28819580D02*
X20498318Y-29749580D01*
X21438318Y-28809580D02*
X20498318Y-29749580D01*
X18118318Y-29079580D02*
X18378318Y-28819580D01*
X22878318Y-29079580D02*
X22608318Y-28809580D01*
X23368318Y-31119580D02*
X24748318Y-32499580D01*
X22878318Y-35929580D02*
X22628318Y-36179580D01*
X18378318Y-36179580D02*
X19568318Y-36179580D01*
X18378318Y-28819580D02*
X19568318Y-28819580D01*
X21428318Y-36179580D02*
X20498318Y-35249580D01*
X22878318Y-31119580D02*
X23368318Y-31119580D01*
X17618318Y-31129580D02*
X16248318Y-32499580D01*
%TO.N,Board_9-Net-(J13-Pad1)*%
X30118318Y-33869580D02*
X29618318Y-33869580D01*
X31568318Y-36179580D02*
X32498318Y-35249580D01*
X34628318Y-36179580D02*
X33428318Y-36179580D01*
X35378318Y-33869580D02*
X36748318Y-32499580D01*
X34608318Y-28809580D02*
X33438318Y-28809580D01*
X34878318Y-33869580D02*
X35378318Y-33869580D01*
X30118318Y-31129580D02*
X29618318Y-31129580D01*
X29618318Y-33869580D02*
X28248318Y-32499580D01*
X34878318Y-31119580D02*
X34878318Y-29079580D01*
X30118318Y-31129580D02*
X30118318Y-29079580D01*
X30118318Y-33869580D02*
X30118318Y-35919580D01*
X30118318Y-35919580D02*
X30378318Y-36179580D01*
X34878318Y-33869580D02*
X34878318Y-35929580D01*
X31568318Y-28819580D02*
X32498318Y-29749580D01*
X33438318Y-28809580D02*
X32498318Y-29749580D01*
X30118318Y-29079580D02*
X30378318Y-28819580D01*
X34878318Y-29079580D02*
X34608318Y-28809580D01*
X35368318Y-31119580D02*
X36748318Y-32499580D01*
X34878318Y-35929580D02*
X34628318Y-36179580D01*
X30378318Y-36179580D02*
X31568318Y-36179580D01*
X30378318Y-28819580D02*
X31568318Y-28819580D01*
X33428318Y-36179580D02*
X32498318Y-35249580D01*
X34878318Y-31119580D02*
X35368318Y-31119580D01*
X29618318Y-31129580D02*
X28248318Y-32499580D01*
%TO.N,Board_10-Net-(J13-Pad1)*%
X42118318Y-33869580D02*
X41618318Y-33869580D01*
X43568318Y-36179580D02*
X44498318Y-35249580D01*
X46628318Y-36179580D02*
X45428318Y-36179580D01*
X47378318Y-33869580D02*
X48748318Y-32499580D01*
X46608318Y-28809580D02*
X45438318Y-28809580D01*
X46878318Y-33869580D02*
X47378318Y-33869580D01*
X42118318Y-31129580D02*
X41618318Y-31129580D01*
X41618318Y-33869580D02*
X40248318Y-32499580D01*
X46878318Y-31119580D02*
X46878318Y-29079580D01*
X42118318Y-31129580D02*
X42118318Y-29079580D01*
X42118318Y-33869580D02*
X42118318Y-35919580D01*
X42118318Y-35919580D02*
X42378318Y-36179580D01*
X46878318Y-33869580D02*
X46878318Y-35929580D01*
X43568318Y-28819580D02*
X44498318Y-29749580D01*
X45438318Y-28809580D02*
X44498318Y-29749580D01*
X42118318Y-29079580D02*
X42378318Y-28819580D01*
X46878318Y-29079580D02*
X46608318Y-28809580D01*
X47368318Y-31119580D02*
X48748318Y-32499580D01*
X46878318Y-35929580D02*
X46628318Y-36179580D01*
X42378318Y-36179580D02*
X43568318Y-36179580D01*
X42378318Y-28819580D02*
X43568318Y-28819580D01*
X45428318Y-36179580D02*
X44498318Y-35249580D01*
X46878318Y-31119580D02*
X47368318Y-31119580D01*
X41618318Y-31129580D02*
X40248318Y-32499580D01*
%TO.N,Board_11-Net-(J13-Pad1)*%
X54118318Y-33869580D02*
X53618318Y-33869580D01*
X55568318Y-36179580D02*
X56498318Y-35249580D01*
X58628318Y-36179580D02*
X57428318Y-36179580D01*
X59378318Y-33869580D02*
X60748318Y-32499580D01*
X58608318Y-28809580D02*
X57438318Y-28809580D01*
X58878318Y-33869580D02*
X59378318Y-33869580D01*
X54118318Y-31129580D02*
X53618318Y-31129580D01*
X53618318Y-33869580D02*
X52248318Y-32499580D01*
X58878318Y-31119580D02*
X58878318Y-29079580D01*
X54118318Y-31129580D02*
X54118318Y-29079580D01*
X54118318Y-33869580D02*
X54118318Y-35919580D01*
X54118318Y-35919580D02*
X54378318Y-36179580D01*
X58878318Y-33869580D02*
X58878318Y-35929580D01*
X55568318Y-28819580D02*
X56498318Y-29749580D01*
X57438318Y-28809580D02*
X56498318Y-29749580D01*
X54118318Y-29079580D02*
X54378318Y-28819580D01*
X58878318Y-29079580D02*
X58608318Y-28809580D01*
X59368318Y-31119580D02*
X60748318Y-32499580D01*
X58878318Y-35929580D02*
X58628318Y-36179580D01*
X54378318Y-36179580D02*
X55568318Y-36179580D01*
X54378318Y-28819580D02*
X55568318Y-28819580D01*
X57428318Y-36179580D02*
X56498318Y-35249580D01*
X58878318Y-31119580D02*
X59368318Y-31119580D01*
X53618318Y-31129580D02*
X52248318Y-32499580D01*
%TO.N,Board_12-Net-(J13-Pad1)*%
X66118318Y-33869580D02*
X65618318Y-33869580D01*
X67568318Y-36179580D02*
X68498318Y-35249580D01*
X70628318Y-36179580D02*
X69428318Y-36179580D01*
X71378318Y-33869580D02*
X72748318Y-32499580D01*
X70608318Y-28809580D02*
X69438318Y-28809580D01*
X70878318Y-33869580D02*
X71378318Y-33869580D01*
X66118318Y-31129580D02*
X65618318Y-31129580D01*
X65618318Y-33869580D02*
X64248318Y-32499580D01*
X70878318Y-31119580D02*
X70878318Y-29079580D01*
X66118318Y-31129580D02*
X66118318Y-29079580D01*
X66118318Y-33869580D02*
X66118318Y-35919580D01*
X66118318Y-35919580D02*
X66378318Y-36179580D01*
X70878318Y-33869580D02*
X70878318Y-35929580D01*
X67568318Y-28819580D02*
X68498318Y-29749580D01*
X69438318Y-28809580D02*
X68498318Y-29749580D01*
X66118318Y-29079580D02*
X66378318Y-28819580D01*
X70878318Y-29079580D02*
X70608318Y-28809580D01*
X71368318Y-31119580D02*
X72748318Y-32499580D01*
X70878318Y-35929580D02*
X70628318Y-36179580D01*
X66378318Y-36179580D02*
X67568318Y-36179580D01*
X66378318Y-28819580D02*
X67568318Y-28819580D01*
X69428318Y-36179580D02*
X68498318Y-35249580D01*
X70878318Y-31119580D02*
X71368318Y-31119580D01*
X65618318Y-31129580D02*
X64248318Y-32499580D01*
%TO.N,Board_13-Net-(J13-Pad1)*%
X78118318Y-33869580D02*
X77618318Y-33869580D01*
X79568318Y-36179580D02*
X80498318Y-35249580D01*
X82628318Y-36179580D02*
X81428318Y-36179580D01*
X83378318Y-33869580D02*
X84748318Y-32499580D01*
X82608318Y-28809580D02*
X81438318Y-28809580D01*
X82878318Y-33869580D02*
X83378318Y-33869580D01*
X78118318Y-31129580D02*
X77618318Y-31129580D01*
X77618318Y-33869580D02*
X76248318Y-32499580D01*
X82878318Y-31119580D02*
X82878318Y-29079580D01*
X78118318Y-31129580D02*
X78118318Y-29079580D01*
X78118318Y-33869580D02*
X78118318Y-35919580D01*
X78118318Y-35919580D02*
X78378318Y-36179580D01*
X82878318Y-33869580D02*
X82878318Y-35929580D01*
X79568318Y-28819580D02*
X80498318Y-29749580D01*
X81438318Y-28809580D02*
X80498318Y-29749580D01*
X78118318Y-29079580D02*
X78378318Y-28819580D01*
X82878318Y-29079580D02*
X82608318Y-28809580D01*
X83368318Y-31119580D02*
X84748318Y-32499580D01*
X82878318Y-35929580D02*
X82628318Y-36179580D01*
X78378318Y-36179580D02*
X79568318Y-36179580D01*
X78378318Y-28819580D02*
X79568318Y-28819580D01*
X81428318Y-36179580D02*
X80498318Y-35249580D01*
X82878318Y-31119580D02*
X83368318Y-31119580D01*
X77618318Y-31129580D02*
X76248318Y-32499580D01*
%TO.N,Board_14-Net-(J13-Pad1)*%
X90118318Y-33869580D02*
X89618318Y-33869580D01*
X91568318Y-36179580D02*
X92498318Y-35249580D01*
X94628318Y-36179580D02*
X93428318Y-36179580D01*
X95378318Y-33869580D02*
X96748318Y-32499580D01*
X94608318Y-28809580D02*
X93438318Y-28809580D01*
X94878318Y-33869580D02*
X95378318Y-33869580D01*
X90118318Y-31129580D02*
X89618318Y-31129580D01*
X89618318Y-33869580D02*
X88248318Y-32499580D01*
X94878318Y-31119580D02*
X94878318Y-29079580D01*
X90118318Y-31129580D02*
X90118318Y-29079580D01*
X90118318Y-33869580D02*
X90118318Y-35919580D01*
X90118318Y-35919580D02*
X90378318Y-36179580D01*
X94878318Y-33869580D02*
X94878318Y-35929580D01*
X91568318Y-28819580D02*
X92498318Y-29749580D01*
X93438318Y-28809580D02*
X92498318Y-29749580D01*
X90118318Y-29079580D02*
X90378318Y-28819580D01*
X94878318Y-29079580D02*
X94608318Y-28809580D01*
X95368318Y-31119580D02*
X96748318Y-32499580D01*
X94878318Y-35929580D02*
X94628318Y-36179580D01*
X90378318Y-36179580D02*
X91568318Y-36179580D01*
X90378318Y-28819580D02*
X91568318Y-28819580D01*
X93428318Y-36179580D02*
X92498318Y-35249580D01*
X94878318Y-31119580D02*
X95368318Y-31119580D01*
X89618318Y-31129580D02*
X88248318Y-32499580D01*
%TO.N,Board_15-Net-(J13-Pad1)*%
X102118318Y-33869580D02*
X101618318Y-33869580D01*
X103568318Y-36179580D02*
X104498318Y-35249580D01*
X106628318Y-36179580D02*
X105428318Y-36179580D01*
X107378318Y-33869580D02*
X108748318Y-32499580D01*
X106608318Y-28809580D02*
X105438318Y-28809580D01*
X106878318Y-33869580D02*
X107378318Y-33869580D01*
X102118318Y-31129580D02*
X101618318Y-31129580D01*
X101618318Y-33869580D02*
X100248318Y-32499580D01*
X106878318Y-31119580D02*
X106878318Y-29079580D01*
X102118318Y-31129580D02*
X102118318Y-29079580D01*
X102118318Y-33869580D02*
X102118318Y-35919580D01*
X102118318Y-35919580D02*
X102378318Y-36179580D01*
X106878318Y-33869580D02*
X106878318Y-35929580D01*
X103568318Y-28819580D02*
X104498318Y-29749580D01*
X105438318Y-28809580D02*
X104498318Y-29749580D01*
X102118318Y-29079580D02*
X102378318Y-28819580D01*
X106878318Y-29079580D02*
X106608318Y-28809580D01*
X107368318Y-31119580D02*
X108748318Y-32499580D01*
X106878318Y-35929580D02*
X106628318Y-36179580D01*
X102378318Y-36179580D02*
X103568318Y-36179580D01*
X102378318Y-28819580D02*
X103568318Y-28819580D01*
X105428318Y-36179580D02*
X104498318Y-35249580D01*
X106878318Y-31119580D02*
X107368318Y-31119580D01*
X101618318Y-31129580D02*
X100248318Y-32499580D01*
%TO.N,Board_16-Net-(J13-Pad1)*%
X18118318Y-45869580D02*
X17618318Y-45869580D01*
X19568318Y-48179580D02*
X20498318Y-47249580D01*
X22628318Y-48179580D02*
X21428318Y-48179580D01*
X23378318Y-45869580D02*
X24748318Y-44499580D01*
X22608318Y-40809580D02*
X21438318Y-40809580D01*
X22878318Y-45869580D02*
X23378318Y-45869580D01*
X18118318Y-43129580D02*
X17618318Y-43129580D01*
X17618318Y-45869580D02*
X16248318Y-44499580D01*
X22878318Y-43119580D02*
X22878318Y-41079580D01*
X18118318Y-43129580D02*
X18118318Y-41079580D01*
X18118318Y-45869580D02*
X18118318Y-47919580D01*
X18118318Y-47919580D02*
X18378318Y-48179580D01*
X22878318Y-45869580D02*
X22878318Y-47929580D01*
X19568318Y-40819580D02*
X20498318Y-41749580D01*
X21438318Y-40809580D02*
X20498318Y-41749580D01*
X18118318Y-41079580D02*
X18378318Y-40819580D01*
X22878318Y-41079580D02*
X22608318Y-40809580D01*
X23368318Y-43119580D02*
X24748318Y-44499580D01*
X22878318Y-47929580D02*
X22628318Y-48179580D01*
X18378318Y-48179580D02*
X19568318Y-48179580D01*
X18378318Y-40819580D02*
X19568318Y-40819580D01*
X21428318Y-48179580D02*
X20498318Y-47249580D01*
X22878318Y-43119580D02*
X23368318Y-43119580D01*
X17618318Y-43129580D02*
X16248318Y-44499580D01*
%TO.N,Board_17-Net-(J13-Pad1)*%
X30118318Y-45869580D02*
X29618318Y-45869580D01*
X31568318Y-48179580D02*
X32498318Y-47249580D01*
X34628318Y-48179580D02*
X33428318Y-48179580D01*
X35378318Y-45869580D02*
X36748318Y-44499580D01*
X34608318Y-40809580D02*
X33438318Y-40809580D01*
X34878318Y-45869580D02*
X35378318Y-45869580D01*
X30118318Y-43129580D02*
X29618318Y-43129580D01*
X29618318Y-45869580D02*
X28248318Y-44499580D01*
X34878318Y-43119580D02*
X34878318Y-41079580D01*
X30118318Y-43129580D02*
X30118318Y-41079580D01*
X30118318Y-45869580D02*
X30118318Y-47919580D01*
X30118318Y-47919580D02*
X30378318Y-48179580D01*
X34878318Y-45869580D02*
X34878318Y-47929580D01*
X31568318Y-40819580D02*
X32498318Y-41749580D01*
X33438318Y-40809580D02*
X32498318Y-41749580D01*
X30118318Y-41079580D02*
X30378318Y-40819580D01*
X34878318Y-41079580D02*
X34608318Y-40809580D01*
X35368318Y-43119580D02*
X36748318Y-44499580D01*
X34878318Y-47929580D02*
X34628318Y-48179580D01*
X30378318Y-48179580D02*
X31568318Y-48179580D01*
X30378318Y-40819580D02*
X31568318Y-40819580D01*
X33428318Y-48179580D02*
X32498318Y-47249580D01*
X34878318Y-43119580D02*
X35368318Y-43119580D01*
X29618318Y-43129580D02*
X28248318Y-44499580D01*
%TO.N,Board_18-Net-(J13-Pad1)*%
X42118318Y-45869580D02*
X41618318Y-45869580D01*
X43568318Y-48179580D02*
X44498318Y-47249580D01*
X46628318Y-48179580D02*
X45428318Y-48179580D01*
X47378318Y-45869580D02*
X48748318Y-44499580D01*
X46608318Y-40809580D02*
X45438318Y-40809580D01*
X46878318Y-45869580D02*
X47378318Y-45869580D01*
X42118318Y-43129580D02*
X41618318Y-43129580D01*
X41618318Y-45869580D02*
X40248318Y-44499580D01*
X46878318Y-43119580D02*
X46878318Y-41079580D01*
X42118318Y-43129580D02*
X42118318Y-41079580D01*
X42118318Y-45869580D02*
X42118318Y-47919580D01*
X42118318Y-47919580D02*
X42378318Y-48179580D01*
X46878318Y-45869580D02*
X46878318Y-47929580D01*
X43568318Y-40819580D02*
X44498318Y-41749580D01*
X45438318Y-40809580D02*
X44498318Y-41749580D01*
X42118318Y-41079580D02*
X42378318Y-40819580D01*
X46878318Y-41079580D02*
X46608318Y-40809580D01*
X47368318Y-43119580D02*
X48748318Y-44499580D01*
X46878318Y-47929580D02*
X46628318Y-48179580D01*
X42378318Y-48179580D02*
X43568318Y-48179580D01*
X42378318Y-40819580D02*
X43568318Y-40819580D01*
X45428318Y-48179580D02*
X44498318Y-47249580D01*
X46878318Y-43119580D02*
X47368318Y-43119580D01*
X41618318Y-43129580D02*
X40248318Y-44499580D01*
%TO.N,Board_19-Net-(J13-Pad1)*%
X54118318Y-45869580D02*
X53618318Y-45869580D01*
X55568318Y-48179580D02*
X56498318Y-47249580D01*
X58628318Y-48179580D02*
X57428318Y-48179580D01*
X59378318Y-45869580D02*
X60748318Y-44499580D01*
X58608318Y-40809580D02*
X57438318Y-40809580D01*
X58878318Y-45869580D02*
X59378318Y-45869580D01*
X54118318Y-43129580D02*
X53618318Y-43129580D01*
X53618318Y-45869580D02*
X52248318Y-44499580D01*
X58878318Y-43119580D02*
X58878318Y-41079580D01*
X54118318Y-43129580D02*
X54118318Y-41079580D01*
X54118318Y-45869580D02*
X54118318Y-47919580D01*
X54118318Y-47919580D02*
X54378318Y-48179580D01*
X58878318Y-45869580D02*
X58878318Y-47929580D01*
X55568318Y-40819580D02*
X56498318Y-41749580D01*
X57438318Y-40809580D02*
X56498318Y-41749580D01*
X54118318Y-41079580D02*
X54378318Y-40819580D01*
X58878318Y-41079580D02*
X58608318Y-40809580D01*
X59368318Y-43119580D02*
X60748318Y-44499580D01*
X58878318Y-47929580D02*
X58628318Y-48179580D01*
X54378318Y-48179580D02*
X55568318Y-48179580D01*
X54378318Y-40819580D02*
X55568318Y-40819580D01*
X57428318Y-48179580D02*
X56498318Y-47249580D01*
X58878318Y-43119580D02*
X59368318Y-43119580D01*
X53618318Y-43129580D02*
X52248318Y-44499580D01*
%TO.N,Board_20-Net-(J13-Pad1)*%
X66118318Y-45869580D02*
X65618318Y-45869580D01*
X67568318Y-48179580D02*
X68498318Y-47249580D01*
X70628318Y-48179580D02*
X69428318Y-48179580D01*
X71378318Y-45869580D02*
X72748318Y-44499580D01*
X70608318Y-40809580D02*
X69438318Y-40809580D01*
X70878318Y-45869580D02*
X71378318Y-45869580D01*
X66118318Y-43129580D02*
X65618318Y-43129580D01*
X65618318Y-45869580D02*
X64248318Y-44499580D01*
X70878318Y-43119580D02*
X70878318Y-41079580D01*
X66118318Y-43129580D02*
X66118318Y-41079580D01*
X66118318Y-45869580D02*
X66118318Y-47919580D01*
X66118318Y-47919580D02*
X66378318Y-48179580D01*
X70878318Y-45869580D02*
X70878318Y-47929580D01*
X67568318Y-40819580D02*
X68498318Y-41749580D01*
X69438318Y-40809580D02*
X68498318Y-41749580D01*
X66118318Y-41079580D02*
X66378318Y-40819580D01*
X70878318Y-41079580D02*
X70608318Y-40809580D01*
X71368318Y-43119580D02*
X72748318Y-44499580D01*
X70878318Y-47929580D02*
X70628318Y-48179580D01*
X66378318Y-48179580D02*
X67568318Y-48179580D01*
X66378318Y-40819580D02*
X67568318Y-40819580D01*
X69428318Y-48179580D02*
X68498318Y-47249580D01*
X70878318Y-43119580D02*
X71368318Y-43119580D01*
X65618318Y-43129580D02*
X64248318Y-44499580D01*
%TO.N,Board_21-Net-(J13-Pad1)*%
X78118318Y-45869580D02*
X77618318Y-45869580D01*
X79568318Y-48179580D02*
X80498318Y-47249580D01*
X82628318Y-48179580D02*
X81428318Y-48179580D01*
X83378318Y-45869580D02*
X84748318Y-44499580D01*
X82608318Y-40809580D02*
X81438318Y-40809580D01*
X82878318Y-45869580D02*
X83378318Y-45869580D01*
X78118318Y-43129580D02*
X77618318Y-43129580D01*
X77618318Y-45869580D02*
X76248318Y-44499580D01*
X82878318Y-43119580D02*
X82878318Y-41079580D01*
X78118318Y-43129580D02*
X78118318Y-41079580D01*
X78118318Y-45869580D02*
X78118318Y-47919580D01*
X78118318Y-47919580D02*
X78378318Y-48179580D01*
X82878318Y-45869580D02*
X82878318Y-47929580D01*
X79568318Y-40819580D02*
X80498318Y-41749580D01*
X81438318Y-40809580D02*
X80498318Y-41749580D01*
X78118318Y-41079580D02*
X78378318Y-40819580D01*
X82878318Y-41079580D02*
X82608318Y-40809580D01*
X83368318Y-43119580D02*
X84748318Y-44499580D01*
X82878318Y-47929580D02*
X82628318Y-48179580D01*
X78378318Y-48179580D02*
X79568318Y-48179580D01*
X78378318Y-40819580D02*
X79568318Y-40819580D01*
X81428318Y-48179580D02*
X80498318Y-47249580D01*
X82878318Y-43119580D02*
X83368318Y-43119580D01*
X77618318Y-43129580D02*
X76248318Y-44499580D01*
%TO.N,Board_22-Net-(J13-Pad1)*%
X90118318Y-45869580D02*
X89618318Y-45869580D01*
X91568318Y-48179580D02*
X92498318Y-47249580D01*
X94628318Y-48179580D02*
X93428318Y-48179580D01*
X95378318Y-45869580D02*
X96748318Y-44499580D01*
X94608318Y-40809580D02*
X93438318Y-40809580D01*
X94878318Y-45869580D02*
X95378318Y-45869580D01*
X90118318Y-43129580D02*
X89618318Y-43129580D01*
X89618318Y-45869580D02*
X88248318Y-44499580D01*
X94878318Y-43119580D02*
X94878318Y-41079580D01*
X90118318Y-43129580D02*
X90118318Y-41079580D01*
X90118318Y-45869580D02*
X90118318Y-47919580D01*
X90118318Y-47919580D02*
X90378318Y-48179580D01*
X94878318Y-45869580D02*
X94878318Y-47929580D01*
X91568318Y-40819580D02*
X92498318Y-41749580D01*
X93438318Y-40809580D02*
X92498318Y-41749580D01*
X90118318Y-41079580D02*
X90378318Y-40819580D01*
X94878318Y-41079580D02*
X94608318Y-40809580D01*
X95368318Y-43119580D02*
X96748318Y-44499580D01*
X94878318Y-47929580D02*
X94628318Y-48179580D01*
X90378318Y-48179580D02*
X91568318Y-48179580D01*
X90378318Y-40819580D02*
X91568318Y-40819580D01*
X93428318Y-48179580D02*
X92498318Y-47249580D01*
X94878318Y-43119580D02*
X95368318Y-43119580D01*
X89618318Y-43129580D02*
X88248318Y-44499580D01*
%TO.N,Board_23-Net-(J13-Pad1)*%
X102118318Y-45869580D02*
X101618318Y-45869580D01*
X103568318Y-48179580D02*
X104498318Y-47249580D01*
X106628318Y-48179580D02*
X105428318Y-48179580D01*
X107378318Y-45869580D02*
X108748318Y-44499580D01*
X106608318Y-40809580D02*
X105438318Y-40809580D01*
X106878318Y-45869580D02*
X107378318Y-45869580D01*
X102118318Y-43129580D02*
X101618318Y-43129580D01*
X101618318Y-45869580D02*
X100248318Y-44499580D01*
X106878318Y-43119580D02*
X106878318Y-41079580D01*
X102118318Y-43129580D02*
X102118318Y-41079580D01*
X102118318Y-45869580D02*
X102118318Y-47919580D01*
X102118318Y-47919580D02*
X102378318Y-48179580D01*
X106878318Y-45869580D02*
X106878318Y-47929580D01*
X103568318Y-40819580D02*
X104498318Y-41749580D01*
X105438318Y-40809580D02*
X104498318Y-41749580D01*
X102118318Y-41079580D02*
X102378318Y-40819580D01*
X106878318Y-41079580D02*
X106608318Y-40809580D01*
X107368318Y-43119580D02*
X108748318Y-44499580D01*
X106878318Y-47929580D02*
X106628318Y-48179580D01*
X102378318Y-48179580D02*
X103568318Y-48179580D01*
X102378318Y-40819580D02*
X103568318Y-40819580D01*
X105428318Y-48179580D02*
X104498318Y-47249580D01*
X106878318Y-43119580D02*
X107368318Y-43119580D01*
X101618318Y-43129580D02*
X100248318Y-44499580D01*
%TO.N,Board_24-Net-(J13-Pad1)*%
X18118318Y-57869580D02*
X17618318Y-57869580D01*
X19568318Y-60179580D02*
X20498318Y-59249580D01*
X22628318Y-60179580D02*
X21428318Y-60179580D01*
X23378318Y-57869580D02*
X24748318Y-56499580D01*
X22608318Y-52809580D02*
X21438318Y-52809580D01*
X22878318Y-57869580D02*
X23378318Y-57869580D01*
X18118318Y-55129580D02*
X17618318Y-55129580D01*
X17618318Y-57869580D02*
X16248318Y-56499580D01*
X22878318Y-55119580D02*
X22878318Y-53079580D01*
X18118318Y-55129580D02*
X18118318Y-53079580D01*
X18118318Y-57869580D02*
X18118318Y-59919580D01*
X18118318Y-59919580D02*
X18378318Y-60179580D01*
X22878318Y-57869580D02*
X22878318Y-59929580D01*
X19568318Y-52819580D02*
X20498318Y-53749580D01*
X21438318Y-52809580D02*
X20498318Y-53749580D01*
X18118318Y-53079580D02*
X18378318Y-52819580D01*
X22878318Y-53079580D02*
X22608318Y-52809580D01*
X23368318Y-55119580D02*
X24748318Y-56499580D01*
X22878318Y-59929580D02*
X22628318Y-60179580D01*
X18378318Y-60179580D02*
X19568318Y-60179580D01*
X18378318Y-52819580D02*
X19568318Y-52819580D01*
X21428318Y-60179580D02*
X20498318Y-59249580D01*
X22878318Y-55119580D02*
X23368318Y-55119580D01*
X17618318Y-55129580D02*
X16248318Y-56499580D01*
%TO.N,Board_25-Net-(J13-Pad1)*%
X30118318Y-57869580D02*
X29618318Y-57869580D01*
X31568318Y-60179580D02*
X32498318Y-59249580D01*
X34628318Y-60179580D02*
X33428318Y-60179580D01*
X35378318Y-57869580D02*
X36748318Y-56499580D01*
X34608318Y-52809580D02*
X33438318Y-52809580D01*
X34878318Y-57869580D02*
X35378318Y-57869580D01*
X30118318Y-55129580D02*
X29618318Y-55129580D01*
X29618318Y-57869580D02*
X28248318Y-56499580D01*
X34878318Y-55119580D02*
X34878318Y-53079580D01*
X30118318Y-55129580D02*
X30118318Y-53079580D01*
X30118318Y-57869580D02*
X30118318Y-59919580D01*
X30118318Y-59919580D02*
X30378318Y-60179580D01*
X34878318Y-57869580D02*
X34878318Y-59929580D01*
X31568318Y-52819580D02*
X32498318Y-53749580D01*
X33438318Y-52809580D02*
X32498318Y-53749580D01*
X30118318Y-53079580D02*
X30378318Y-52819580D01*
X34878318Y-53079580D02*
X34608318Y-52809580D01*
X35368318Y-55119580D02*
X36748318Y-56499580D01*
X34878318Y-59929580D02*
X34628318Y-60179580D01*
X30378318Y-60179580D02*
X31568318Y-60179580D01*
X30378318Y-52819580D02*
X31568318Y-52819580D01*
X33428318Y-60179580D02*
X32498318Y-59249580D01*
X34878318Y-55119580D02*
X35368318Y-55119580D01*
X29618318Y-55129580D02*
X28248318Y-56499580D01*
%TO.N,Board_26-Net-(J13-Pad1)*%
X42118318Y-57869580D02*
X41618318Y-57869580D01*
X43568318Y-60179580D02*
X44498318Y-59249580D01*
X46628318Y-60179580D02*
X45428318Y-60179580D01*
X47378318Y-57869580D02*
X48748318Y-56499580D01*
X46608318Y-52809580D02*
X45438318Y-52809580D01*
X46878318Y-57869580D02*
X47378318Y-57869580D01*
X42118318Y-55129580D02*
X41618318Y-55129580D01*
X41618318Y-57869580D02*
X40248318Y-56499580D01*
X46878318Y-55119580D02*
X46878318Y-53079580D01*
X42118318Y-55129580D02*
X42118318Y-53079580D01*
X42118318Y-57869580D02*
X42118318Y-59919580D01*
X42118318Y-59919580D02*
X42378318Y-60179580D01*
X46878318Y-57869580D02*
X46878318Y-59929580D01*
X43568318Y-52819580D02*
X44498318Y-53749580D01*
X45438318Y-52809580D02*
X44498318Y-53749580D01*
X42118318Y-53079580D02*
X42378318Y-52819580D01*
X46878318Y-53079580D02*
X46608318Y-52809580D01*
X47368318Y-55119580D02*
X48748318Y-56499580D01*
X46878318Y-59929580D02*
X46628318Y-60179580D01*
X42378318Y-60179580D02*
X43568318Y-60179580D01*
X42378318Y-52819580D02*
X43568318Y-52819580D01*
X45428318Y-60179580D02*
X44498318Y-59249580D01*
X46878318Y-55119580D02*
X47368318Y-55119580D01*
X41618318Y-55129580D02*
X40248318Y-56499580D01*
%TO.N,Board_27-Net-(J13-Pad1)*%
X54118318Y-57869580D02*
X53618318Y-57869580D01*
X55568318Y-60179580D02*
X56498318Y-59249580D01*
X58628318Y-60179580D02*
X57428318Y-60179580D01*
X59378318Y-57869580D02*
X60748318Y-56499580D01*
X58608318Y-52809580D02*
X57438318Y-52809580D01*
X58878318Y-57869580D02*
X59378318Y-57869580D01*
X54118318Y-55129580D02*
X53618318Y-55129580D01*
X53618318Y-57869580D02*
X52248318Y-56499580D01*
X58878318Y-55119580D02*
X58878318Y-53079580D01*
X54118318Y-55129580D02*
X54118318Y-53079580D01*
X54118318Y-57869580D02*
X54118318Y-59919580D01*
X54118318Y-59919580D02*
X54378318Y-60179580D01*
X58878318Y-57869580D02*
X58878318Y-59929580D01*
X55568318Y-52819580D02*
X56498318Y-53749580D01*
X57438318Y-52809580D02*
X56498318Y-53749580D01*
X54118318Y-53079580D02*
X54378318Y-52819580D01*
X58878318Y-53079580D02*
X58608318Y-52809580D01*
X59368318Y-55119580D02*
X60748318Y-56499580D01*
X58878318Y-59929580D02*
X58628318Y-60179580D01*
X54378318Y-60179580D02*
X55568318Y-60179580D01*
X54378318Y-52819580D02*
X55568318Y-52819580D01*
X57428318Y-60179580D02*
X56498318Y-59249580D01*
X58878318Y-55119580D02*
X59368318Y-55119580D01*
X53618318Y-55129580D02*
X52248318Y-56499580D01*
%TO.N,Board_28-Net-(J13-Pad1)*%
X66118318Y-57869580D02*
X65618318Y-57869580D01*
X67568318Y-60179580D02*
X68498318Y-59249580D01*
X70628318Y-60179580D02*
X69428318Y-60179580D01*
X71378318Y-57869580D02*
X72748318Y-56499580D01*
X70608318Y-52809580D02*
X69438318Y-52809580D01*
X70878318Y-57869580D02*
X71378318Y-57869580D01*
X66118318Y-55129580D02*
X65618318Y-55129580D01*
X65618318Y-57869580D02*
X64248318Y-56499580D01*
X70878318Y-55119580D02*
X70878318Y-53079580D01*
X66118318Y-55129580D02*
X66118318Y-53079580D01*
X66118318Y-57869580D02*
X66118318Y-59919580D01*
X66118318Y-59919580D02*
X66378318Y-60179580D01*
X70878318Y-57869580D02*
X70878318Y-59929580D01*
X67568318Y-52819580D02*
X68498318Y-53749580D01*
X69438318Y-52809580D02*
X68498318Y-53749580D01*
X66118318Y-53079580D02*
X66378318Y-52819580D01*
X70878318Y-53079580D02*
X70608318Y-52809580D01*
X71368318Y-55119580D02*
X72748318Y-56499580D01*
X70878318Y-59929580D02*
X70628318Y-60179580D01*
X66378318Y-60179580D02*
X67568318Y-60179580D01*
X66378318Y-52819580D02*
X67568318Y-52819580D01*
X69428318Y-60179580D02*
X68498318Y-59249580D01*
X70878318Y-55119580D02*
X71368318Y-55119580D01*
X65618318Y-55129580D02*
X64248318Y-56499580D01*
%TO.N,Board_29-Net-(J13-Pad1)*%
X78118318Y-57869580D02*
X77618318Y-57869580D01*
X79568318Y-60179580D02*
X80498318Y-59249580D01*
X82628318Y-60179580D02*
X81428318Y-60179580D01*
X83378318Y-57869580D02*
X84748318Y-56499580D01*
X82608318Y-52809580D02*
X81438318Y-52809580D01*
X82878318Y-57869580D02*
X83378318Y-57869580D01*
X78118318Y-55129580D02*
X77618318Y-55129580D01*
X77618318Y-57869580D02*
X76248318Y-56499580D01*
X82878318Y-55119580D02*
X82878318Y-53079580D01*
X78118318Y-55129580D02*
X78118318Y-53079580D01*
X78118318Y-57869580D02*
X78118318Y-59919580D01*
X78118318Y-59919580D02*
X78378318Y-60179580D01*
X82878318Y-57869580D02*
X82878318Y-59929580D01*
X79568318Y-52819580D02*
X80498318Y-53749580D01*
X81438318Y-52809580D02*
X80498318Y-53749580D01*
X78118318Y-53079580D02*
X78378318Y-52819580D01*
X82878318Y-53079580D02*
X82608318Y-52809580D01*
X83368318Y-55119580D02*
X84748318Y-56499580D01*
X82878318Y-59929580D02*
X82628318Y-60179580D01*
X78378318Y-60179580D02*
X79568318Y-60179580D01*
X78378318Y-52819580D02*
X79568318Y-52819580D01*
X81428318Y-60179580D02*
X80498318Y-59249580D01*
X82878318Y-55119580D02*
X83368318Y-55119580D01*
X77618318Y-55129580D02*
X76248318Y-56499580D01*
%TO.N,Board_30-Net-(J13-Pad1)*%
X90118318Y-57869580D02*
X89618318Y-57869580D01*
X91568318Y-60179580D02*
X92498318Y-59249580D01*
X94628318Y-60179580D02*
X93428318Y-60179580D01*
X95378318Y-57869580D02*
X96748318Y-56499580D01*
X94608318Y-52809580D02*
X93438318Y-52809580D01*
X94878318Y-57869580D02*
X95378318Y-57869580D01*
X90118318Y-55129580D02*
X89618318Y-55129580D01*
X89618318Y-57869580D02*
X88248318Y-56499580D01*
X94878318Y-55119580D02*
X94878318Y-53079580D01*
X90118318Y-55129580D02*
X90118318Y-53079580D01*
X90118318Y-57869580D02*
X90118318Y-59919580D01*
X90118318Y-59919580D02*
X90378318Y-60179580D01*
X94878318Y-57869580D02*
X94878318Y-59929580D01*
X91568318Y-52819580D02*
X92498318Y-53749580D01*
X93438318Y-52809580D02*
X92498318Y-53749580D01*
X90118318Y-53079580D02*
X90378318Y-52819580D01*
X94878318Y-53079580D02*
X94608318Y-52809580D01*
X95368318Y-55119580D02*
X96748318Y-56499580D01*
X94878318Y-59929580D02*
X94628318Y-60179580D01*
X90378318Y-60179580D02*
X91568318Y-60179580D01*
X90378318Y-52819580D02*
X91568318Y-52819580D01*
X93428318Y-60179580D02*
X92498318Y-59249580D01*
X94878318Y-55119580D02*
X95368318Y-55119580D01*
X89618318Y-55129580D02*
X88248318Y-56499580D01*
%TO.N,Board_31-Net-(J13-Pad1)*%
X102118318Y-57869580D02*
X101618318Y-57869580D01*
X103568318Y-60179580D02*
X104498318Y-59249580D01*
X106628318Y-60179580D02*
X105428318Y-60179580D01*
X107378318Y-57869580D02*
X108748318Y-56499580D01*
X106608318Y-52809580D02*
X105438318Y-52809580D01*
X106878318Y-57869580D02*
X107378318Y-57869580D01*
X102118318Y-55129580D02*
X101618318Y-55129580D01*
X101618318Y-57869580D02*
X100248318Y-56499580D01*
X106878318Y-55119580D02*
X106878318Y-53079580D01*
X102118318Y-55129580D02*
X102118318Y-53079580D01*
X102118318Y-57869580D02*
X102118318Y-59919580D01*
X102118318Y-59919580D02*
X102378318Y-60179580D01*
X106878318Y-57869580D02*
X106878318Y-59929580D01*
X103568318Y-52819580D02*
X104498318Y-53749580D01*
X105438318Y-52809580D02*
X104498318Y-53749580D01*
X102118318Y-53079580D02*
X102378318Y-52819580D01*
X106878318Y-53079580D02*
X106608318Y-52809580D01*
X107368318Y-55119580D02*
X108748318Y-56499580D01*
X106878318Y-59929580D02*
X106628318Y-60179580D01*
X102378318Y-60179580D02*
X103568318Y-60179580D01*
X102378318Y-52819580D02*
X103568318Y-52819580D01*
X105428318Y-60179580D02*
X104498318Y-59249580D01*
X106878318Y-55119580D02*
X107368318Y-55119580D01*
X101618318Y-55129580D02*
X100248318Y-56499580D01*
%TO.N,Board_32-Net-(J13-Pad1)*%
X18118318Y-69869580D02*
X17618318Y-69869580D01*
X19568318Y-72179580D02*
X20498318Y-71249580D01*
X22628318Y-72179580D02*
X21428318Y-72179580D01*
X23378318Y-69869580D02*
X24748318Y-68499580D01*
X22608318Y-64809580D02*
X21438318Y-64809580D01*
X22878318Y-69869580D02*
X23378318Y-69869580D01*
X18118318Y-67129580D02*
X17618318Y-67129580D01*
X17618318Y-69869580D02*
X16248318Y-68499580D01*
X22878318Y-67119580D02*
X22878318Y-65079580D01*
X18118318Y-67129580D02*
X18118318Y-65079580D01*
X18118318Y-69869580D02*
X18118318Y-71919580D01*
X18118318Y-71919580D02*
X18378318Y-72179580D01*
X22878318Y-69869580D02*
X22878318Y-71929580D01*
X19568318Y-64819580D02*
X20498318Y-65749580D01*
X21438318Y-64809580D02*
X20498318Y-65749580D01*
X18118318Y-65079580D02*
X18378318Y-64819580D01*
X22878318Y-65079580D02*
X22608318Y-64809580D01*
X23368318Y-67119580D02*
X24748318Y-68499580D01*
X22878318Y-71929580D02*
X22628318Y-72179580D01*
X18378318Y-72179580D02*
X19568318Y-72179580D01*
X18378318Y-64819580D02*
X19568318Y-64819580D01*
X21428318Y-72179580D02*
X20498318Y-71249580D01*
X22878318Y-67119580D02*
X23368318Y-67119580D01*
X17618318Y-67129580D02*
X16248318Y-68499580D01*
%TO.N,Board_33-Net-(J13-Pad1)*%
X30118318Y-69869580D02*
X29618318Y-69869580D01*
X31568318Y-72179580D02*
X32498318Y-71249580D01*
X34628318Y-72179580D02*
X33428318Y-72179580D01*
X35378318Y-69869580D02*
X36748318Y-68499580D01*
X34608318Y-64809580D02*
X33438318Y-64809580D01*
X34878318Y-69869580D02*
X35378318Y-69869580D01*
X30118318Y-67129580D02*
X29618318Y-67129580D01*
X29618318Y-69869580D02*
X28248318Y-68499580D01*
X34878318Y-67119580D02*
X34878318Y-65079580D01*
X30118318Y-67129580D02*
X30118318Y-65079580D01*
X30118318Y-69869580D02*
X30118318Y-71919580D01*
X30118318Y-71919580D02*
X30378318Y-72179580D01*
X34878318Y-69869580D02*
X34878318Y-71929580D01*
X31568318Y-64819580D02*
X32498318Y-65749580D01*
X33438318Y-64809580D02*
X32498318Y-65749580D01*
X30118318Y-65079580D02*
X30378318Y-64819580D01*
X34878318Y-65079580D02*
X34608318Y-64809580D01*
X35368318Y-67119580D02*
X36748318Y-68499580D01*
X34878318Y-71929580D02*
X34628318Y-72179580D01*
X30378318Y-72179580D02*
X31568318Y-72179580D01*
X30378318Y-64819580D02*
X31568318Y-64819580D01*
X33428318Y-72179580D02*
X32498318Y-71249580D01*
X34878318Y-67119580D02*
X35368318Y-67119580D01*
X29618318Y-67129580D02*
X28248318Y-68499580D01*
%TO.N,Board_34-Net-(J13-Pad1)*%
X42118318Y-69869580D02*
X41618318Y-69869580D01*
X43568318Y-72179580D02*
X44498318Y-71249580D01*
X46628318Y-72179580D02*
X45428318Y-72179580D01*
X47378318Y-69869580D02*
X48748318Y-68499580D01*
X46608318Y-64809580D02*
X45438318Y-64809580D01*
X46878318Y-69869580D02*
X47378318Y-69869580D01*
X42118318Y-67129580D02*
X41618318Y-67129580D01*
X41618318Y-69869580D02*
X40248318Y-68499580D01*
X46878318Y-67119580D02*
X46878318Y-65079580D01*
X42118318Y-67129580D02*
X42118318Y-65079580D01*
X42118318Y-69869580D02*
X42118318Y-71919580D01*
X42118318Y-71919580D02*
X42378318Y-72179580D01*
X46878318Y-69869580D02*
X46878318Y-71929580D01*
X43568318Y-64819580D02*
X44498318Y-65749580D01*
X45438318Y-64809580D02*
X44498318Y-65749580D01*
X42118318Y-65079580D02*
X42378318Y-64819580D01*
X46878318Y-65079580D02*
X46608318Y-64809580D01*
X47368318Y-67119580D02*
X48748318Y-68499580D01*
X46878318Y-71929580D02*
X46628318Y-72179580D01*
X42378318Y-72179580D02*
X43568318Y-72179580D01*
X42378318Y-64819580D02*
X43568318Y-64819580D01*
X45428318Y-72179580D02*
X44498318Y-71249580D01*
X46878318Y-67119580D02*
X47368318Y-67119580D01*
X41618318Y-67129580D02*
X40248318Y-68499580D01*
%TO.N,Board_35-Net-(J13-Pad1)*%
X54118318Y-69869580D02*
X53618318Y-69869580D01*
X55568318Y-72179580D02*
X56498318Y-71249580D01*
X58628318Y-72179580D02*
X57428318Y-72179580D01*
X59378318Y-69869580D02*
X60748318Y-68499580D01*
X58608318Y-64809580D02*
X57438318Y-64809580D01*
X58878318Y-69869580D02*
X59378318Y-69869580D01*
X54118318Y-67129580D02*
X53618318Y-67129580D01*
X53618318Y-69869580D02*
X52248318Y-68499580D01*
X58878318Y-67119580D02*
X58878318Y-65079580D01*
X54118318Y-67129580D02*
X54118318Y-65079580D01*
X54118318Y-69869580D02*
X54118318Y-71919580D01*
X54118318Y-71919580D02*
X54378318Y-72179580D01*
X58878318Y-69869580D02*
X58878318Y-71929580D01*
X55568318Y-64819580D02*
X56498318Y-65749580D01*
X57438318Y-64809580D02*
X56498318Y-65749580D01*
X54118318Y-65079580D02*
X54378318Y-64819580D01*
X58878318Y-65079580D02*
X58608318Y-64809580D01*
X59368318Y-67119580D02*
X60748318Y-68499580D01*
X58878318Y-71929580D02*
X58628318Y-72179580D01*
X54378318Y-72179580D02*
X55568318Y-72179580D01*
X54378318Y-64819580D02*
X55568318Y-64819580D01*
X57428318Y-72179580D02*
X56498318Y-71249580D01*
X58878318Y-67119580D02*
X59368318Y-67119580D01*
X53618318Y-67129580D02*
X52248318Y-68499580D01*
%TO.N,Board_36-Net-(J13-Pad1)*%
X66118318Y-69869580D02*
X65618318Y-69869580D01*
X67568318Y-72179580D02*
X68498318Y-71249580D01*
X70628318Y-72179580D02*
X69428318Y-72179580D01*
X71378318Y-69869580D02*
X72748318Y-68499580D01*
X70608318Y-64809580D02*
X69438318Y-64809580D01*
X70878318Y-69869580D02*
X71378318Y-69869580D01*
X66118318Y-67129580D02*
X65618318Y-67129580D01*
X65618318Y-69869580D02*
X64248318Y-68499580D01*
X70878318Y-67119580D02*
X70878318Y-65079580D01*
X66118318Y-67129580D02*
X66118318Y-65079580D01*
X66118318Y-69869580D02*
X66118318Y-71919580D01*
X66118318Y-71919580D02*
X66378318Y-72179580D01*
X70878318Y-69869580D02*
X70878318Y-71929580D01*
X67568318Y-64819580D02*
X68498318Y-65749580D01*
X69438318Y-64809580D02*
X68498318Y-65749580D01*
X66118318Y-65079580D02*
X66378318Y-64819580D01*
X70878318Y-65079580D02*
X70608318Y-64809580D01*
X71368318Y-67119580D02*
X72748318Y-68499580D01*
X70878318Y-71929580D02*
X70628318Y-72179580D01*
X66378318Y-72179580D02*
X67568318Y-72179580D01*
X66378318Y-64819580D02*
X67568318Y-64819580D01*
X69428318Y-72179580D02*
X68498318Y-71249580D01*
X70878318Y-67119580D02*
X71368318Y-67119580D01*
X65618318Y-67129580D02*
X64248318Y-68499580D01*
%TO.N,Board_37-Net-(J13-Pad1)*%
X78118318Y-69869580D02*
X77618318Y-69869580D01*
X79568318Y-72179580D02*
X80498318Y-71249580D01*
X82628318Y-72179580D02*
X81428318Y-72179580D01*
X83378318Y-69869580D02*
X84748318Y-68499580D01*
X82608318Y-64809580D02*
X81438318Y-64809580D01*
X82878318Y-69869580D02*
X83378318Y-69869580D01*
X78118318Y-67129580D02*
X77618318Y-67129580D01*
X77618318Y-69869580D02*
X76248318Y-68499580D01*
X82878318Y-67119580D02*
X82878318Y-65079580D01*
X78118318Y-67129580D02*
X78118318Y-65079580D01*
X78118318Y-69869580D02*
X78118318Y-71919580D01*
X78118318Y-71919580D02*
X78378318Y-72179580D01*
X82878318Y-69869580D02*
X82878318Y-71929580D01*
X79568318Y-64819580D02*
X80498318Y-65749580D01*
X81438318Y-64809580D02*
X80498318Y-65749580D01*
X78118318Y-65079580D02*
X78378318Y-64819580D01*
X82878318Y-65079580D02*
X82608318Y-64809580D01*
X83368318Y-67119580D02*
X84748318Y-68499580D01*
X82878318Y-71929580D02*
X82628318Y-72179580D01*
X78378318Y-72179580D02*
X79568318Y-72179580D01*
X78378318Y-64819580D02*
X79568318Y-64819580D01*
X81428318Y-72179580D02*
X80498318Y-71249580D01*
X82878318Y-67119580D02*
X83368318Y-67119580D01*
X77618318Y-67129580D02*
X76248318Y-68499580D01*
%TO.N,Board_38-Net-(J13-Pad1)*%
X90118318Y-69869580D02*
X89618318Y-69869580D01*
X91568318Y-72179580D02*
X92498318Y-71249580D01*
X94628318Y-72179580D02*
X93428318Y-72179580D01*
X95378318Y-69869580D02*
X96748318Y-68499580D01*
X94608318Y-64809580D02*
X93438318Y-64809580D01*
X94878318Y-69869580D02*
X95378318Y-69869580D01*
X90118318Y-67129580D02*
X89618318Y-67129580D01*
X89618318Y-69869580D02*
X88248318Y-68499580D01*
X94878318Y-67119580D02*
X94878318Y-65079580D01*
X90118318Y-67129580D02*
X90118318Y-65079580D01*
X90118318Y-69869580D02*
X90118318Y-71919580D01*
X90118318Y-71919580D02*
X90378318Y-72179580D01*
X94878318Y-69869580D02*
X94878318Y-71929580D01*
X91568318Y-64819580D02*
X92498318Y-65749580D01*
X93438318Y-64809580D02*
X92498318Y-65749580D01*
X90118318Y-65079580D02*
X90378318Y-64819580D01*
X94878318Y-65079580D02*
X94608318Y-64809580D01*
X95368318Y-67119580D02*
X96748318Y-68499580D01*
X94878318Y-71929580D02*
X94628318Y-72179580D01*
X90378318Y-72179580D02*
X91568318Y-72179580D01*
X90378318Y-64819580D02*
X91568318Y-64819580D01*
X93428318Y-72179580D02*
X92498318Y-71249580D01*
X94878318Y-67119580D02*
X95368318Y-67119580D01*
X89618318Y-67129580D02*
X88248318Y-68499580D01*
%TO.N,Board_39-Net-(J13-Pad1)*%
X102118318Y-69869580D02*
X101618318Y-69869580D01*
X103568318Y-72179580D02*
X104498318Y-71249580D01*
X106628318Y-72179580D02*
X105428318Y-72179580D01*
X107378318Y-69869580D02*
X108748318Y-68499580D01*
X106608318Y-64809580D02*
X105438318Y-64809580D01*
X106878318Y-69869580D02*
X107378318Y-69869580D01*
X102118318Y-67129580D02*
X101618318Y-67129580D01*
X101618318Y-69869580D02*
X100248318Y-68499580D01*
X106878318Y-67119580D02*
X106878318Y-65079580D01*
X102118318Y-67129580D02*
X102118318Y-65079580D01*
X102118318Y-69869580D02*
X102118318Y-71919580D01*
X102118318Y-71919580D02*
X102378318Y-72179580D01*
X106878318Y-69869580D02*
X106878318Y-71929580D01*
X103568318Y-64819580D02*
X104498318Y-65749580D01*
X105438318Y-64809580D02*
X104498318Y-65749580D01*
X102118318Y-65079580D02*
X102378318Y-64819580D01*
X106878318Y-65079580D02*
X106608318Y-64809580D01*
X107368318Y-67119580D02*
X108748318Y-68499580D01*
X106878318Y-71929580D02*
X106628318Y-72179580D01*
X102378318Y-72179580D02*
X103568318Y-72179580D01*
X102378318Y-64819580D02*
X103568318Y-64819580D01*
X105428318Y-72179580D02*
X104498318Y-71249580D01*
X106878318Y-67119580D02*
X107368318Y-67119580D01*
X101618318Y-67129580D02*
X100248318Y-68499580D01*
%TO.N,Board_40-Net-(J13-Pad1)*%
X18118318Y-81869580D02*
X17618318Y-81869580D01*
X19568318Y-84179580D02*
X20498318Y-83249580D01*
X22628318Y-84179580D02*
X21428318Y-84179580D01*
X23378318Y-81869580D02*
X24748318Y-80499580D01*
X22608318Y-76809580D02*
X21438318Y-76809580D01*
X22878318Y-81869580D02*
X23378318Y-81869580D01*
X18118318Y-79129580D02*
X17618318Y-79129580D01*
X17618318Y-81869580D02*
X16248318Y-80499580D01*
X22878318Y-79119580D02*
X22878318Y-77079580D01*
X18118318Y-79129580D02*
X18118318Y-77079580D01*
X18118318Y-81869580D02*
X18118318Y-83919580D01*
X18118318Y-83919580D02*
X18378318Y-84179580D01*
X22878318Y-81869580D02*
X22878318Y-83929580D01*
X19568318Y-76819580D02*
X20498318Y-77749580D01*
X21438318Y-76809580D02*
X20498318Y-77749580D01*
X18118318Y-77079580D02*
X18378318Y-76819580D01*
X22878318Y-77079580D02*
X22608318Y-76809580D01*
X23368318Y-79119580D02*
X24748318Y-80499580D01*
X22878318Y-83929580D02*
X22628318Y-84179580D01*
X18378318Y-84179580D02*
X19568318Y-84179580D01*
X18378318Y-76819580D02*
X19568318Y-76819580D01*
X21428318Y-84179580D02*
X20498318Y-83249580D01*
X22878318Y-79119580D02*
X23368318Y-79119580D01*
X17618318Y-79129580D02*
X16248318Y-80499580D01*
%TO.N,Board_41-Net-(J13-Pad1)*%
X30118318Y-81869580D02*
X29618318Y-81869580D01*
X31568318Y-84179580D02*
X32498318Y-83249580D01*
X34628318Y-84179580D02*
X33428318Y-84179580D01*
X35378318Y-81869580D02*
X36748318Y-80499580D01*
X34608318Y-76809580D02*
X33438318Y-76809580D01*
X34878318Y-81869580D02*
X35378318Y-81869580D01*
X30118318Y-79129580D02*
X29618318Y-79129580D01*
X29618318Y-81869580D02*
X28248318Y-80499580D01*
X34878318Y-79119580D02*
X34878318Y-77079580D01*
X30118318Y-79129580D02*
X30118318Y-77079580D01*
X30118318Y-81869580D02*
X30118318Y-83919580D01*
X30118318Y-83919580D02*
X30378318Y-84179580D01*
X34878318Y-81869580D02*
X34878318Y-83929580D01*
X31568318Y-76819580D02*
X32498318Y-77749580D01*
X33438318Y-76809580D02*
X32498318Y-77749580D01*
X30118318Y-77079580D02*
X30378318Y-76819580D01*
X34878318Y-77079580D02*
X34608318Y-76809580D01*
X35368318Y-79119580D02*
X36748318Y-80499580D01*
X34878318Y-83929580D02*
X34628318Y-84179580D01*
X30378318Y-84179580D02*
X31568318Y-84179580D01*
X30378318Y-76819580D02*
X31568318Y-76819580D01*
X33428318Y-84179580D02*
X32498318Y-83249580D01*
X34878318Y-79119580D02*
X35368318Y-79119580D01*
X29618318Y-79129580D02*
X28248318Y-80499580D01*
%TO.N,Board_42-Net-(J13-Pad1)*%
X42118318Y-81869580D02*
X41618318Y-81869580D01*
X43568318Y-84179580D02*
X44498318Y-83249580D01*
X46628318Y-84179580D02*
X45428318Y-84179580D01*
X47378318Y-81869580D02*
X48748318Y-80499580D01*
X46608318Y-76809580D02*
X45438318Y-76809580D01*
X46878318Y-81869580D02*
X47378318Y-81869580D01*
X42118318Y-79129580D02*
X41618318Y-79129580D01*
X41618318Y-81869580D02*
X40248318Y-80499580D01*
X46878318Y-79119580D02*
X46878318Y-77079580D01*
X42118318Y-79129580D02*
X42118318Y-77079580D01*
X42118318Y-81869580D02*
X42118318Y-83919580D01*
X42118318Y-83919580D02*
X42378318Y-84179580D01*
X46878318Y-81869580D02*
X46878318Y-83929580D01*
X43568318Y-76819580D02*
X44498318Y-77749580D01*
X45438318Y-76809580D02*
X44498318Y-77749580D01*
X42118318Y-77079580D02*
X42378318Y-76819580D01*
X46878318Y-77079580D02*
X46608318Y-76809580D01*
X47368318Y-79119580D02*
X48748318Y-80499580D01*
X46878318Y-83929580D02*
X46628318Y-84179580D01*
X42378318Y-84179580D02*
X43568318Y-84179580D01*
X42378318Y-76819580D02*
X43568318Y-76819580D01*
X45428318Y-84179580D02*
X44498318Y-83249580D01*
X46878318Y-79119580D02*
X47368318Y-79119580D01*
X41618318Y-79129580D02*
X40248318Y-80499580D01*
%TO.N,Board_43-Net-(J13-Pad1)*%
X54118318Y-81869580D02*
X53618318Y-81869580D01*
X55568318Y-84179580D02*
X56498318Y-83249580D01*
X58628318Y-84179580D02*
X57428318Y-84179580D01*
X59378318Y-81869580D02*
X60748318Y-80499580D01*
X58608318Y-76809580D02*
X57438318Y-76809580D01*
X58878318Y-81869580D02*
X59378318Y-81869580D01*
X54118318Y-79129580D02*
X53618318Y-79129580D01*
X53618318Y-81869580D02*
X52248318Y-80499580D01*
X58878318Y-79119580D02*
X58878318Y-77079580D01*
X54118318Y-79129580D02*
X54118318Y-77079580D01*
X54118318Y-81869580D02*
X54118318Y-83919580D01*
X54118318Y-83919580D02*
X54378318Y-84179580D01*
X58878318Y-81869580D02*
X58878318Y-83929580D01*
X55568318Y-76819580D02*
X56498318Y-77749580D01*
X57438318Y-76809580D02*
X56498318Y-77749580D01*
X54118318Y-77079580D02*
X54378318Y-76819580D01*
X58878318Y-77079580D02*
X58608318Y-76809580D01*
X59368318Y-79119580D02*
X60748318Y-80499580D01*
X58878318Y-83929580D02*
X58628318Y-84179580D01*
X54378318Y-84179580D02*
X55568318Y-84179580D01*
X54378318Y-76819580D02*
X55568318Y-76819580D01*
X57428318Y-84179580D02*
X56498318Y-83249580D01*
X58878318Y-79119580D02*
X59368318Y-79119580D01*
X53618318Y-79129580D02*
X52248318Y-80499580D01*
%TO.N,Board_44-Net-(J13-Pad1)*%
X66118318Y-81869580D02*
X65618318Y-81869580D01*
X67568318Y-84179580D02*
X68498318Y-83249580D01*
X70628318Y-84179580D02*
X69428318Y-84179580D01*
X71378318Y-81869580D02*
X72748318Y-80499580D01*
X70608318Y-76809580D02*
X69438318Y-76809580D01*
X70878318Y-81869580D02*
X71378318Y-81869580D01*
X66118318Y-79129580D02*
X65618318Y-79129580D01*
X65618318Y-81869580D02*
X64248318Y-80499580D01*
X70878318Y-79119580D02*
X70878318Y-77079580D01*
X66118318Y-79129580D02*
X66118318Y-77079580D01*
X66118318Y-81869580D02*
X66118318Y-83919580D01*
X66118318Y-83919580D02*
X66378318Y-84179580D01*
X70878318Y-81869580D02*
X70878318Y-83929580D01*
X67568318Y-76819580D02*
X68498318Y-77749580D01*
X69438318Y-76809580D02*
X68498318Y-77749580D01*
X66118318Y-77079580D02*
X66378318Y-76819580D01*
X70878318Y-77079580D02*
X70608318Y-76809580D01*
X71368318Y-79119580D02*
X72748318Y-80499580D01*
X70878318Y-83929580D02*
X70628318Y-84179580D01*
X66378318Y-84179580D02*
X67568318Y-84179580D01*
X66378318Y-76819580D02*
X67568318Y-76819580D01*
X69428318Y-84179580D02*
X68498318Y-83249580D01*
X70878318Y-79119580D02*
X71368318Y-79119580D01*
X65618318Y-79129580D02*
X64248318Y-80499580D01*
%TO.N,Board_45-Net-(J13-Pad1)*%
X78118318Y-81869580D02*
X77618318Y-81869580D01*
X79568318Y-84179580D02*
X80498318Y-83249580D01*
X82628318Y-84179580D02*
X81428318Y-84179580D01*
X83378318Y-81869580D02*
X84748318Y-80499580D01*
X82608318Y-76809580D02*
X81438318Y-76809580D01*
X82878318Y-81869580D02*
X83378318Y-81869580D01*
X78118318Y-79129580D02*
X77618318Y-79129580D01*
X77618318Y-81869580D02*
X76248318Y-80499580D01*
X82878318Y-79119580D02*
X82878318Y-77079580D01*
X78118318Y-79129580D02*
X78118318Y-77079580D01*
X78118318Y-81869580D02*
X78118318Y-83919580D01*
X78118318Y-83919580D02*
X78378318Y-84179580D01*
X82878318Y-81869580D02*
X82878318Y-83929580D01*
X79568318Y-76819580D02*
X80498318Y-77749580D01*
X81438318Y-76809580D02*
X80498318Y-77749580D01*
X78118318Y-77079580D02*
X78378318Y-76819580D01*
X82878318Y-77079580D02*
X82608318Y-76809580D01*
X83368318Y-79119580D02*
X84748318Y-80499580D01*
X82878318Y-83929580D02*
X82628318Y-84179580D01*
X78378318Y-84179580D02*
X79568318Y-84179580D01*
X78378318Y-76819580D02*
X79568318Y-76819580D01*
X81428318Y-84179580D02*
X80498318Y-83249580D01*
X82878318Y-79119580D02*
X83368318Y-79119580D01*
X77618318Y-79129580D02*
X76248318Y-80499580D01*
%TO.N,Board_46-Net-(J13-Pad1)*%
X90118318Y-81869580D02*
X89618318Y-81869580D01*
X91568318Y-84179580D02*
X92498318Y-83249580D01*
X94628318Y-84179580D02*
X93428318Y-84179580D01*
X95378318Y-81869580D02*
X96748318Y-80499580D01*
X94608318Y-76809580D02*
X93438318Y-76809580D01*
X94878318Y-81869580D02*
X95378318Y-81869580D01*
X90118318Y-79129580D02*
X89618318Y-79129580D01*
X89618318Y-81869580D02*
X88248318Y-80499580D01*
X94878318Y-79119580D02*
X94878318Y-77079580D01*
X90118318Y-79129580D02*
X90118318Y-77079580D01*
X90118318Y-81869580D02*
X90118318Y-83919580D01*
X90118318Y-83919580D02*
X90378318Y-84179580D01*
X94878318Y-81869580D02*
X94878318Y-83929580D01*
X91568318Y-76819580D02*
X92498318Y-77749580D01*
X93438318Y-76809580D02*
X92498318Y-77749580D01*
X90118318Y-77079580D02*
X90378318Y-76819580D01*
X94878318Y-77079580D02*
X94608318Y-76809580D01*
X95368318Y-79119580D02*
X96748318Y-80499580D01*
X94878318Y-83929580D02*
X94628318Y-84179580D01*
X90378318Y-84179580D02*
X91568318Y-84179580D01*
X90378318Y-76819580D02*
X91568318Y-76819580D01*
X93428318Y-84179580D02*
X92498318Y-83249580D01*
X94878318Y-79119580D02*
X95368318Y-79119580D01*
X89618318Y-79129580D02*
X88248318Y-80499580D01*
%TO.N,Board_47-Net-(J13-Pad1)*%
X102118318Y-81869580D02*
X101618318Y-81869580D01*
X103568318Y-84179580D02*
X104498318Y-83249580D01*
X106628318Y-84179580D02*
X105428318Y-84179580D01*
X107378318Y-81869580D02*
X108748318Y-80499580D01*
X106608318Y-76809580D02*
X105438318Y-76809580D01*
X106878318Y-81869580D02*
X107378318Y-81869580D01*
X102118318Y-79129580D02*
X101618318Y-79129580D01*
X101618318Y-81869580D02*
X100248318Y-80499580D01*
X106878318Y-79119580D02*
X106878318Y-77079580D01*
X102118318Y-79129580D02*
X102118318Y-77079580D01*
X102118318Y-81869580D02*
X102118318Y-83919580D01*
X102118318Y-83919580D02*
X102378318Y-84179580D01*
X106878318Y-81869580D02*
X106878318Y-83929580D01*
X103568318Y-76819580D02*
X104498318Y-77749580D01*
X105438318Y-76809580D02*
X104498318Y-77749580D01*
X102118318Y-77079580D02*
X102378318Y-76819580D01*
X106878318Y-77079580D02*
X106608318Y-76809580D01*
X107368318Y-79119580D02*
X108748318Y-80499580D01*
X106878318Y-83929580D02*
X106628318Y-84179580D01*
X102378318Y-84179580D02*
X103568318Y-84179580D01*
X102378318Y-76819580D02*
X103568318Y-76819580D01*
X105428318Y-84179580D02*
X104498318Y-83249580D01*
X106878318Y-79119580D02*
X107368318Y-79119580D01*
X101618318Y-79129580D02*
X100248318Y-80499580D01*
%TO.N,Board_48-Net-(J13-Pad1)*%
X18118318Y-93869580D02*
X17618318Y-93869580D01*
X19568318Y-96179580D02*
X20498318Y-95249580D01*
X22628318Y-96179580D02*
X21428318Y-96179580D01*
X23378318Y-93869580D02*
X24748318Y-92499580D01*
X22608318Y-88809580D02*
X21438318Y-88809580D01*
X22878318Y-93869580D02*
X23378318Y-93869580D01*
X18118318Y-91129580D02*
X17618318Y-91129580D01*
X17618318Y-93869580D02*
X16248318Y-92499580D01*
X22878318Y-91119580D02*
X22878318Y-89079580D01*
X18118318Y-91129580D02*
X18118318Y-89079580D01*
X18118318Y-93869580D02*
X18118318Y-95919580D01*
X18118318Y-95919580D02*
X18378318Y-96179580D01*
X22878318Y-93869580D02*
X22878318Y-95929580D01*
X19568318Y-88819580D02*
X20498318Y-89749580D01*
X21438318Y-88809580D02*
X20498318Y-89749580D01*
X18118318Y-89079580D02*
X18378318Y-88819580D01*
X22878318Y-89079580D02*
X22608318Y-88809580D01*
X23368318Y-91119580D02*
X24748318Y-92499580D01*
X22878318Y-95929580D02*
X22628318Y-96179580D01*
X18378318Y-96179580D02*
X19568318Y-96179580D01*
X18378318Y-88819580D02*
X19568318Y-88819580D01*
X21428318Y-96179580D02*
X20498318Y-95249580D01*
X22878318Y-91119580D02*
X23368318Y-91119580D01*
X17618318Y-91129580D02*
X16248318Y-92499580D01*
%TO.N,Board_49-Net-(J13-Pad1)*%
X30118318Y-93869580D02*
X29618318Y-93869580D01*
X31568318Y-96179580D02*
X32498318Y-95249580D01*
X34628318Y-96179580D02*
X33428318Y-96179580D01*
X35378318Y-93869580D02*
X36748318Y-92499580D01*
X34608318Y-88809580D02*
X33438318Y-88809580D01*
X34878318Y-93869580D02*
X35378318Y-93869580D01*
X30118318Y-91129580D02*
X29618318Y-91129580D01*
X29618318Y-93869580D02*
X28248318Y-92499580D01*
X34878318Y-91119580D02*
X34878318Y-89079580D01*
X30118318Y-91129580D02*
X30118318Y-89079580D01*
X30118318Y-93869580D02*
X30118318Y-95919580D01*
X30118318Y-95919580D02*
X30378318Y-96179580D01*
X34878318Y-93869580D02*
X34878318Y-95929580D01*
X31568318Y-88819580D02*
X32498318Y-89749580D01*
X33438318Y-88809580D02*
X32498318Y-89749580D01*
X30118318Y-89079580D02*
X30378318Y-88819580D01*
X34878318Y-89079580D02*
X34608318Y-88809580D01*
X35368318Y-91119580D02*
X36748318Y-92499580D01*
X34878318Y-95929580D02*
X34628318Y-96179580D01*
X30378318Y-96179580D02*
X31568318Y-96179580D01*
X30378318Y-88819580D02*
X31568318Y-88819580D01*
X33428318Y-96179580D02*
X32498318Y-95249580D01*
X34878318Y-91119580D02*
X35368318Y-91119580D01*
X29618318Y-91129580D02*
X28248318Y-92499580D01*
%TO.N,Board_50-Net-(J13-Pad1)*%
X42118318Y-93869580D02*
X41618318Y-93869580D01*
X43568318Y-96179580D02*
X44498318Y-95249580D01*
X46628318Y-96179580D02*
X45428318Y-96179580D01*
X47378318Y-93869580D02*
X48748318Y-92499580D01*
X46608318Y-88809580D02*
X45438318Y-88809580D01*
X46878318Y-93869580D02*
X47378318Y-93869580D01*
X42118318Y-91129580D02*
X41618318Y-91129580D01*
X41618318Y-93869580D02*
X40248318Y-92499580D01*
X46878318Y-91119580D02*
X46878318Y-89079580D01*
X42118318Y-91129580D02*
X42118318Y-89079580D01*
X42118318Y-93869580D02*
X42118318Y-95919580D01*
X42118318Y-95919580D02*
X42378318Y-96179580D01*
X46878318Y-93869580D02*
X46878318Y-95929580D01*
X43568318Y-88819580D02*
X44498318Y-89749580D01*
X45438318Y-88809580D02*
X44498318Y-89749580D01*
X42118318Y-89079580D02*
X42378318Y-88819580D01*
X46878318Y-89079580D02*
X46608318Y-88809580D01*
X47368318Y-91119580D02*
X48748318Y-92499580D01*
X46878318Y-95929580D02*
X46628318Y-96179580D01*
X42378318Y-96179580D02*
X43568318Y-96179580D01*
X42378318Y-88819580D02*
X43568318Y-88819580D01*
X45428318Y-96179580D02*
X44498318Y-95249580D01*
X46878318Y-91119580D02*
X47368318Y-91119580D01*
X41618318Y-91129580D02*
X40248318Y-92499580D01*
%TO.N,Board_51-Net-(J13-Pad1)*%
X54118318Y-93869580D02*
X53618318Y-93869580D01*
X55568318Y-96179580D02*
X56498318Y-95249580D01*
X58628318Y-96179580D02*
X57428318Y-96179580D01*
X59378318Y-93869580D02*
X60748318Y-92499580D01*
X58608318Y-88809580D02*
X57438318Y-88809580D01*
X58878318Y-93869580D02*
X59378318Y-93869580D01*
X54118318Y-91129580D02*
X53618318Y-91129580D01*
X53618318Y-93869580D02*
X52248318Y-92499580D01*
X58878318Y-91119580D02*
X58878318Y-89079580D01*
X54118318Y-91129580D02*
X54118318Y-89079580D01*
X54118318Y-93869580D02*
X54118318Y-95919580D01*
X54118318Y-95919580D02*
X54378318Y-96179580D01*
X58878318Y-93869580D02*
X58878318Y-95929580D01*
X55568318Y-88819580D02*
X56498318Y-89749580D01*
X57438318Y-88809580D02*
X56498318Y-89749580D01*
X54118318Y-89079580D02*
X54378318Y-88819580D01*
X58878318Y-89079580D02*
X58608318Y-88809580D01*
X59368318Y-91119580D02*
X60748318Y-92499580D01*
X58878318Y-95929580D02*
X58628318Y-96179580D01*
X54378318Y-96179580D02*
X55568318Y-96179580D01*
X54378318Y-88819580D02*
X55568318Y-88819580D01*
X57428318Y-96179580D02*
X56498318Y-95249580D01*
X58878318Y-91119580D02*
X59368318Y-91119580D01*
X53618318Y-91129580D02*
X52248318Y-92499580D01*
%TO.N,Board_52-Net-(J13-Pad1)*%
X66118318Y-93869580D02*
X65618318Y-93869580D01*
X67568318Y-96179580D02*
X68498318Y-95249580D01*
X70628318Y-96179580D02*
X69428318Y-96179580D01*
X71378318Y-93869580D02*
X72748318Y-92499580D01*
X70608318Y-88809580D02*
X69438318Y-88809580D01*
X70878318Y-93869580D02*
X71378318Y-93869580D01*
X66118318Y-91129580D02*
X65618318Y-91129580D01*
X65618318Y-93869580D02*
X64248318Y-92499580D01*
X70878318Y-91119580D02*
X70878318Y-89079580D01*
X66118318Y-91129580D02*
X66118318Y-89079580D01*
X66118318Y-93869580D02*
X66118318Y-95919580D01*
X66118318Y-95919580D02*
X66378318Y-96179580D01*
X70878318Y-93869580D02*
X70878318Y-95929580D01*
X67568318Y-88819580D02*
X68498318Y-89749580D01*
X69438318Y-88809580D02*
X68498318Y-89749580D01*
X66118318Y-89079580D02*
X66378318Y-88819580D01*
X70878318Y-89079580D02*
X70608318Y-88809580D01*
X71368318Y-91119580D02*
X72748318Y-92499580D01*
X70878318Y-95929580D02*
X70628318Y-96179580D01*
X66378318Y-96179580D02*
X67568318Y-96179580D01*
X66378318Y-88819580D02*
X67568318Y-88819580D01*
X69428318Y-96179580D02*
X68498318Y-95249580D01*
X70878318Y-91119580D02*
X71368318Y-91119580D01*
X65618318Y-91129580D02*
X64248318Y-92499580D01*
%TO.N,Board_53-Net-(J13-Pad1)*%
X78118318Y-93869580D02*
X77618318Y-93869580D01*
X79568318Y-96179580D02*
X80498318Y-95249580D01*
X82628318Y-96179580D02*
X81428318Y-96179580D01*
X83378318Y-93869580D02*
X84748318Y-92499580D01*
X82608318Y-88809580D02*
X81438318Y-88809580D01*
X82878318Y-93869580D02*
X83378318Y-93869580D01*
X78118318Y-91129580D02*
X77618318Y-91129580D01*
X77618318Y-93869580D02*
X76248318Y-92499580D01*
X82878318Y-91119580D02*
X82878318Y-89079580D01*
X78118318Y-91129580D02*
X78118318Y-89079580D01*
X78118318Y-93869580D02*
X78118318Y-95919580D01*
X78118318Y-95919580D02*
X78378318Y-96179580D01*
X82878318Y-93869580D02*
X82878318Y-95929580D01*
X79568318Y-88819580D02*
X80498318Y-89749580D01*
X81438318Y-88809580D02*
X80498318Y-89749580D01*
X78118318Y-89079580D02*
X78378318Y-88819580D01*
X82878318Y-89079580D02*
X82608318Y-88809580D01*
X83368318Y-91119580D02*
X84748318Y-92499580D01*
X82878318Y-95929580D02*
X82628318Y-96179580D01*
X78378318Y-96179580D02*
X79568318Y-96179580D01*
X78378318Y-88819580D02*
X79568318Y-88819580D01*
X81428318Y-96179580D02*
X80498318Y-95249580D01*
X82878318Y-91119580D02*
X83368318Y-91119580D01*
X77618318Y-91129580D02*
X76248318Y-92499580D01*
%TO.N,Board_54-Net-(J13-Pad1)*%
X90118318Y-93869580D02*
X89618318Y-93869580D01*
X91568318Y-96179580D02*
X92498318Y-95249580D01*
X94628318Y-96179580D02*
X93428318Y-96179580D01*
X95378318Y-93869580D02*
X96748318Y-92499580D01*
X94608318Y-88809580D02*
X93438318Y-88809580D01*
X94878318Y-93869580D02*
X95378318Y-93869580D01*
X90118318Y-91129580D02*
X89618318Y-91129580D01*
X89618318Y-93869580D02*
X88248318Y-92499580D01*
X94878318Y-91119580D02*
X94878318Y-89079580D01*
X90118318Y-91129580D02*
X90118318Y-89079580D01*
X90118318Y-93869580D02*
X90118318Y-95919580D01*
X90118318Y-95919580D02*
X90378318Y-96179580D01*
X94878318Y-93869580D02*
X94878318Y-95929580D01*
X91568318Y-88819580D02*
X92498318Y-89749580D01*
X93438318Y-88809580D02*
X92498318Y-89749580D01*
X90118318Y-89079580D02*
X90378318Y-88819580D01*
X94878318Y-89079580D02*
X94608318Y-88809580D01*
X95368318Y-91119580D02*
X96748318Y-92499580D01*
X94878318Y-95929580D02*
X94628318Y-96179580D01*
X90378318Y-96179580D02*
X91568318Y-96179580D01*
X90378318Y-88819580D02*
X91568318Y-88819580D01*
X93428318Y-96179580D02*
X92498318Y-95249580D01*
X94878318Y-91119580D02*
X95368318Y-91119580D01*
X89618318Y-91129580D02*
X88248318Y-92499580D01*
%TO.N,Board_55-Net-(J13-Pad1)*%
X102118318Y-93869580D02*
X101618318Y-93869580D01*
X103568318Y-96179580D02*
X104498318Y-95249580D01*
X106628318Y-96179580D02*
X105428318Y-96179580D01*
X107378318Y-93869580D02*
X108748318Y-92499580D01*
X106608318Y-88809580D02*
X105438318Y-88809580D01*
X106878318Y-93869580D02*
X107378318Y-93869580D01*
X102118318Y-91129580D02*
X101618318Y-91129580D01*
X101618318Y-93869580D02*
X100248318Y-92499580D01*
X106878318Y-91119580D02*
X106878318Y-89079580D01*
X102118318Y-91129580D02*
X102118318Y-89079580D01*
X102118318Y-93869580D02*
X102118318Y-95919580D01*
X102118318Y-95919580D02*
X102378318Y-96179580D01*
X106878318Y-93869580D02*
X106878318Y-95929580D01*
X103568318Y-88819580D02*
X104498318Y-89749580D01*
X105438318Y-88809580D02*
X104498318Y-89749580D01*
X102118318Y-89079580D02*
X102378318Y-88819580D01*
X106878318Y-89079580D02*
X106608318Y-88809580D01*
X107368318Y-91119580D02*
X108748318Y-92499580D01*
X106878318Y-95929580D02*
X106628318Y-96179580D01*
X102378318Y-96179580D02*
X103568318Y-96179580D01*
X102378318Y-88819580D02*
X103568318Y-88819580D01*
X105428318Y-96179580D02*
X104498318Y-95249580D01*
X106878318Y-91119580D02*
X107368318Y-91119580D01*
X101618318Y-91129580D02*
X100248318Y-92499580D01*
%TO.N,Board_56-Net-(J13-Pad1)*%
X18118318Y-105869580D02*
X17618318Y-105869580D01*
X19568318Y-108179580D02*
X20498318Y-107249580D01*
X22628318Y-108179580D02*
X21428318Y-108179580D01*
X23378318Y-105869580D02*
X24748318Y-104499580D01*
X22608318Y-100809580D02*
X21438318Y-100809580D01*
X22878318Y-105869580D02*
X23378318Y-105869580D01*
X18118318Y-103129580D02*
X17618318Y-103129580D01*
X17618318Y-105869580D02*
X16248318Y-104499580D01*
X22878318Y-103119580D02*
X22878318Y-101079580D01*
X18118318Y-103129580D02*
X18118318Y-101079580D01*
X18118318Y-105869580D02*
X18118318Y-107919580D01*
X18118318Y-107919580D02*
X18378318Y-108179580D01*
X22878318Y-105869580D02*
X22878318Y-107929580D01*
X19568318Y-100819580D02*
X20498318Y-101749580D01*
X21438318Y-100809580D02*
X20498318Y-101749580D01*
X18118318Y-101079580D02*
X18378318Y-100819580D01*
X22878318Y-101079580D02*
X22608318Y-100809580D01*
X23368318Y-103119580D02*
X24748318Y-104499580D01*
X22878318Y-107929580D02*
X22628318Y-108179580D01*
X18378318Y-108179580D02*
X19568318Y-108179580D01*
X18378318Y-100819580D02*
X19568318Y-100819580D01*
X21428318Y-108179580D02*
X20498318Y-107249580D01*
X22878318Y-103119580D02*
X23368318Y-103119580D01*
X17618318Y-103129580D02*
X16248318Y-104499580D01*
%TO.N,Board_57-Net-(J13-Pad1)*%
X30118318Y-105869580D02*
X29618318Y-105869580D01*
X31568318Y-108179580D02*
X32498318Y-107249580D01*
X34628318Y-108179580D02*
X33428318Y-108179580D01*
X35378318Y-105869580D02*
X36748318Y-104499580D01*
X34608318Y-100809580D02*
X33438318Y-100809580D01*
X34878318Y-105869580D02*
X35378318Y-105869580D01*
X30118318Y-103129580D02*
X29618318Y-103129580D01*
X29618318Y-105869580D02*
X28248318Y-104499580D01*
X34878318Y-103119580D02*
X34878318Y-101079580D01*
X30118318Y-103129580D02*
X30118318Y-101079580D01*
X30118318Y-105869580D02*
X30118318Y-107919580D01*
X30118318Y-107919580D02*
X30378318Y-108179580D01*
X34878318Y-105869580D02*
X34878318Y-107929580D01*
X31568318Y-100819580D02*
X32498318Y-101749580D01*
X33438318Y-100809580D02*
X32498318Y-101749580D01*
X30118318Y-101079580D02*
X30378318Y-100819580D01*
X34878318Y-101079580D02*
X34608318Y-100809580D01*
X35368318Y-103119580D02*
X36748318Y-104499580D01*
X34878318Y-107929580D02*
X34628318Y-108179580D01*
X30378318Y-108179580D02*
X31568318Y-108179580D01*
X30378318Y-100819580D02*
X31568318Y-100819580D01*
X33428318Y-108179580D02*
X32498318Y-107249580D01*
X34878318Y-103119580D02*
X35368318Y-103119580D01*
X29618318Y-103129580D02*
X28248318Y-104499580D01*
%TO.N,Board_58-Net-(J13-Pad1)*%
X42118318Y-105869580D02*
X41618318Y-105869580D01*
X43568318Y-108179580D02*
X44498318Y-107249580D01*
X46628318Y-108179580D02*
X45428318Y-108179580D01*
X47378318Y-105869580D02*
X48748318Y-104499580D01*
X46608318Y-100809580D02*
X45438318Y-100809580D01*
X46878318Y-105869580D02*
X47378318Y-105869580D01*
X42118318Y-103129580D02*
X41618318Y-103129580D01*
X41618318Y-105869580D02*
X40248318Y-104499580D01*
X46878318Y-103119580D02*
X46878318Y-101079580D01*
X42118318Y-103129580D02*
X42118318Y-101079580D01*
X42118318Y-105869580D02*
X42118318Y-107919580D01*
X42118318Y-107919580D02*
X42378318Y-108179580D01*
X46878318Y-105869580D02*
X46878318Y-107929580D01*
X43568318Y-100819580D02*
X44498318Y-101749580D01*
X45438318Y-100809580D02*
X44498318Y-101749580D01*
X42118318Y-101079580D02*
X42378318Y-100819580D01*
X46878318Y-101079580D02*
X46608318Y-100809580D01*
X47368318Y-103119580D02*
X48748318Y-104499580D01*
X46878318Y-107929580D02*
X46628318Y-108179580D01*
X42378318Y-108179580D02*
X43568318Y-108179580D01*
X42378318Y-100819580D02*
X43568318Y-100819580D01*
X45428318Y-108179580D02*
X44498318Y-107249580D01*
X46878318Y-103119580D02*
X47368318Y-103119580D01*
X41618318Y-103129580D02*
X40248318Y-104499580D01*
%TO.N,Board_59-Net-(J13-Pad1)*%
X54118318Y-105869580D02*
X53618318Y-105869580D01*
X55568318Y-108179580D02*
X56498318Y-107249580D01*
X58628318Y-108179580D02*
X57428318Y-108179580D01*
X59378318Y-105869580D02*
X60748318Y-104499580D01*
X58608318Y-100809580D02*
X57438318Y-100809580D01*
X58878318Y-105869580D02*
X59378318Y-105869580D01*
X54118318Y-103129580D02*
X53618318Y-103129580D01*
X53618318Y-105869580D02*
X52248318Y-104499580D01*
X58878318Y-103119580D02*
X58878318Y-101079580D01*
X54118318Y-103129580D02*
X54118318Y-101079580D01*
X54118318Y-105869580D02*
X54118318Y-107919580D01*
X54118318Y-107919580D02*
X54378318Y-108179580D01*
X58878318Y-105869580D02*
X58878318Y-107929580D01*
X55568318Y-100819580D02*
X56498318Y-101749580D01*
X57438318Y-100809580D02*
X56498318Y-101749580D01*
X54118318Y-101079580D02*
X54378318Y-100819580D01*
X58878318Y-101079580D02*
X58608318Y-100809580D01*
X59368318Y-103119580D02*
X60748318Y-104499580D01*
X58878318Y-107929580D02*
X58628318Y-108179580D01*
X54378318Y-108179580D02*
X55568318Y-108179580D01*
X54378318Y-100819580D02*
X55568318Y-100819580D01*
X57428318Y-108179580D02*
X56498318Y-107249580D01*
X58878318Y-103119580D02*
X59368318Y-103119580D01*
X53618318Y-103129580D02*
X52248318Y-104499580D01*
%TO.N,Board_60-Net-(J13-Pad1)*%
X66118318Y-105869580D02*
X65618318Y-105869580D01*
X67568318Y-108179580D02*
X68498318Y-107249580D01*
X70628318Y-108179580D02*
X69428318Y-108179580D01*
X71378318Y-105869580D02*
X72748318Y-104499580D01*
X70608318Y-100809580D02*
X69438318Y-100809580D01*
X70878318Y-105869580D02*
X71378318Y-105869580D01*
X66118318Y-103129580D02*
X65618318Y-103129580D01*
X65618318Y-105869580D02*
X64248318Y-104499580D01*
X70878318Y-103119580D02*
X70878318Y-101079580D01*
X66118318Y-103129580D02*
X66118318Y-101079580D01*
X66118318Y-105869580D02*
X66118318Y-107919580D01*
X66118318Y-107919580D02*
X66378318Y-108179580D01*
X70878318Y-105869580D02*
X70878318Y-107929580D01*
X67568318Y-100819580D02*
X68498318Y-101749580D01*
X69438318Y-100809580D02*
X68498318Y-101749580D01*
X66118318Y-101079580D02*
X66378318Y-100819580D01*
X70878318Y-101079580D02*
X70608318Y-100809580D01*
X71368318Y-103119580D02*
X72748318Y-104499580D01*
X70878318Y-107929580D02*
X70628318Y-108179580D01*
X66378318Y-108179580D02*
X67568318Y-108179580D01*
X66378318Y-100819580D02*
X67568318Y-100819580D01*
X69428318Y-108179580D02*
X68498318Y-107249580D01*
X70878318Y-103119580D02*
X71368318Y-103119580D01*
X65618318Y-103129580D02*
X64248318Y-104499580D01*
%TO.N,Board_61-Net-(J13-Pad1)*%
X78118318Y-105869580D02*
X77618318Y-105869580D01*
X79568318Y-108179580D02*
X80498318Y-107249580D01*
X82628318Y-108179580D02*
X81428318Y-108179580D01*
X83378318Y-105869580D02*
X84748318Y-104499580D01*
X82608318Y-100809580D02*
X81438318Y-100809580D01*
X82878318Y-105869580D02*
X83378318Y-105869580D01*
X78118318Y-103129580D02*
X77618318Y-103129580D01*
X77618318Y-105869580D02*
X76248318Y-104499580D01*
X82878318Y-103119580D02*
X82878318Y-101079580D01*
X78118318Y-103129580D02*
X78118318Y-101079580D01*
X78118318Y-105869580D02*
X78118318Y-107919580D01*
X78118318Y-107919580D02*
X78378318Y-108179580D01*
X82878318Y-105869580D02*
X82878318Y-107929580D01*
X79568318Y-100819580D02*
X80498318Y-101749580D01*
X81438318Y-100809580D02*
X80498318Y-101749580D01*
X78118318Y-101079580D02*
X78378318Y-100819580D01*
X82878318Y-101079580D02*
X82608318Y-100809580D01*
X83368318Y-103119580D02*
X84748318Y-104499580D01*
X82878318Y-107929580D02*
X82628318Y-108179580D01*
X78378318Y-108179580D02*
X79568318Y-108179580D01*
X78378318Y-100819580D02*
X79568318Y-100819580D01*
X81428318Y-108179580D02*
X80498318Y-107249580D01*
X82878318Y-103119580D02*
X83368318Y-103119580D01*
X77618318Y-103129580D02*
X76248318Y-104499580D01*
%TO.N,Board_62-Net-(J13-Pad1)*%
X90118318Y-105869580D02*
X89618318Y-105869580D01*
X91568318Y-108179580D02*
X92498318Y-107249580D01*
X94628318Y-108179580D02*
X93428318Y-108179580D01*
X95378318Y-105869580D02*
X96748318Y-104499580D01*
X94608318Y-100809580D02*
X93438318Y-100809580D01*
X94878318Y-105869580D02*
X95378318Y-105869580D01*
X90118318Y-103129580D02*
X89618318Y-103129580D01*
X89618318Y-105869580D02*
X88248318Y-104499580D01*
X94878318Y-103119580D02*
X94878318Y-101079580D01*
X90118318Y-103129580D02*
X90118318Y-101079580D01*
X90118318Y-105869580D02*
X90118318Y-107919580D01*
X90118318Y-107919580D02*
X90378318Y-108179580D01*
X94878318Y-105869580D02*
X94878318Y-107929580D01*
X91568318Y-100819580D02*
X92498318Y-101749580D01*
X93438318Y-100809580D02*
X92498318Y-101749580D01*
X90118318Y-101079580D02*
X90378318Y-100819580D01*
X94878318Y-101079580D02*
X94608318Y-100809580D01*
X95368318Y-103119580D02*
X96748318Y-104499580D01*
X94878318Y-107929580D02*
X94628318Y-108179580D01*
X90378318Y-108179580D02*
X91568318Y-108179580D01*
X90378318Y-100819580D02*
X91568318Y-100819580D01*
X93428318Y-108179580D02*
X92498318Y-107249580D01*
X94878318Y-103119580D02*
X95368318Y-103119580D01*
X89618318Y-103129580D02*
X88248318Y-104499580D01*
%TO.N,Board_63-Net-(J13-Pad1)*%
X102118318Y-105869580D02*
X101618318Y-105869580D01*
X103568318Y-108179580D02*
X104498318Y-107249580D01*
X106628318Y-108179580D02*
X105428318Y-108179580D01*
X107378318Y-105869580D02*
X108748318Y-104499580D01*
X106608318Y-100809580D02*
X105438318Y-100809580D01*
X106878318Y-105869580D02*
X107378318Y-105869580D01*
X102118318Y-103129580D02*
X101618318Y-103129580D01*
X101618318Y-105869580D02*
X100248318Y-104499580D01*
X106878318Y-103119580D02*
X106878318Y-101079580D01*
X102118318Y-103129580D02*
X102118318Y-101079580D01*
X102118318Y-105869580D02*
X102118318Y-107919580D01*
X102118318Y-107919580D02*
X102378318Y-108179580D01*
X106878318Y-105869580D02*
X106878318Y-107929580D01*
X103568318Y-100819580D02*
X104498318Y-101749580D01*
X105438318Y-100809580D02*
X104498318Y-101749580D01*
X102118318Y-101079580D02*
X102378318Y-100819580D01*
X106878318Y-101079580D02*
X106608318Y-100809580D01*
X107368318Y-103119580D02*
X108748318Y-104499580D01*
X106878318Y-107929580D02*
X106628318Y-108179580D01*
X102378318Y-108179580D02*
X103568318Y-108179580D01*
X102378318Y-100819580D02*
X103568318Y-100819580D01*
X105428318Y-108179580D02*
X104498318Y-107249580D01*
X106878318Y-103119580D02*
X107368318Y-103119580D01*
X101618318Y-103129580D02*
X100248318Y-104499580D01*
%TD*%
M02*
